<?xml version="1.0" standalone="no"?>
<svg version="1.1" id="Layer_1" xmlns="http://www.w3.org/2000/svg" xmlns:xlink="http://www.w3.org/1999/xlink" x="0px" y="0px" width="850.394px" height="595.28px" viewBox="0 0 850.394 595.28" enable-background="new 0 0 850.394 595.28" xml:space="preserve">
<path id="color_x5F_2" fill="#fca203" d="M621.149,276.639l-7.5,8.25l-0.25,3.5h-3.25c0,0-11.25-1.25-22.5-3
	s-59.415-1.669-59.415-1.669s8.5-13.75,8.5-17s10.915-18.331,14.415-22.081s8.134-0.541,9.585-0.919c3.833-1,11.25,3.75,14.5,4.5
	s4.665,21.169,9.915,26.169s6.5,4.5,6.5,4.5l20.25-16.75c0,0,8,6.25,9.25,8.25S621.149,276.639,621.149,276.639z M406.735,106.386
	c-16-5.333-25.14-4.422-32.667,1.333c-11.333,8.667-10,34-10,34s22-3.333,34.667-4s23.999,0.668,23.999,0.668
	S422.735,111.719,406.735,106.386z M322.399,216.86c-22.644,0-41,16.908-41,37.765s18.356,37.765,41,37.765s41-16.908,41-37.765
	S345.043,216.86,322.399,216.86z"></path>
<path id="color_x5F_1" d="M274.267,488.476c-0.035,0.25-0.183,0.399-0.356,0.557c-0.338,0.309-0.979,0.406-1.684,0.374
	c-0.842,0.323-1.671,0.687-2.494,1.057c-2.309,1.036-4.595,2.121-6.858,3.252c-2.992,1.497-7.736,3.068-9.961,5.688
	c-0.972,1.145-5.638-0.029-4.725-1.105c2.992-3.522,9.368-5.6,13.416-7.529c3.262-1.555,8.276-4.982,12.019-3.098
	C273.889,487.805,274.318,488.115,274.267,488.476z M722.854,387.912c1.472,3.982,1.849,5.977,0.327,10.316
	c-1.424,4.058-5.694,6.792-8.387,9.958c-0.287,0.338-0.787,0.498-1.357,0.528c0.464,0.907,0.222,1.758-0.359,2.295
	c0.512,8.958-5.292,19.581-9.704,26.64c-3.697,5.914-9.543,14.554-17.596,11.875c-10.348-3.442-20.095-9.507-29.551-14.821
	c-10.665-5.994-21.221-12.177-31.765-18.38c-3.493,11.559-9.798,22.316-20.117,29.062c-10.368,6.778-23.191,9.223-35.347,6.733
	c-8.504-1.742-16.066-5.372-22.345-10.377c-5.179-3.601-9.49-8.322-12.376-14.327c-1.751-3.005-3.201-6.197-4.327-9.534
	c-5.023-0.703-10.73,0.078-15.667,0.343c-6.901,0.371-14.221,0.551-20.904,2.474c-1.195,0.344-5.522-1.5-3.957-1.951
	c7.328-2.108,15.358-2.348,22.926-2.691c5.412-0.246,11.523-1.003,16.979-0.154c-1.539-5.237-2.283-10.796-2.128-16.529
	c-60.821-0.046-123.831-1.158-180.261,24.789c9.497,21.499,1.806,47.549-20,58.625c-20.338,10.33-42.254,6.385-60.368-4.795
	c-4.098,1.46-8.197,3.685-11.899,5.37c-6.329,2.879-13.072,5.754-18.631,10.009c-1.137,0.871-5.431-0.986-4.552-1.659
	c6.015-4.605,13.417-7.723,20.298-10.784c3.68-1.637,7.588-3.665,11.562-5.041c-3.023-2.061-5.928-4.316-8.682-6.743
	c-2.155,1.613-5.054,2.638-7.478,3.716c-5.318,2.366-10.756,4.567-16.353,6.191c-8.526,2.474-17.972,4.582-25.22-1.907
	c-7.035-6.297-11.467-15.896-13.887-24.879c-0.864-3.209-3.95-13.221,0.208-15.727c-11.14-9.355-20.101-21.779-27.753-33.643
	c-2.734-4.239-6.329-8.774-8.1-13.523c-2.346-6.292-1.458-12.173-2.181-18.666c-0.665-5.972-3.868-11.158-4.364-17.129
	c-0.338-4.063,1.039-8.2,1.924-12.109c5.54-24.467,9.765-49.237,15.015-73.771c2.502-11.689,4.686-23.996,9.447-35.037
	c2.41-5.589,5.785-10.262,11.068-13.417c11.395-6.803,24.328-12.248,36.381-17.706c31.221-14.14,63.6-25.848,96.659-34.895
	c12.412-3.396,24.945-6.417,37.565-9.029c-1.542-2.805-3.502-6.77-0.766-9.528c1.518-1.529,3.438-2.75,5.484-3.735
	c-2.892-9.796-2.811-20.661,3.194-29.332c4.979-7.19,12.984-12.086,21.621-13.45c9.003-1.42,18.144,0.626,25.422,6.184
	c9.258,7.069,13.272,18.425,14.61,29.614c0.036,0.295-0.044,0.569-0.19,0.818c1.714,0.137,5.63,0.022,6.672,1.565
	c1.049,1.552,0.164,5.09,0.244,6.844c0.041,0.899-4.927,0.784-4.981-0.426c-0.018-0.38-0.05-6.317,0.232-6.28
	c-1.323-0.176-2.657-0.357-3.992-0.529c-0.821,0.201-1.703,0.15-2.265-0.271c-1.23-0.138-2.461-0.263-3.686-0.345
	c-8.094-0.536-16.294-0.069-24.355,0.727c-7.672,0.758-15.768,1.528-23.122,4c-3.302,1.11-7.91,2.565-10.115,5.413
	c-1.976,2.551-0.995,5.28,0.344,7.849c32.967-6.567,66.493-10.316,99.951-10.636c0.4-0.318,0.854-0.479,1.38-0.494
	c5.119-0.153,10.304,0.199,15.456,0.624c29.137,0.742,58.14,4.175,86.595,10.706c7.71,1.456,15.383,3.094,22.988,5.007
	c14.886,3.745,30.373,8.127,43.613,16.131c16.212,9.8,26.446,27.006,34.467,43.666c11.959,24.838,20.189,51.392,27.433,77.931
	c1.054,3.863,1.803,7.128,5.647,9.04c1.821,0.905,3.827,1.85,5.288,3.309c1.49,1.488,2.921,3.048,3.74,5.021
	c0.859,2.069,1.432,5.362,2.926,7.191c0.771,0.179,1.385,0.764,1.747,1.459c2.884,1.951,7.326,4.169,8.159,7.336
	c0.677,2.572,0.697,4.979-0.044,7.561c-0.662,2.305-2.221,5.417-1.288,7.836c2.658,6.892,4.168,13.927,4.477,21.312
	c0.128,3.072,0.015,6.206-0.375,9.256C723.805,381.335,722.027,385.676,722.854,387.912z M366.982,142.518
	c0.443-0.142,0.885-0.28,1.319-0.405c9.521-2.759,19.605-3.883,29.468-4.557c8.294-0.566,16.321-0.466,24.496,0.199
	c-2.267-17.922-15.049-36.459-35.387-32.751C368.679,108.322,362.364,126.251,366.982,142.518z M692.011,309.026
	C692.172,309.208,692.271,309.195,692.011,309.026L692.011,309.026z M687.104,293.872l-24.861-26.834
	c1.897,5.083,3.788,10.167,5.665,15.257l21.653,19.444C688.726,299.118,687.908,296.496,687.104,293.872z M634.068,194.823
	c0.967,2.313,1.937,4.626,2.895,6.943c2.379,5.759,4.696,11.543,6.988,17.338l-0.051-0.715l33.5,45l2.602,6.972
	c-2.146-6.995-4.37-13.963-6.82-20.869L634.068,194.823z M251.38,466.097c-2.343-2.277-4.567-4.666-6.638-7.156
	c-0.294-0.354-0.464-0.703-0.552-1.04c-0.76-1.009-1.506-2.029-2.189-3.091c-3.263-5.073-5.736-10.708-6.953-16.523
	c-0.096,0.029-0.188,0.055-0.304,0.098c-0.619,0.232-1.235,0.469-1.844,0.726c-1.89,0.796-3.761,1.637-5.63,2.479
	c-4.244,1.911-8.492,3.927-12.906,5.421c-0.599,0.203-1.217,0.413-1.846,0.609c1.156,0.821,2.174,1.726,0.903,1.303
	c-0.82-0.273-1.629-0.569-2.431-0.877c-1.679,0.411-3.402,0.597-5.053,0.122c-2.57-0.739-5.165-2.95-7.345-4.443
	c-1.378-0.944-2.656-1.91-3.804-3.02c-1.364,3.683,1.722,12.979,2.34,14.819c2.408,7.167,5.831,15.408,11.83,20.347
	c6.446,5.308,17.612,0.598,24.433-1.898c5.473-2.002,12.6-4.004,17.304-7.603C250.887,466.224,251.121,466.136,251.38,466.097z
	 M234.96,437.809c0-0.002,0-0.004-0.001-0.005c-0.056-0.027-0.109-0.045-0.167-0.075C234.857,437.762,234.902,437.78,234.96,437.809
	z M321.137,480.265c-4.234,1.491-8.703,2.77-12.991,3.727C312.509,483.392,316.859,482.177,321.137,480.265z M301.819,414.639
	c-14.942-2.569-28.949,4.924-33.883,19.374c0.081,0.177,0.136,0.367,0.132,0.581c-0.272,14.876,11.423,26.378,25.582,29.096
	c13.916,2.671,28.175-3.921,30.732-18.857C326.986,429.625,316.696,417.197,301.819,414.639z M600.582,402.793
	c-1.208-12.985-12.085-20.481-24.459-20.82c-11.571,2.915-20.395,12.936-19.576,25.311c0.836,12.639,11.307,20.518,23.775,18.778
	C592.117,424.416,601.748,415.327,600.582,402.793z M708.889,410.271c-0.73-0.376-1.465-0.745-2.206-1.101
	c-2.761-1.328-5.543-2.611-8.332-3.881c-8.024-3.653-16.082-7.234-24.146-10.798c-10.475-4.629-20.964-9.226-31.464-13.796
	c-2.416,4.546-4.824,9.096-7.212,13.656c-1.895,3.616-3.788,7.233-5.638,10.873c-0.782,1.54-2.415,4.275-2.645,5.438
	c-0.079,0.398-0.248,0.693-0.467,0.915c-0.028,0.241-0.047,0.481-0.077,0.721c0.006-0.049-0.199-0.172-0.508-0.342
	c-0.178,0.063-0.371,0.09-0.569,0.101c-0.009,0.037-0.016,0.074-0.025,0.111c18.563,10.92,37.148,23.081,57.034,31.479
	c2.317,0.979,5.09,2.585,7.561,1.247c3.999-2.166,6.923-6.168,9.29-9.954C703.507,428.502,709.321,418.473,708.889,410.271z
	 M718.586,388.993c-0.049-0.101-0.099-0.202-0.148-0.304c-0.363,0.2-0.854,0.32-1.489,0.295c-8.607-0.333-17.777-2.853-23.362-9.902
	c-4.498-5.679-6.705-13.129-5.588-20.353c2.229-14.408,14.385-21.292,27.423-16.445c1.232-3.84,3.361-7.938,0.015-10.816
	c-1.151-0.99-2.729-1.91-4.261-2.9c-13.072-1.211-27.535,4.818-30.229,18.937c-0.55,2.88-4.825,0.563-4.371-1.813
	c2.775-14.541,16.25-21.567,29.855-21.733c-2.649-5.156-3.067-10.058-8.975-12.995c-0.836-0.416-1.658-0.861-2.441-1.353
	c-1.078,0.445-2.457,0.268-3.065-0.622c-0.082-0.05-0.186-0.109-0.327-0.18c-0.533-0.268-1.069-0.52-1.622-0.746
	c-1.579-0.646-3.172-1.258-4.775-1.842c-3.278-1.194-6.575-2.338-9.882-3.449c-2.973-0.998-5.665-1.144-6.785-4.218
	c-5.06-13.892-10.198-27.755-15.414-41.588c-7.179-19.04-14.453-38.05-22.276-56.836c-1.313-3.152-6.433-12.655,1.547-10.675
	c2.777,0.689,5.461,1.756,8.146,2.731c1.409,0.512,2.817,1.031,4.241,1.5c-3.704-4.462-7.827-8.468-12.505-11.698
	c-3.789-2.617-7.856-4.852-12.085-6.809c-7.842-3.026-15.778-5.805-23.798-8.319c-2.551-0.696-5.095-1.356-7.61-1.988
	c-18.009-4.53-36.352-7.702-54.746-10.199c-15.897-2.158-31.867-3.831-47.865-5.042c-5.066-0.384-10.136-0.734-15.211-0.987
	c-1.525-0.076-3.052-0.15-4.579-0.192c-0.294,0.002-0.587,0.008-0.881,0.012c-0.068,0.005-0.125,0.011-0.173,0.017
	c0.013-0.004,0.028-0.01,0.042-0.014c-61.777,0.653-123.639,13.167-181.828,33.338c-25.227,8.745-50.009,18.891-73.928,30.772
	c-9.383,4.661-21.31,8.18-26.909,17.659c-4.915,8.32-7.003,18.376-9.164,27.676c-4.829,20.778-8.762,41.77-12.958,62.682
	c-1.558,7.764-2.977,15.573-4.766,23.288c-1.015,4.375-2.596,9.141-1.723,13.677c1.124,5.841,4.061,10.864,4.261,16.95
	c0.222,6.749-0.236,13.527,3.396,19.552c5.706,9.466,11.666,18.837,18.597,27.465c3.989,4.965,8.365,10.096,13.286,14.525
	c1.104,0.003,2.291,0.547,2.883,1.447c1.498,2.274,3.563,3.674,5.83,5.088c0.049,0.031,0.124,0.086,0.19,0.134
	c1.419,0.852,2.88,1.624,4.384,2.306c1.118-0.136,2.248-0.519,3.277-0.867c3.74-1.265,7.363-2.844,10.964-4.457
	c2.983-1.336,9.161-5.535,13.283-5.091c-0.697-6.153,0.084-12.414,2.935-18.347c5.737-11.942,16.916-20.36,29.266-24.67
	c13.892-4.848,29.664-5.235,43.543-0.075c13.875,5.159,24.736,14.744,32.521,26.929c0.766,0.105,1.523,0.515,1.977,1.306
	c0.017,0.029,0.031,0.06,0.048,0.089c57.046-26.021,120.677-24.805,182.085-24.779c7.973-25.342,35.333-39.767,61.105-35.188
	c11.087,1.97,21.564,7.401,29.049,15.921c6.146,6.996,9.212,15.363,9.992,24.192c1.256-2.438,2.508-4.877,3.781-7.307
	c2.811-5.366,5.638-10.724,8.483-16.071c0.45-0.845,1.753-1.105,2.583-0.745c12.021,5.227,24.025,10.491,36.009,15.8
	c8.052,3.567,16.102,7.143,24.104,10.82c2.348,1.079,5.884,2.126,8.568,3.679c3.299-3.741,7.756-6.709,8.712-11.946
	C719.608,392.144,719.488,390.827,718.586,388.993z M719.25,364.325c-0.769-6.031-2.878-11.354-4.372-17.166
	c-0.118-0.46-0.163-0.938-0.153-1.43c-0.201-0.033-0.393-0.08-0.557-0.158c-11.926-5.625-21.208,3.874-21.416,15.87
	c-0.247,14.203,10.183,23.814,24.098,24.353c0.385,0.015,0.723,0.081,1.014,0.182C718.943,378.683,720.198,371.761,719.25,364.325z
	 M465.351,148.479C465.074,148.513,465.125,148.549,465.351,148.479L465.351,148.479z M551.539,356.4
	c-1.026,0.526,3.369,1.12,4.313,0.636c11.607-5.947,24.277-8.629,37.153-5.65c11.259,2.604,20.979,9.516,28.473,18.124
	c0.835,0.959,5.135,0.069,4.823-0.289C607.331,347.43,576.808,343.454,551.539,356.4z M252.576,386.738
	c-1.026,0.529,3.37,1.122,4.313,0.636c23.172-11.931,54.983-13.219,73.432,7.827c0.84,0.958,5.133,0.064,4.823-0.289
	C315.107,372.053,277.583,373.862,252.576,386.738z M655.751,294.493c1.375,1.299,0.388,3.702-2.103,3.098
	c-20.906-5.065-42.438-8.017-63.836-10.009c-19.956-1.857-40.947-3.765-60.875-0.645c-0.741,0.116-1.464-0.112-2.048-0.5
	c-0.688-0.269-1.311-0.84-1.594-1.733c-7.338-23.127-13.813-46.531-20.451-69.866c-2.977-10.467-5.934-20.94-9.028-31.374
	c-1.018-3.429-2.034-6.862-3.144-10.263c-0.332-1.018-0.643-2.054-1.034-3.05c-0.131-0.335-0.244-0.561-0.33-0.708
	c0.166,0.155,0.456,0.358,0.907,0.515c-2.564-0.889-1.98-5.533,1.02-4.494c0.476,0.165,0.905,0.504,1.301,0.949
	c0.292-0.095,0.575-0.163,0.822-0.148c20.779,1.215,41.572,2.932,62.135,6.242c10.598,1.706,21.154,3.731,31.569,6.341
	c8.249,2.067,17.608,3.9,25.072,8.186c4.374,2.511,5.726,6.813,7.703,11.231c2.035,4.55,4.031,9.118,5.94,13.722
	c3.814,9.195,7.426,18.475,10.765,27.854c3.555,9.985,6.894,20.047,9.96,30.193c1.449,4.795,2.793,9.62,4.216,14.422
	c0.562,1.895,2.096,2.685,2.488,4.693C655.558,290.942,655.694,292.684,655.751,294.493z M531.341,271.549
	c2.979-5.567,5.948-11.162,9.222-16.563c4.942-8.154,12.707-14.052,21.474-13.968c0.512-0.459,1.046-0.9,1.582-1.343
	c0.366-0.8,0.772-1.794,0.866-2.455c0.25-1.75-1.25-2-2.5-1.5s-1.5,3.5-1.5,3.5s0,0-1.5-2.25c-1.216-1.824-0.789-3.319-0.584-3.82
	c-0.175,0.299-0.696,0.886-2.166,1.07c-2,0.25-3.25-2.75-3.25-2.75s1.5,1.75,3.5,0.5c1.3-0.813,1.437-1.307,1.374-1.554
	c-0.101-0.105-0.199-0.214-0.299-0.321c-7.376-6.155-9.633-18.45-7.39-26.649c2.422-8.853,5.696-9.158,9.091-11.039
	c3.395-1.881,14.473-0.438,14.473-0.438s2.13-0.69,5.608-1.165c2.508-0.741,5.147-1.05,8.005-0.889
	c4.936,0.278,11.398,3.267,13.875,7.712c0.167,0.301,0.301,0.594,0.421,0.884c0.483,0.788,0.608,1.556,0.497,2.271
	c0.023,2.919-2.464,4.868-5.064,5.012c0.328,2.731,0.021,5.564,0.893,8.153c0.154,0.457,3.286,6.715,5.026,6.12
	c0.412-0.141,1.579,1.416,1.718,1.755c0.684,1.67-2.45,4.244-4.416,5.086c0.522,4.596,1.079,11.583-3.427,14.361
	c-3.607,2.224-7.163,0.938-11.004,0.237c-3.38-0.617-6.851,3.383-8.721,6.557c4.979,6.421,4.549,15.709,8.091,23.524
	c1.086,2.395,3.38,5.895,6.383,4.148c2.175-1.266,4.184-2.803,6.124-4.4c4.168-3.431,8.201-7.05,12.036-10.852
	c0.588-0.583,1.603-0.102,2.398,0.714c0.151,0.009,0.295,0.034,0.426,0.075c0.382-2.649,2.398-5.415,3.982-7.058
	c0.794-0.823,1.738-1.646,2.774-2.362c0.05-2.507,0.282-13.413,0.557-15.917c0.311-2.833,2.446-2.797,5.104-0.675
	c2.112,1.688,2.58,11.09,2.684,14.875c0.111,0.042,0.222,0.074,0.333,0.123c4.252,1.874,9.329,8.23,7.542,13.187
	c-0.789,2.189-2.319,3.771-4.188,4.947l0.007-0.003l12,3.5l1.715,4.193c-0.591-1.994-1.185-3.987-1.797-5.974
	c-2.937-9.531-6.039-19.014-9.413-28.4c-3.367-9.367-6.919-18.671-10.765-27.853c-1.925-4.598-3.889-9.179-5.94-13.722
	c-1.572-3.481-2.886-8.466-6.453-10.513c-8.915-5.118-19.861-7.397-29.788-9.709c-9.838-2.291-19.758-4.222-29.745-5.741
	c-18.359-2.792-36.843-4.474-55.368-5.645c1.456,3.167,2.216,7.806,2.766,9.623c3.146,10.394,6.101,20.847,9.074,31.291
	c6.527,22.928,12.877,45.927,19.954,68.695C528.845,275.891,530.196,273.691,531.341,271.549z M570.554,235.979
	c-0.042,0.439-0.135,0.817-0.319,0.991c-0.094,0.089-0.181,0.163-0.273,0.248c-0.028,0.057-0.069,0.101-0.133,0.122
	c-2.062,1.88-3.674,2.803-4.813,3.244c-0.223,0.194-0.437,0.395-0.651,0.595c2.282,0.297,4.618,1.004,6.98,2.188
	c1.658,0.831,3.024,1.811,4.174,2.903c1.254-1.979,2.924-3.783,4.61-5.278c3.317-2.94,5.528-1.362,9.405-0.923
	c5.769,0.654,8.033-2.354,8.723-6.387c-2.243,1.183-4.714,1.114-6.972-0.387c-0.703-0.468,1.379-1.743,2.062-1.289
	c1.27,0.844,3.071,1.611,4.459,0.574c0.181-0.135,0.399-0.264,0.627-0.368c0.158-1.953,0.035-4.053-0.192-6.052
	c-0.268-0.414-0.496-0.794-0.638-0.787c1.191-0.063,4.436-2.145,5.275-3.967c-1.734-1.514-3.29-3.642-4.565-5.32
	c-2.425-3.191-2.293-6.768-2.678-10.399c-0.834-0.18-1.632-0.568-2.313-1.194c-0.394,0.192-0.899,0.438-1.541,0.75
	c-0.278,0.161-0.568,0.301-0.867,0.422c-0.171,0.083-0.339,0.165-0.526,0.256c-3.271,1.592-8.212-0.017-10.482-0.924
	c1.755,4.619,0.991,11.072-0.831,15.449c-0.621,1.491-1.411,3.149-3.162,3.432c-1.938,0.312-3.155-2.186-3.735-3.572
	c-0.088-0.211-0.116-0.402-0.105-0.575c-0.154-0.344-0.311-0.688-0.476-1.017c-0.239-0.046-0.423-0.137-0.486-0.291
	c-2.63-6.506-8.055-0.919-6.49,3.91c0.912,2.814,2.101,4.068,4.438,5.68c0.542,0.374,2.616,1.572,2.452,2.601
	c-0.011,0.069-0.033,0.125-0.048,0.189C571.88,232.35,571.11,234.641,570.554,235.979z M596.942,204.847
	c0.046-0.001,0.092-0.006,0.137-0.012c-0.047-0.007-0.098-0.01-0.144-0.018C596.937,204.828,596.94,204.837,596.942,204.847z
	 M611.708,286.169c1.865-3.296,5.56-5.844,7.742-8.973c-0.24-1.702-0.405-2.907-0.405-2.907l0.563-4.749
	c-1.456-1.804-3.741-3.452-5.74-4.888c-0.336,0.046-0.65-0.059-0.831-0.385c-0.008,0.009-0.012,0.02-0.02,0.028
	c-3.828,3.795-7.838,7.468-12.035,10.852c-2.666,2.148-6.733,6.397-10.541,4.968c-10.815-4.06-10.169-17.777-13.462-26.85
	c-3.059-8.425-14.243-10.328-21.583-6.161c-5.36,3.042-9.046,7.412-12.104,12.673c-3.247,5.586-6.328,11.27-9.349,16.98
	c-1.017,1.923-2.234,3.891-3.279,5.904c11.416-1.472,23.111-1.492,34.742-0.881c-3.244-3.888-5.98-8.663-7.174-13.445
	c-0.085-0.343,2.294-1.058,2.336-0.892c1.307,5.238,4.464,10.465,8.115,14.526c6.934,0.431,13.833,1.055,20.623,1.705
	C596.77,284.389,604.246,285.208,611.708,286.169z M621.033,287.451c-0.292-1.47-0.758-4.534-1.167-7.339
	c-2.033,2.143-4.375,4.195-5.689,6.372C616.465,286.789,618.75,287.114,621.033,287.451z M622.971,269.351
	c3.506-0.717,10.437-2.318,10.557-7.014c0.093-3.629-3.208-8.902-6.761-10.083c-3.516-1.168-6.844,0.97-9.042,3.627
	c-1.292,1.563-3.732,4.809-2.615,6.988c0.067,0.131,0.096,0.266,0.098,0.398c2.373,1.739,5.271,3.64,6.979,5.94l0.676,0.176
	C622.899,269.373,622.934,269.358,622.971,269.351z M626.833,270.418l0.129,0.034l0.539-0.251
	C627.279,270.277,627.057,270.348,626.833,270.418z M651.101,293.063c-0.084-1.531-0.333-3.025-1.021-3.739
	c-1.546-1.606-1.901-2.672-2.512-4.81c-0.196-0.688-0.399-1.375-0.597-2.063l-18.035-8.512c-0.439,4.481-1.427,12.688-2.861,13.868
	c-0.152,0.125-0.306,0.242-0.462,0.354C634.169,289.512,642.678,291.121,651.101,293.063z M491.309,169.444
	C491.098,169.083,491.05,169.202,491.309,169.444L491.309,169.444z M511.938,283.487
	C512.046,283.642,512.058,283.608,511.938,283.487L511.938,283.487z M444.281,292.541c21.918-1.969,43.921-3.158,65.931-3.185
	c1.118-0.001,1.325-0.98,1.013-2.037c2.16,0.096,1.632-3.765-0.331-4.428c0.575,0.194,0.9,0.453,1.043,0.596
	c-0.122-0.174-0.364-0.586-0.682-1.404c-0.724-1.864-1.382-3.753-2.042-5.64c-2.014-5.759-3.924-11.555-5.833-17.35
	c-5.048-15.321-9.975-30.682-14.948-46.027c-3.676-11.342-7.208-22.761-11.29-33.966c-1.603-4.398-2.451-5.048-7.593-5.03
	c-14.572,0.052-29.142,0.569-43.681,1.555c-41.089,2.787-81.623,10.332-120.902,22.71c-39.53,12.458-77.457,29.469-114.842,47.226
	c-2.097,0.996,0.387,5.33,2.536,4.309c46.356-22.018,93.554-42.627,143.427-55.305c24.642-6.264,49.769-10.444,75.062-12.951
	c13.98-1.385,28.015-2.186,42.055-2.615c3.567-0.109,7.136-0.177,10.705-0.232c1.817-0.028,3.634-0.043,5.451-0.059
	c0.127-0.001,3.107,0.332,3.761-0.185c0.146,0.381,0.296,0.761,0.437,1.144c7.415,20.158,13.508,40.857,20.132,61.283
	c3.459,10.667,6.917,21.336,10.525,31.954c1.109,3.262,2.223,6.527,3.455,9.745c0.22,0.575,0.471,1.337,0.794,2.08
	c-50.871,0.07-101.719,6.001-151.843,14.343c-48.152,8.013-96.131,18.483-142.769,32.987c-16.134,5.018-32.167,10.579-47.616,17.444
	c-2.108,0.938,0.359,5.276,2.536,4.31c38.371-17.052,79.931-27.464,120.76-36.675C340.483,305.644,392.253,297.214,444.281,292.541z
	 M561.849,298.702C561.849,298.702,561.849,298.702,561.849,298.702c-5.722,0.006-11.444,0.077-17.164,0.226
	c-2.831,0.074-13.145-1.101-14.772,2.203c-1.239,2.513,2.974,5.159,4.289,2.49c-0.545,1.107-0.946,0.729,0.488,0.534
	c1.094-0.148,2.201-0.201,3.302-0.267c3.331-0.201,6.671-0.275,10.007-0.348c4.754-0.104,9.511-0.151,14.267-0.156
	C565.463,303.379,564.682,298.764,561.849,298.702z M153.293,234.428c-0.761,1.506,2.114,5.436,2.879,3.922
	c4.124-8.158,8.773-15.994,15.04-22.702c6.331-6.777,14.462-11.489,22.806-15.339c1.511-0.698-0.791-5.13-2.393-4.391
	c-7.849,3.623-15.405,7.984-21.596,14.098C162.907,217.05,157.784,225.545,153.293,234.428z M151.341,216.467
	c1.15-0.221,2.262-0.854,2.916-1.833c2.018-3.022,3.973-6.25,6.664-8.735c3.08-2.844,6.805-5.07,10.208-7.493
	c2.752-1.96-0.275-2.684-2.124-1.367c-3.886,2.768-8.07,5.33-11.585,8.576c-3.047,2.815-5.257,6.439-7.543,9.862
	C149.215,216.466,150.793,216.572,151.341,216.467z M530.225,429.001c-3.264-1.944-9.438-0.504-12.935-0.234
	c-4.406,0.34-10.611,0.072-14.642,2.19c-1.647,0.865,2.975,2.158,4.167,1.531c2.894-1.52,7.772-1.232,10.956-1.519
	c2.331-0.21,4.667-0.378,7.004-0.488c0.817-0.039,1.635-0.058,2.454-0.065c0.2-0.002,0.338-0.033,0.429-0.084
	c0.955,0.241,1.991,0.352,2.491,0.156c0.321-0.125,0.663-0.302,0.72-0.683C530.923,429.43,530.481,429.154,530.225,429.001z
	 M152.227,404.074c0.705,0.032,1.346-0.066,1.684-0.375c0.173-0.158,0.321-0.308,0.356-0.557c0.051-0.361-0.378-0.671-0.643-0.804
	c-3.743-1.884-8.757,1.543-12.019,3.098c-4.047,1.929-10.424,4.006-13.416,7.529c-0.914,1.076,3.752,2.25,4.725,1.105
	c2.225-2.62,6.969-4.191,9.961-5.688c2.263-1.132,4.55-2.216,6.858-3.252C150.556,404.761,151.385,404.396,152.227,404.074z
	 M150.968,391.436c2.518-0.458-1.955-2.32-3.109-2.11c-5.51,1.003-11.009,4.014-16.076,6.268
	c-6.88,3.061-14.283,6.179-20.298,10.784c-0.879,0.673,3.415,2.53,4.552,1.659c5.559-4.255,12.302-7.13,18.631-10.01
	C139.701,395.737,145.468,392.436,150.968,391.436z M190.361,470.646c0.058,3.457-2.551,5.881-5.594,7.503
	c0.301,0.536,0.486,1.14,0.553,1.734c0.415,3.695,0.734,9.275-2.623,11.862c-3.387,2.609-8.057,0.465-11.28-1.332
	c-0.036-0.02-0.07-0.052-0.106-0.076c-3.24,3.437-8.354,3.499-13.462,1.617c-6.176-2.276-8.37-7.915-6.753-13.591
	c-2.623-0.916-5.182-2.311-6.463-4.863c-1.47-2.929-1.301-6.522,0.527-9.282c3.029-4.573,7.969-5.297,12.797-4.348
	c-0.434-0.529-0.613-1.135-0.285-1.683c2.855-4.769,7.667-9.902,13.813-8.162c5.512,1.561,8.062,6.819,9.03,12.054
	C185.266,462.916,190.271,465.22,190.361,470.646z M185.15,469.385c-1.466-3.583-5.556-4.698-9.083-4.988
	c-2.232-0.183-1.316-1.421,0.064-2.135c-0.427-2.882-1.587-9.427-5.645-8.933c-3.913,0.477-6.574,4.165-8.437,7.276
	c-0.083,0.14-0.191,0.247-0.309,0.338c0.963,0.352,1.901,0.746,2.79,1.174c0.917,0.442-0.824,0.294-0.991,0.268
	c-1.115-0.177-2.267-0.458-3.289-0.949c-8.743-4.211-15.736,10.38-8.754,15.727c0.222-0.583,0.469-1.163,0.771-1.738
	c0.415-0.788,4.932,1.054,4.854,1.203c-2.404,4.57-2.888,10.554,1.572,14.118c4.431,3.541,8.977-2.012,10.254-6.037
	c0.194-0.611,4.988,0.777,4.854,1.203c-0.169,0.532-0.363,1.023-0.573,1.491c2.276,1.034,5.041,1.751,6.943,0.027
	c2.097-1.9,2.126-5.264,1.884-8.064c-0.979,0.371-1.937,0.67-2.803,0.901c-2.916,0.779-3.409-1.651-0.537-2.417
	C182.322,476.888,186.954,473.792,185.15,469.385z M493.174,376.304c-23.731-0.921-47.574,1.13-71.058,4.446
	c-23.544,3.325-47.146,8.125-69.66,15.879c0.215-0.074,3.37,1.626,4.683,1.174c22.37-7.704,45.743-12.38,69.122-15.758
	c23.198-3.352,46.807-5.322,70.255-4.413C498.618,377.714,493.936,376.334,493.174,376.304z M196.741,232.976
	c45.285-25.32,95.201-42.015,145.593-53.748c41.68-9.705,85.414-17.012,128.356-15.665c0.609,0.021,1.217,0.043,1.826,0.069
	c2.101,0.083-2.58-1.298-3.342-1.328c-41.433-1.649-83.532,5.174-123.862,14.019c-50.147,10.997-99.822,27.105-145.308,51.14
	c-2.668,1.41-5.312,2.866-7.946,4.339C192.057,231.803,195.604,233.612,196.741,232.976z M513.715,302.239
	c-7.519-2.353-15.824-2.311-23.619-2.275c-13.272,0.061-26.547,1.094-39.755,2.313c-37.508,3.462-74.844,9.145-111.885,15.923
	c-31.935,5.844-63.737,12.668-95.062,21.222c-24.583,6.713-49.847,14.138-72.336,26.38c0.011-0.006,3.532,1.8,4.683,1.174
	c28.085-15.288,60.3-23.575,91.117-31.287c39.549-9.897,79.707-17.465,119.997-23.628c26.082-3.989,52.296-7.37,78.606-9.428
	c9.728-0.761,19.484-1.328,29.245-1.345c5.24-0.009,11.421-0.3,16.379,1.251C512.004,302.827,516.698,303.172,513.715,302.239z
	 M349.358,128.982c-6,0-12,0-18,0c-1.338,0-3.488,2.814-3.918,2.814c6,0,12,0,18,0C346.779,131.796,348.929,128.982,349.358,128.982
	z M385.542,87.466c1.423,2.843,5.119,0.654,3.714-2.154c-2.289-4.572-4.812-8.848-8.4-12.537c-2.265-2.329-5.027,1.056-2.914,3.228
	C381.229,79.381,383.449,83.283,385.542,87.466z M433.439,113.835c3.667-3.669,7.555-7.362,10-12
	c1.104-2.094-3.016-4.908-4.079-2.892c-2.445,4.637-6.333,8.331-10,12C427.767,112.537,431.765,115.51,433.439,113.835z
	 M564.524,400.524c-0.458,1.225,2.749,4.625,3.085,3.729c1.738-4.642,4.923-7.799,10.008-8.111
	c5.387-0.33,10.728,3.389,12.327,8.438c0.309,0.973,3.637,4.568,2.913,2.283C589.018,394.744,570.688,384.067,564.524,400.524z
	 M577.561,411.157c0.001,0,0.002-0.001,0.003-0.001c0.002-0.004,0.004-0.008,0.006-0.012c-0.001,0-0.003,0.001-0.005,0.002
	C577.564,411.149,577.563,411.153,577.561,411.157z M580.776,403.735c1.777,1.887,2.755,5.288,1.899,7.802
	c-1.196,3.513-4.505,4.719-7.957,3.663c-3.341-1.022-5.546-3.833-4.042-7.342c1.125-2.626,3.703-4.163,6.445-4.344
	C578.165,402.824,579.783,402.681,580.776,403.735z M577.57,411.144c0.224-0.391,0.391-0.863,0.381-1.307
	c-0.015-0.702-0.11-1.338-0.319-1.924c-0.008-0.001-0.016,0-0.024,0c-1.017-0.107-2.175,0.693-2.386,1.731
	c-0.093,0.454-0.112,0.691,0.21,1.006c0.313,0.306,1.375,0.507,1.886,0.536c0.195,0.011,0.146,0.025,0.242-0.028
	c-0.002,0.005-0.001,0.007-0.005,0.015c0.003-0.005,0.005-0.011,0.008-0.016c0.027-0.016,0.06-0.034,0.119-0.062
	C577.634,411.117,577.6,411.132,577.57,411.144z M577.565,411.146C577.593,411.057,577.352,411.229,577.565,411.146L577.565,411.146
	z M277.191,433.25c-0.522,1.151,2.655,4.675,3.085,3.729c3.087-6.8,9.235-10.064,16.555-10.086
	c7.344-0.022,16.992,3.917,19.779,11.203c0.358,0.937,3.754,4.483,2.913,2.283C313.353,424.249,286.097,413.635,277.191,433.25z
	 M305.896,444.162c-1.287,4.216-5.997,5.434-9.915,4.471c-2.236-0.55-4.587-1.143-5.959-3.17c-1.033-1.526-1.097-3.428-0.345-5.091
	c1.663-3.678,5.754-5.35,9.601-5.37c0.828-0.876,2.275-1.263,3.399-0.318C305.349,436.929,306.953,440.702,305.896,444.162z
	 M300.462,439.357c-0.274,0.065-0.567,0.098-0.887,0.07c-2.028-0.176-4.621,0.673-5.386,2.761c-0.654,1.782,3.185,2.235,4.221,2.308
	C301.581,444.718,301.75,441.536,300.462,439.357z M296.401,251.95c-0.193-0.906,1.001-1.759,2.232-2.158
	c0.018-0.667,0.315-1.281,1.036-1.628c1.625-0.783,3.303-1.356,5.035-1.702c-1.751-2.851-2.427-6.049-2.47-9.419
	c-0.02-1.515,1.911-2.082,3.378-1.704c0.105-0.173,0.255-0.316,0.469-0.409c7.764-3.35,15.969-4.713,24.396-4.808
	c1.747-0.02,3.509,3.423,2.482,4.317c0.712,2.646,1.696,5.195,2.715,7.747c0.042,0.106,0.062,0.207,0.089,0.309
	c1.488-0.107,2.984-0.13,4.481-0.13c0.939,0,2.549,0.28,2.925,1.326c0.011,0.03,0.004,0.054,0.012,0.083
	c0.608,0.446,1.076,0.988,1.144,1.526c0.714,5.647,2.624,10.962,4.61,16.266c0.168,0.449,0.089,0.725-0.132,0.878
	c0.392,0.391,0.45,0.791-0.151,1.075c-3.787,1.792-7.875,2.561-11.985,3.176c0.058,0.141,0.088,0.273,0.063,0.388
	c-0.254,1.149-0.333,2.442-0.138,3.673c1.5,0.644,3.481,3.109,2.477,3.387c-0.247,0.068-0.492,0.139-0.738,0.208
	c0.326,0.462,0.697,1.187-0.128,0.988c-0.443-0.106-0.872-0.323-1.277-0.592c-7.02,1.987-13.993,4.115-21.19,5.397
	c-1.374,0.245-4.168-2.974-3.462-3.458c-0.791-1.939-1.292-3.955-1.561-6.017c-2.862,1.19-6.203,1.442-9.17,0.795
	c-0.576-0.125-1.521-0.579-1.243-1.192C298.457,264.284,297.706,258.065,296.401,251.95z M301.578,252.683
	c1.042,5.411,1.827,10.868,3.491,16.14c0.066,0.209,0.045,0.418-0.039,0.623c1.371,0.059,2.671-0.329,3.886-1.085
	c0.435-0.271,0.998-0.413,1.575-0.463c-0.006-0.188-0.018-0.374-0.02-0.562c-0.042-3.174,4.492-1.907,4.527,0.771
	c0.036,2.653,0.427,5.262,1.489,7.696c5.828-1.284,11.542-2.999,17.289-4.623c-0.786-1.419-1.227-2.984-1.251-4.609
	c-0.382-0.165-0.744-0.358-1.037-0.603c-0.764-0.638-0.535-1.345,0.433-1.484c0.272-0.039,0.544-0.08,0.816-0.119
	c0.001-0.003,0.001-0.006,0.001-0.009c0.055-0.248,0.372-0.252,0.803-0.108c3.875-0.58,7.694-1.3,11.274-2.994
	c0.055-0.026,0.124-0.042,0.19-0.058c-0.22-0.212-0.391-0.434-0.474-0.654c-1.901-5.075-3.617-10.119-4.48-15.455
	c-2.094,0.023-4.157,0.126-6.22,0.603c-1.043,0.241-2.61-0.079-3.327-0.926c-0.54-0.638-0.146-1.112,0.4-1.403
	c-1.115-2.797-2.179-5.618-2.93-8.533c-6.617,0.425-13.102,1.695-19.255,4.351c-0.451,0.194-0.927,0.114-1.375-0.123
	c0.228,2.292,0.845,4.485,2.218,6.424c0.357,0.504,0.409,0.958,0.275,1.347c1.297,1.292,1.616,3.826-0.559,3.865
	c-2.662,0.047-5.093,0.768-7.481,1.919C301.726,252.645,301.652,252.659,301.578,252.683z M298.861,219.695
	c-0.398-0.577-0.643-1.038-0.562-1.075c2.713-1.259,5.476-2.477,8.365-3.282c20.388-5.685,44.44,6.527,53.453,25.722
	c9.44,20.102-1.955,45.791-24.022,50.686c-19.846,4.403-40.22-2.433-50.549-20.471C276.348,255.213,281.712,228.727,298.861,219.695
	z M285.617,266.082c3.674,11.386,11.849,19.561,23.683,22.149c8.283,1.812,17.695,1.899,25.835-0.706
	c17.225-5.511,28.9-24.982,23.874-42.919c-3.457-12.337-13.992-21.499-25.996-25.462c-10.398-3.434-20.565-1.741-30.359,2.646
	c0.379,0.553,0.604,0.988,0.519,1.03C289.159,229.626,280.893,251.442,285.617,266.082z M589.768,212.848
	c1.601-0.022,3.195,0.153,4.797,0.13c1.231-0.018,0.393-2.363-0.719-2.347c-1.601,0.022-3.195-0.152-4.797-0.13
	C587.818,210.518,588.657,212.863,589.768,212.848z M572.43,224.971c-0.578-1.009-1.155-2.019-1.734-3.028
	c-0.637-1.111-2.964-0.417-2.218,0.886c0.579,1.009,1.156,2.019,1.734,3.028C570.849,226.968,573.176,226.273,572.43,224.971z
	 M594.402,215.053c-0.46,0-0.833,0.784-0.833,1.75s0.373,1.75,0.833,1.75c0.46,0,0.833-0.784,0.833-1.75
	S594.862,215.053,594.402,215.053z M710.011,378.841c-2.856-1.198-4.999-3.391-6.195-6.244c-0.893-2.13-5.827-1.465-4.83,0.912
	c1.615,3.853,4.623,6.81,8.471,8.423c1.087,0.456,2.628,0.35,3.427-0.614C711.658,380.383,710.995,379.253,710.011,378.841z
	 M700.01,364.207c0-0.372,0.012-0.74,0.052-1.109c0.003-0.014,0.004-0.022,0.008-0.04c0.029-0.142,0.073-0.279,0.119-0.416
	c0.032-0.088,0.069-0.175,0.111-0.259c0.013-0.029,0.02-0.045,0.027-0.063c0.014-0.007,0.038-0.027,0.086-0.08
	c0.728-0.799-0.141-2.119-0.701-2.738c-0.446-0.492-1.938-1.755-2.655-0.968c-0.834,0.916-0.929,2.182-0.93,3.366
	c-0.001,1.154,1.011,2.299,1.945,2.853C698.762,365.162,700.009,365.368,700.01,364.207z" fill="#fca203"></path>
</svg>