<?xml version="1.0" standalone="no"?>
<svg version="1.1" id="Layer_1" xmlns="http://www.w3.org/2000/svg" xmlns:xlink="http://www.w3.org/1999/xlink" x="0px" y="0px" width="595.276px" height="595.276px" viewBox="0 0 595.276 595.276" enable-background="new 0 0 595.276 595.276" xml:space="preserve">
<path id="color_x5F_7" fill-rule="evenodd" clip-rule="evenodd" fill="#4b0505" d="M425.88,379.363
	c2.239-0.869,3.67-0.21,4.329,1.906l-1.311,2.98l3.239,0.326c1.757,1.921,1.629,3.495-0.476,4.707l-3.238-0.328l0.69,3.181
	c-1.108,2.334-2.638,2.724-4.624,1.002l-0.69-3.181l-2.813,1.64c-2.743-0.267-3.418-1.697-2.382-4.088l2.813-1.639l-2.429-2.168
	c-0.403-2.111,0.647-3.288,3.151-3.528l2.429,2.168L425.88,379.363z M297.595,250.431c-0.504,2.653-3.247,4.683-6.552,4.683
	c-3.304,0-6.048-2.03-6.552-4.683H297.595z"></path>
<path id="color_x5F_6" fill-rule="evenodd" clip-rule="evenodd" fill="#4b0505" d="M429.368,410.113h-20.312
	c-0.093-1.228-0.142-2.592-0.142-4.108c0-14.77,0.945-25.284,10.298-25.284c0.295,0,0.582,0.01,0.862,0.031
	c-0.99,0.58-1.352,1.563-1.087,2.95l2.429,2.168l-2.813,1.639c-1.036,2.391-0.361,3.821,2.382,4.088l2.813-1.64l0.69,3.181
	c1.851,1.604,3.305,1.375,4.391-0.552c0.52,3.807,0.631,8.363,0.631,13.418C429.51,407.521,429.461,408.884,429.368,410.113z"></path>
<path id="color_x5F_5" fill-rule="evenodd" clip-rule="evenodd" fill="#FFD2BB" d="M133.794,334.842
	c-3.583-3.821-9.404-6.416-14.896-9.822c-8.384-5.197-10.848-11.317-2.577-17.134c8.272-5.816,20.878,2.668,20.878,2.668
	s-5.06-3.597-3.412-9.59c1.647-5.993,5.617-0.278,10.865,7.261c3.137,4.506,7.777,11.022,11.003,15.535L133.794,334.842z
	 M266.161,236.072c6.024-13.184,14.262-23.62,27.286-28.109c11.968,6.737,19.155,17.168,23.14,30.073V242
	c0,6.478-2.575,12.693-7.155,17.275c-4.582,4.581-10.797,7.156-17.275,7.156h-0.005c-6.893,0-13.504-2.739-18.378-7.613
	s-7.613-11.485-7.613-18.379L266.161,236.072L266.161,236.072z M297.595,250.431c-0.504,2.653-3.247,4.683-6.552,4.683
	c-3.304,0-6.048-2.03-6.552-4.683H297.595z"></path>
<path id="color_x5F_4" fill-rule="evenodd" clip-rule="evenodd" fill="#4b0505" d="M257.812,224.81v-0.231
	c0-19.631,16.312-35.546,36.434-35.546h0.002c18.412,0,33.339,14.563,33.339,32.527v5.452c4.217,1.943,7.18,6.503,7.18,11.813
	c0,5.409-3.073,10.038-7.416,11.918c-0.049,0.194-20.323,6.382-20.323,6.382v1.101c0,0.725-0.589,1.315-1.315,1.315h-6.311
	c-0.725,0-1.315-0.59-1.315-1.315v-2.631c0-0.726,0.589-1.315,1.315-1.315h6.311c0.406,0,0.769,0.185,1.01,0.474l17.902-5.358
	l0.123-25.299c0-7.899-3.216-15.474-8.941-21.059s-13.489-8.722-21.584-8.722c0,0,0,0-0.001,0
	c-17.965,0-32.666,13.634-33.826,30.875v24.293c-5.723-0.849-10.14-6.215-10.14-12.697
	C250.257,231.321,253.397,226.65,257.812,224.81z"></path>
<path id="color_x5F_3" fill-rule="evenodd" clip-rule="evenodd" fill="#4b0505" d="M428.811,440.432h-17.704
	c-4.885,0-8.852-5.03-8.852-11.225v-0.328l3.861-0.868c1.168-0.263,2.389,0.092,3.236,0.938c0.326,0.326,0.691,0.691,1.069,1.069
	c2.001,2.001,5.247,2.001,7.248,0c0.569-0.569,1.151-1.151,1.699-1.699c1.568-1.568,4.11-1.568,5.677,0
	c0.72,0.719,1.468,1.467,2.103,2.102c0.432,0.432,1.017,0.675,1.628,0.675c0.61,0,1.195-0.243,1.627-0.675
	c1.13-1.129,2.621-2.621,3.711-3.71c0.872-0.872,2.192-1.115,3.317-0.61l0.232,0.103v3.001
	C437.663,435.402,433.697,440.432,428.811,440.432z M231.765,435.091h-10.587c1.091-9.38,2.143-20.009,2.786-31.085
	c1.074-1.03,1.664-1.668,1.664-1.668c2.363-2.21,4.408-4.733,6.165-7.507L231.765,435.091z M365.198,435.091h-13.634l0.005-7.457
	c4.454-0.242,8.769-0.622,12.826-1.175C364.627,429.424,364.893,432.308,365.198,435.091z M402.255,413.177h35.408v6.33l-0.231-0.11
	c-1.262-0.599-2.765-0.34-3.754,0.648c-0.904,0.902-2.038,2.038-3.031,3.031c-0.619,0.618-1.458,0.966-2.333,0.966
	s-1.714-0.348-2.332-0.966c-0.029-0.029-0.057-0.057-0.086-0.086c-1.142-1.142-2.691-1.784-4.307-1.784
	c-1.614,0-3.164,0.642-4.305,1.784c-0.012,0.012-0.023,0.023-0.035,0.035c-1.611,1.611-4.224,1.611-5.835,0
	c-0.557-0.557-1.129-1.129-1.645-1.645c-1.185-1.185-2.905-1.656-4.527-1.24l-2.987,0.764V413.177z M293.37,389.792
	c3.852,0,6.979,3.128,6.979,6.98c0,3.851-3.127,6.979-6.979,6.979c-3.851,0-6.979-3.128-6.979-6.979
	C286.391,392.919,289.518,389.792,293.37,389.792z M339.471,356.914h-98.248c0.751-31.119-9.728-63.132-12.418-59.487
	c0.834-1.179,4.199-3.072,8.168-5.097l0.012-0.005c32.709,32.706,74.581,32.202,107.288-0.506l-0.035-0.024
	c3.843,1.787,9.459,5.722,9.445,5.749C341,321.148,338.448,341.649,339.471,356.914z M392.49,215.776l-17.87,11.831
	c-0.71,0.47-1.653,0.372-2.25-0.236c-0.597-0.606-0.679-1.552-0.197-2.253l6.413-9.342h-11.312
	c-10.383-0.001-18.812-8.157-18.812-18.203V161.17c0-10.046,8.428-18.202,18.812-18.203h71.913
	c10.382,0.001,18.812,8.157,18.812,18.203v36.404c0,10.046-8.43,18.202-18.812,18.203H392.49V215.776z M400.245,183.51H364.18
	c-0.887,0-1.606,0.72-1.606,1.606v3.211c0,0.887,0.72,1.606,1.606,1.606h36.064c0.886,0,1.605-0.72,1.605-1.606v-3.211
	C401.85,184.23,401.131,183.51,400.245,183.51z M445.792,171.616H364.18c-0.887,0-1.606,0.719-1.606,1.605v3.212
	c0,0.886,0.72,1.606,1.606,1.606h81.612c0.886-0.001,1.606-0.72,1.606-1.606v-3.212
	C447.398,172.335,446.678,171.616,445.792,171.616z M445.792,160.533H364.18c-0.887,0-1.606,0.72-1.606,1.606v3.211
	c0,0.886,0.72,1.606,1.606,1.606h81.612c0.886,0,1.606-0.72,1.606-1.606v-3.211C447.398,161.253,446.678,160.533,445.792,160.533z"></path>
<path id="color_x5F_2" fill-rule="evenodd" clip-rule="evenodd" fill="#fca203" d="M78.508,435.091
	c-2.116,0-3.878,1.53-4.238,3.544v0.001l-0.017,0.105l0,0l0,0l-0.002,0.02l-0.013,0.087l0,0l0,0l-0.003,0.036l-0.008,0.072l0,0l0,0
	l-0.005,0.048l-0.006,0.062l0,0l0,0l-0.003,0.059l-0.003,0.051l0,0l-0.002,0.071l-0.001,0.039l0,0l-0.001,0.11v2.447
	c-7.186-13.138-17.678-40.275,1.35-63.487c18.608-22.699,30.767-10.791,60.761-31.355c8.512,22.833,29.823,72.008,55.71,72.68
	c13.88,0.361,27.34-11.262,31.939-15.676c-0.643,11.075-1.696,21.705-2.786,31.085H78.508V435.091z M327.586,227.011
	c0,0,0.023-6.066-0.007-6.1c-0.242-12.061-7.212-22.514-17.402-27.932c4.819-1.653,9.973-2.548,15.328-2.548
	c8.302,0,16.119,2.152,22.957,5.943v1.2c0,8.899,6.613,16.314,15.34,17.892c8.323,0.015,14.784,0.311,14.784,0.311l-6.413,9.342
	c-0.079,0.08-0.137,0.266-0.18,0.366c-0.43,1.016,0.776,2.772,2.043,2.35c0.156-0.051,0.434-0.103,0.584-0.226l16.953-11.225
	c8.015,5.542,15.96,12.485,23.807,20.964c47.504,51.328-5.639,65.382,88.307,132.37c33.431,23.838,30.851,52.46,17.832,70.694
	l-0.066-1.776l-0.001-0.001c-0.36-2.014-2.121-3.544-4.237-3.544H436.35c0.833-1.712,1.314-3.727,1.314-5.884v-16.03h0.286
	c0.424-0.001,0.767-0.344,0.767-0.767v-1.532c0-0.422-0.343-0.765-0.767-0.765h-8.581c0.093-1.229,0.142-2.592,0.142-4.108
	c0-5.054-0.11-9.611-0.631-13.418c0.079-0.142,0.157-0.292,0.232-0.451l-0.69-3.181l3.238,0.328
	c2.106-1.213,2.233-2.786,0.476-4.707l-3.239-0.326l1.311-2.98c-0.659-2.116-2.089-2.775-4.329-1.906l-1.312,2.979l-2.429-2.168
	c-0.859,0.082-1.547,0.275-2.064,0.578c-0.28-0.021-0.567-0.031-0.862-0.031c-9.353,0-10.298,10.514-10.298,25.284
	c0,1.516,0.049,2.879,0.142,4.108h-7.339c-0.423,0-0.765,0.343-0.765,0.765v1.532c0,0.423,0.343,0.767,0.765,0.767h0.538v16.03
	c0,2.157,0.481,4.172,1.314,5.884h-38.371c-0.304-2.782-0.57-5.665-0.804-8.633c2.526-0.344,4.952-0.755,7.25-1.24
	c37.417-7.915-15.733-129.029-17.965-127.664l0.005-0.009c0.014-0.027-5.602-3.962-9.445-5.749l0.035,0.024l-17.694-12.18v-28.607
	c0.488-0.165,0.765-0.268,0.771-0.29c4.343-1.88,7.416-6.51,7.416-11.918C334.766,233.513,331.803,228.954,327.586,227.011z
	 M351.564,435.091H231.765l0.053-78.176h119.798L351.564,435.091z M293.37,389.792c3.852,0,6.979,3.128,6.979,6.98
	c0,3.851-3.127,6.979-6.979,6.979c-3.851,0-6.979-3.128-6.979-6.979C286.391,392.919,289.518,389.792,293.37,389.792z
	 M250.453,234.445c-0.129,0.76-0.196,1.542-0.196,2.343c0,5.747,3.472,10.615,8.247,12.238v31.589l-21.523,11.707l0.005,0.004
	l-0.012,0.005c-3.958,2.019-7.313,3.907-8.16,5.087c-0.038,0.051-0.077,0.11-0.111,0.177l-37.074,69.609l-31.167-40.682
	c6.982-6.93,14.695-15.354,23.271-25.641C204.587,275.865,227.083,252.504,250.453,234.445z M400.245,189.934H364.18
	c-0.886,0-1.606-0.719-1.606-1.606v-3.211c0-0.886,0.72-1.606,1.606-1.606h36.064c0.886,0,1.605,0.72,1.605,1.606v3.211
	C401.85,189.213,401.131,189.934,400.245,189.934z M445.792,178.039H364.18c-0.886,0-1.606-0.72-1.606-1.606v-3.212
	c0-0.886,0.72-1.605,1.606-1.605h81.612c0.886,0,1.606,0.719,1.606,1.605v3.212C447.398,177.319,446.679,178.038,445.792,178.039z
	 M445.792,166.957H364.18c-0.886,0-1.606-0.72-1.606-1.606v-3.211c0-0.886,0.72-1.606,1.606-1.606h81.612
	c0.886,0,1.606,0.72,1.606,1.606v3.211C447.398,166.237,446.679,166.957,445.792,166.957z"></path>
<path id="color_x5F_1" fill-rule="evenodd" clip-rule="evenodd" fill="#4b0505" d="M517.216,452.309H78.508
	c-2.376,0-4.304-1.929-4.304-4.304v-8.61c0-2.375,1.928-4.304,4.304-4.304h325.06c1.56,3.204,4.354,5.341,7.539,5.341h17.704
	c3.185,0,5.979-2.137,7.539-5.341h80.866c2.376,0,4.304,1.929,4.304,4.304v8.61C521.52,450.38,519.592,452.309,517.216,452.309z
	 M402.255,420.904l2.987-0.764c1.623-0.416,3.343,0.056,4.527,1.24c0.516,0.516,1.087,1.087,1.645,1.645
	c1.611,1.611,4.224,1.611,5.835,0c0.012-0.012,0.023-0.023,0.035-0.035c1.142-1.142,2.691-1.784,4.305-1.784
	c1.616,0,3.165,0.642,4.307,1.784c0.029,0.029,0.057,0.057,0.086,0.086c0.618,0.618,1.458,0.966,2.332,0.966
	c0.876,0,1.714-0.348,2.333-0.966c0.993-0.993,2.128-2.129,3.031-3.031c0.988-0.988,2.491-1.247,3.754-0.648l0.231,0.11v6.699
	l-0.232-0.103c-1.125-0.505-2.445-0.262-3.317,0.61c-1.089,1.088-2.581,2.581-3.711,3.71c-0.432,0.432-1.017,0.675-1.627,0.675
	c-0.611,0-1.196-0.243-1.628-0.675c-0.635-0.635-1.383-1.383-2.103-2.102c-1.567-1.568-4.109-1.568-5.677,0
	c-0.548,0.548-1.13,1.13-1.699,1.699c-2.001,2.001-5.247,2.001-7.248,0c-0.377-0.377-0.742-0.742-1.069-1.069
	c-0.847-0.847-2.067-1.201-3.236-0.938l-3.861,0.868L402.255,420.904L402.255,420.904z M339.471,356.914
	c-1.023-15.266,1.487-35.716,14.17-59.321c1.588-2.955,55.658,119.658,18.002,127.624c-5.986,1.266-12.849,2.023-20.075,2.416
	l0.048-70.719H339.471z M231.818,356.914l-0.026,37.916c-1.757,2.773-3.801,5.297-6.165,7.507c0,0-16.483,17.788-33.603,17.344
	c-33.73-0.876-59.692-84.097-59.692-84.097l25.262-12.807l34.034,44.425l37.074-69.609c2.51-4.671,13.283,27.783,12.521,59.321
	L231.818,356.914L231.818,356.914z M437.949,410.113c0.423,0,0.767,0.343,0.767,0.765v1.532c0,0.423-0.344,0.767-0.767,0.767
	h-36.232c-0.423,0-0.765-0.344-0.765-0.767v-1.532c0-0.423,0.343-0.765,0.765-0.765H437.949z M293.37,389.792
	c3.852,0,6.979,3.128,6.979,6.98c0,3.851-3.127,6.979-6.979,6.979c-3.851,0-6.979-3.128-6.979-6.979
	C286.391,392.919,289.518,389.792,293.37,389.792z M258.504,249.025c0.611,0.208,1.244,0.362,1.893,0.459v-24.293
	c1.16-17.241,15.861-30.875,33.826-30.875c0.001,0,0.001,0,0.001,0c8.095,0,15.859,3.137,21.584,8.722
	c5.725,5.585,8.941,13.16,8.941,21.059l-0.123,25.299l-10.417,3.117c1.551-3.253,2.379-6.841,2.379-10.513v-3.964
	c-3.985-12.905-11.172-23.335-23.14-30.073c-13.024,4.489-21.262,14.924-27.286,28.109v4.366c0,6.894,2.739,13.505,7.613,18.379
	s11.485,7.613,18.378,7.613h0.005c6.478,0,12.693-2.575,17.275-7.156c1.181-1.182,2.23-2.474,3.135-3.85
	c4.944-1.519,11.743-3.624,14.013-4.392v28.607l17.694,12.18c-32.71,32.709-74.583,33.212-107.293,0.503l21.523-11.707v-31.59
	H258.504z"></path>
</svg>