<?xml version="1.0" standalone="no"?>
<svg version="1.1" id="Layer_1" xmlns="http://www.w3.org/2000/svg" xmlns:xlink="http://www.w3.org/1999/xlink" x="0px" y="0px" width="595.28px" height="595.28px" viewBox="0 0 595.28 595.28" enable-background="new 0 0 595.28 595.28" xml:space="preserve">
<path id="color_x5F_2" fill="#fca203" d="M268.857,179.088l0.996,0.459c1.328,0.11,2.644,0.243,3.917,0.663
	c0.204,0.019,0.367,0.074,0.457,0.177c0.137,0.054,0.276,0.098,0.413,0.16c0.504,0.228,0.357,0.72,0.085,1.063
	c1.735,3.788,5.609,5.01,9.738,5.483c6.281,0.72,12.628,0.698,18.936,1.016c2.917,0.147,13.937,1.285,22.414,0.255
	c2.517-0.61,5.863-1.501,8.164-2.417c1.992-1.333,2.848-3.241,1.788-5.963c-0.248-0.635,2.6-1.542,2.897-0.776
	c0.568,1.46,0.63,2.711,0.339,3.805c0.25-0.085,0.484-0.148,0.697-0.198c0.507-0.318,1.016-0.636,1.521-0.958
	c0.504-13.752-2.618-29.036-15.806-35.946c-4.214-2.208-8.82-3.568-13.528-4.201c-4.652-0.292-9.374-0.355-13.978,0.311
	c-0.192,0.049-0.373,0.085-0.567,0.137c-4.652,1.241-8.196,2.433-10.949,3.563C274.766,152.127,268.96,165.964,268.857,179.088z
	 M303.84,173.883c9.944,0.221,20.249,1.319,29.592,4.913c0.177,0.068-1.953,1.259-2.738,0.957
	c-7.757-2.983-16.372-4.227-24.637-4.623c-8.685-0.416-18.731-0.62-26.644,3.503c-0.489,0.255-3.409,0.626-2.197-0.005
	C285.244,174.445,294.933,173.686,303.84,173.883z M376.888,259.174c2.534-5.462,5.819-10.729,9.16-15.849
	c9.617,6.261,18.586,13.766,26.536,22.21c-2.189,2.128-4.453,4.208-6.538,6.474c-1.916,2.082-3.667,4.297-5.357,6.56
	C393.297,271.572,385.406,264.643,376.888,259.174z M373.911,260c-0.546,1.193-1.056,2.396-1.523,3.61
	c-0.06-1.562-0.132-3.125-0.213-4.691C372.756,259.273,373.336,259.631,373.911,260z M399.11,280.706
	c-3.318,4.585-6.486,9.292-10.213,13.558c-5.226-3.781-10.684-7.256-16.19-10.587c0.028-3.737-0.006-7.455-0.07-11.132
	c0.593-3.837,1.762-7.57,3.298-11.215C384.229,266.942,391.868,273.888,399.11,280.706z M387.447,241.191
	c2.442-3.713,4.858-7.352,6.977-10.937c9.964,6.783,19.393,14.616,27.67,23.375c-0.337,0.135-0.608,0.315-0.708,0.533
	c-1.677,3.658-4.131,6.632-6.833,9.41C406.427,255.047,397.261,247.495,387.447,241.191z M374.893,257.933
	c-0.948-0.576-1.901-1.138-2.865-1.673c-0.44-7.348-1.137-14.715-2.212-22.005c4.932,2.33,9.761,4.986,14.448,7.938
	C380.927,247.287,377.577,252.513,374.893,257.933z M421.164,304.002c3.126,3.916,6.191,8.232,7.72,12.991
	c-1.716,1.346-3.303,2.858-4.709,4.514c-3.118,0.672-6.246,1.302-9.381,1.9c-1.214-4.159-3.416-7.906-6.125-11.321
	C412.929,309.536,417.065,306.797,421.164,304.002z M435.211,315.098c-0.664,0.356-1.301,0.698-1.911,1.025
	C433.924,315.757,434.561,315.414,435.211,315.098z M419.812,302.334c-4.079,2.78-8.194,5.504-12.435,8.042
	c-0.031,0.018-0.053,0.038-0.081,0.057c-3.052-3.529-6.577-6.701-9.992-9.605c-2.398-2.04-4.885-3.974-7.424-5.841
	c0.601-0.087,1.226-0.284,1.445-0.532c3.412-3.863,6.383-8.062,9.39-12.233c0.427,0.404,0.855,0.809,1.28,1.21
	C408.284,289.38,414.328,295.629,419.812,302.334z M441.532,310.953c-3.544,0.771-6.984,2.232-10.104,4.233
	c-1.745-4.676-4.907-8.857-7.997-12.73c3.508-2.417,7.002-4.855,10.52-7.257c2.597,4.909,4.858,9.965,6.735,15.135
	C440.818,310.696,441.145,310.887,441.532,310.953z M369.412,231.677c-0.841-5.242-1.903-10.431-3.198-15.542
	c-0.036-0.733-0.038-1.323-0.025-1.81c9.229,4.245,18.5,9.38,27.375,15.35c-0.714,0.074-1.553,0.307-1.781,0.695
	c-1.869,3.19-3.972,6.415-6.121,9.691c-4.998-3.107-10.153-5.895-15.421-8.315C369.993,231.633,369.702,231.622,369.412,231.677z
	 M423.54,255.17c8.501,9.262,15.681,19.54,20.846,30.701c-3.056,1.855-6.058,3.792-9.023,5.782
	c-5.376-9.631-12.029-18.647-19.627-26.811C418.702,261.933,421.518,258.927,423.54,255.17z M413.74,266.781
	c7.442,8.094,13.943,17.021,19.182,26.53c-3.627,2.473-7.226,4.987-10.841,7.476c-4.793-5.869-10.109-11.317-15.538-16.591
	c-1.405-1.365-2.83-2.743-4.272-4.122c2.043-2.795,4.138-5.55,6.435-8.15C410.307,270.11,412.025,268.438,413.74,266.781z
	 M436.395,293.539c2.923-1.965,5.881-3.877,8.89-5.714c3.195,7.306,5.499,14.988,6.752,23.001c-2.972-0.617-6.021-0.638-9.02-0.154
	c0.448-0.259,0.733-0.657,0.567-1.114C441.593,304.072,439.176,298.722,436.395,293.539z M197.84,331.657l-5.535-0.772
	c1.869,0.175,3.74,0.335,5.61,0.497L197.84,331.657z M237.443,284.659c0,0.003,0,0.006,0,0.009
	c-2.107,1.539-6.34,4.691-10.855,8.383C230.017,289.983,233.632,287.132,237.443,284.659z M196.975,330.021
	c-3.881-0.352-7.761-0.724-11.636-1.13c0.391-0.14,0.693-0.327,0.744-0.541c1.104-4.672,2.861-9.195,5.032-13.57
	c2.807,2.56,5.595,5.138,8.367,7.73c0.089,0.083,0.225,0.129,0.383,0.15C198.68,325.039,197.696,327.493,196.975,330.021z
	 M218.29,229.094c-0.021-0.036-0.052-0.063-0.08-0.093c8.473-5.646,17.295-10.535,26.09-14.6
	c-1.497,5.671-2.656,11.448-3.557,17.282c-0.233,0.012-0.478,0.069-0.719,0.192c-5.405,2.765-10.483,6.108-15.276,9.851
	C222.848,237.401,220.765,233.159,218.29,229.094z M190.589,310.808c-3.538-3.188-7.108-6.341-10.724-9.44
	c5.464-10.575,12.136-20.567,19.356-29.931c0.418-0.543,0.847-1.084,1.272-1.625c2.233,5.77,4.492,11.524,7.101,17.107
	C201.645,294.201,195.425,302.217,190.589,310.808z M175.983,327.86c-0.047-0.005-0.109-0.001-0.173,0.004
	c-0.255-0.367-0.594-0.835-1.023-1.384c-0.956-1.81-2.126-3.522-3.426-5.079c2.004-6.056,4.48-11.947,7.316-17.673
	c3.585,3.097,7.13,6.24,10.641,9.421c-2.627,4.999-4.75,10.181-6.035,15.522C180.848,328.41,178.415,328.143,175.983,327.86z
	 M237.602,272.5c-1.653-3.329-3.146-6.73-4.555-10.168c1.647-1.285,3.334-2.486,5.064-3.578c-0.216,4.185-0.369,8.358-0.479,12.503
	C237.621,271.668,237.612,272.085,237.602,272.5z M208.498,288.835c2.118,4.353,4.484,8.583,7.26,12.614
	c-0.657,0.698-1.313,1.397-1.958,2.102c-4.62,5.054-9.292,10.688-12.744,16.858c-2.885-2.69-5.787-5.366-8.711-8.018
	c4.483-8.362,10.371-16.157,15.991-23.35C208.389,288.973,208.444,288.903,208.498,288.835z M240.39,234.012
	c-0.304,2.129-0.57,4.266-0.813,6.406c-0.645,4.466-1.117,9.013-1.238,13.239c-0.021,0.732-0.038,1.452-0.054,2.167
	c-0.044,0.743-0.098,1.486-0.137,2.228c-0.646,0.034-1.554,0.214-1.813,0.375c-1.302,0.804-2.573,1.672-3.82,2.585
	c-2.318-5.743-4.47-11.559-6.886-17.255C230.271,240.058,235.187,236.756,240.39,234.012z M159.571,315.27
	c1.396,0.702,2.74,1.515,4.006,2.43C161.909,316.771,160.569,315.936,159.571,315.27z M230.642,264.287
	c1.968,4.73,4.092,9.39,6.636,13.861c0.049,0.086,0.122,0.15,0.206,0.204c-0.024,1.68-0.04,3.367-0.043,5.061
	c-0.315,0.067-0.583,0.146-0.705,0.222c-6.98,4.29-13.21,9.804-18.94,15.691c-2.786-4.179-5.153-8.564-7.271-13.073
	C216.48,278.693,223.127,270.666,230.642,264.287z M223.226,245.719c2.369,5.683,4.507,11.472,6.837,17.174
	c-7.642,6.145-14.283,14.036-20.406,21.503c-2.557-5.648-4.782-11.462-7.023-17.271C208.806,259.5,215.641,252.105,223.226,245.719z
	 M197.761,269.406c-7.449,9.368-14.309,19.503-19.947,30.223c-4.095-3.47-8.243-6.875-12.467-10.181
	c-0.04-0.031-0.087-0.055-0.138-0.075c6.027-14.649,15.567-27.847,27.084-39.32c2.666,5.607,4.958,11.392,7.207,17.196
	C198.917,267.967,198.334,268.686,197.761,269.406z M164.247,291.772c4.186,3.313,8.309,6.708,12.371,10.178
	c-2.818,5.579-5.293,11.31-7.34,17.172c-0.354-0.353-0.711-0.695-1.07-1.023c-2.792-2.552-6.019-4.536-9.448-5.859
	c0.171-0.15,0.29-0.325,0.317-0.521C160.04,304.816,161.813,298.163,164.247,291.772z M201.665,264.622
	c-2.202-5.667-4.472-11.304-7.139-16.747c6.605-6.319,13.793-12.088,21.3-17.259c2.496,4.198,4.601,8.572,6.521,13.032
	C214.771,249.896,207.93,257.124,201.665,264.622z M348.36,276.804c-5.123-0.014-10.245-0.069-15.368-0.146
	c0.73-4.755,1.076-9.53,1.227-14.316c5.674,0.25,11.352,0.411,17.037,0.429c0.255,0,0.479-0.053,0.675-0.138
	c-0.64,4.887-1.748,9.674-3.571,14.106C348.351,276.763,348.353,276.784,348.36,276.804z M303.123,258.169
	c-7.641-0.545-15.282-1.073-22.93-1.468c0.337-3.197,0.748-6.387,1.038-9.548c5.92-1.919,10.357-6.377,15.548-9.675
	C300.21,243.709,302.108,250.873,303.123,258.169z M278.302,208.537c0.736,2.32,1.557,4.68,2.484,7.007l-0.001,0.03
	c-0.412,0.196-0.722,0.471-0.728,0.805c-0.058,3.261-0.443,6.54-0.876,9.824c-0.131-0.063-0.327-0.103-0.622-0.103
	c-5.793,0-11.586,0-17.38,0c-0.45,0-1.072,0.29-1.492,0.624c1.248-5.783,3.043-11.439,5.533-16.695
	c4.254-0.562,8.509-1.122,12.789-1.446C278.11,208.576,278.208,208.56,278.302,208.537z M339.973,210.257
	c0.865,0.066,1.727,0.155,2.588,0.245l3.506,0.767c-0.019,0.04-0.026,0.077-0.01,0.11c4.999,10.001,6.18,21.755,6.545,32.778
	c0.177,5.349,0.148,10.981-0.439,16.529c-0.18-0.074-0.4-0.12-0.672-0.121c-5.742-0.018-11.476-0.181-17.207-0.436
	c0.093-4.594,0.045-9.195,0.018-13.797c0.963-5.299,0.363-10.636-0.519-15.972c0.091,0.015,0.194,0.025,0.313,0.028
	c5.007,0.129,9.794,1.803,14.805,1.932c1.205,0.031,3.047-1.762,1.082-1.813c-5.007-0.129-9.794-1.803-14.805-1.932
	c-0.528-0.014-1.178,0.323-1.577,0.71c-0.858-5.02-1.877-10.037-1.979-15.018c-0.005-0.241-0.291-0.355-0.681-0.368
	c0.55-1.781,1.026-3.535,1.439-5.219c1.975,1.351,4.442,1.723,6.835,1.313C339.343,210.129,339.581,210.228,339.973,210.257z
	 M280.614,275.568c-1.285-5.472-1.152-11.067-0.641-16.662c7.815,0.403,15.623,0.946,23.431,1.504
	c0.59,5.126,0.789,10.273,0.818,15.163c0.004,0.663,2.903,0.181,2.897-0.776c-0.018-2.959-0.101-6.015-0.291-9.101
	c0.151-0.116,0.257-0.246,0.281-0.385c0.253-1.46,0.534-3,0.85-4.577c7.791,0.555,15.583,1.085,23.381,1.468
	c-0.136,4.818-0.469,9.625-1.18,14.413C313.645,276.337,297.131,275.841,280.614,275.568z M308.42,258.546
	c1.571-7.09,4.073-14.614,8.916-19.478c0.127,0.042,0.256,0.087,0.387,0.134c4.369,3.133,8.428,6.805,13.684,8.242
	c0.025,4.184,0.059,8.368-0.014,12.545C323.73,259.61,316.075,259.09,308.42,258.546z M277.757,206.784
	c-0.246,0.02-0.49,0.049-0.736,0.07l0.707-0.17C277.738,206.718,277.747,206.75,277.757,206.784z M331.396,245.331
	c-0.019-0.008-0.037-0.019-0.056-0.027v-11.308c0.447,3.248,0.702,6.493,0.459,9.721c-0.245,0.184-0.408,0.407-0.408,0.662
	C331.392,244.697,331.395,245.014,331.396,245.331z M310.779,244.452c1.127-3.04,2.373-5.456,3.561-5.795
	c0.253-0.072,0.564-0.087,0.914-0.062C313.495,240.292,312.022,242.279,310.779,244.452z M277.535,275.523
	c-5.067-0.074-10.134-0.128-15.202-0.139c-2.888-5.342-4.261-11.352-4.796-17.467c0.202,0.207,0.538,0.346,1.027,0.347
	c6.191,0.019,12.374,0.211,18.553,0.5C276.58,264.385,276.379,270.011,277.535,275.523z M259.49,227.646
	c0.129,0.044,0.312,0.069,0.555,0.069c5.793,0,11.586,0,17.38,0c0.515,0,1.252-0.378,1.658-0.768
	c-0.881,6.602-1.858,13.224-0.696,19.766c-0.276,3.258-0.691,6.548-1.046,9.846c-6.175-0.289-12.354-0.48-18.542-0.5
	c-0.65-0.002-1.123,0.325-1.35,0.727c-0.314-4.411-0.228-8.854,0.011-13.118C257.757,238.383,258.397,232.97,259.49,227.646z"></path>
<path id="color_x5F_1" d="M302.741,227.948c2.278-2.896,6.217-2.339,8.797-0.265c0.534,0.43-2.06,1.556-2.721,1.024
	c-0.577-0.464-1.206-0.952-1.907-1.215c-0.817-0.307-0.979-0.388-1.527,0.308C304.924,228.384,302.099,228.764,302.741,227.948z
	 M271.837,196.855c-0.89-0.661-2.063-0.69-3.101-0.468c-0.527,0.113-1.382,0.64-1.205,1.298c0.175,0.653,1.045,0.638,1.587,0.541
	c-0.012,0.003-0.007,0.004,0.029,0.001c0.021,0.006,0.031,0.009,0.069,0.02c0.169,0.047,0.359,0.169,0.518,0.315
	c0.498,0.458,0.794,1.07,1.015,1.698c0.432,1.23,3.316,0.414,2.897-0.776C273.28,198.438,272.737,197.524,271.837,196.855z
	 M337.743,203.611c0.814-2.319,2.936-3.908,5.445-3.369c0.66,0.142,0.761,0.839,0.345,1.287c-0.485,0.523-1.233,0.672-1.913,0.563
	c-0.008,0.013-0.059,0.032-0.089,0.038c-0.052,0.031-0.099,0.059-0.104,0.063c0.062-0.047,0.03-0.013-0.095,0.102
	c-0.402,0.451-0.642,0.999-0.841,1.565C340.102,204.968,337.209,205.13,337.743,203.611z M341.484,202.078
	c0.018,0.004,0.024,0.007,0.032,0.01c0.015-0.002,0.024-0.002,0.036-0.003C341.529,202.081,341.506,202.083,341.484,202.078z
	 M279.413,178.633c7.913-4.123,17.959-3.918,26.644-3.503c8.266,0.396,16.88,1.639,24.637,4.623
	c0.785,0.302,2.915-0.889,2.738-0.957c-9.344-3.594-19.648-4.692-29.592-4.913c-8.907-0.198-18.596,0.562-26.625,4.745
	C276.004,179.26,278.923,178.888,279.413,178.633z M464.074,252.74c0.784,0.255,3.408-0.941,2.336-1.29
	c-3.618-1.178-7.3-1.973-11.046-2.61c1.413-2.288,2.7-4.653,4.177-6.901c0.405-0.617-0.349-1.104-0.868-1.158
	c-0.745-0.078-1.482,0.249-1.891,0.871c-1.329,2.023-2.499,4.146-3.749,6.218c-1.007-2.608-1.685-5.321-1.78-8.144
	c-0.047-1.412-2.959-0.87-2.92,0.277c0.221,6.535,3.201,12.383,6.563,17.851c0.611,0.993,3.402-0.026,2.668-1.22
	c-1.203-1.956-2.374-3.985-3.376-6.088c0.051-0.043,0.087-0.102,0.133-0.149C457.624,250.98,460.875,251.698,464.074,252.74z
	 M477.6,243.726c0.206-0.893,0.495-1.688,0.998-2.457c0.668-1.021,1.365-0.795,2.351-0.316c1.952,0.95,2.984,3.081,3.443,5.093
	c0.131,0.577,3.042-0.146,2.897-0.776c-0.695-3.054-2.714-5.663-5.995-5.914c-2.785-0.214-5.13,1.353-6.162,3.746
	c-2.111-0.894-4.656-0.711-6.688,0.698c-0.396-0.46-0.804-0.909-1.227-1.34c-0.874-0.891-3.624,0.265-2.661,1.246
	c1.917,1.954,3.646,4.171,4.388,6.846c0.353,1.271,3.249,0.491,2.897-0.776c-0.458-1.65-1.265-3.15-2.255-4.528
	c0.076-0.066,0.158-0.125,0.225-0.201c2.38-2.73,5.656,0.978,6.248,3.333c0.255,1.017,3.156,0.253,2.897-0.776
	c-0.355-1.412-1.082-2.54-2.02-3.374C477.287,244.094,477.554,243.922,477.6,243.726z M128.673,230.819
	c1.44-1.65,3.288-1.074,5-0.145c0.737,0.4,3.424-0.71,2.333-1.302c-5.317-2.885-11.165,0.423-12.188,6.19
	c-0.423,2.386,0.083,5.041,1.942,6.706c2.328,2.086,6.078,1.46,8.754,0.584c1.673-0.547,1.372-1.809-0.335-1.251
	c-4.522,1.479-7.921-1.011-7.557-5.823C126.759,233.962,127.477,232.19,128.673,230.819z M158.058,245.712
	c-0.02,0.579,2.866,0.16,2.897-0.776c0.094-2.774-0.805-5.387-3.457-6.589c-2.069-0.938-4.568-0.306-6.646,0.677
	c-0.229-0.453-0.556-0.858-1.011-1.186c-1.574-1.135-3.824-0.777-5.696-0.149c-0.317-0.444-2.574-0.089-2.855,0.653
	c-0.651,1.721-1.134,3.363-1.231,5.211c-0.034,0.635,2.846,0.211,2.897-0.776c0.065-1.24,0.355-2.396,0.737-3.544
	c0.032-0.013,0.068-0.025,0.097-0.038c1.298-0.564,2.677-1.009,3.807,0.104c1.189,1.171,0.849,3.346,0.523,4.775
	c-0.207,0.907,2.684,0.434,2.88-0.428c0.24-1.054,0.404-2.284,0.222-3.403c0.077-0.041,0.157-0.077,0.23-0.122
	C155.668,237.531,158.185,241.942,158.058,245.712z M309.051,113.873c0-1.678,0-3.356,0-5.034c0.346-2.062,1.246-3.803,3.307-3.296
	c3.437,0.844,3.281,5.736,2.822,8.31c-0.149,0.838,2.648,0.264,2.869-0.469c0.66-2.188,2.854-7.619,6.05-6.912
	c3.161,0.7,2.395,5.989,2.024,8.024c-0.149,0.816,2.728,0.309,2.869-0.469c0.718-3.941,0.579-9.227-4.632-8.921
	c-2.606,0.153-4.741,1.53-6.346,3.427c-0.581-2.655-2.244-4.767-5.656-4.377c-1.325,0.151-2.417,0.56-3.307,1.153
	c0-0.149,0-0.298,0-0.448c0-0.598-2.897-0.142-2.897,0.776c0,1.43,0,2.86,0,4.29c-0.301,1.477-0.288,3.102,0,4.722
	C306.284,115.386,309.051,114.692,309.051,113.873z M98.312,159.923c-0.313-0.256,0.071-0.627,0.65-0.9
	c-0.114-0.461,0.206-1.016,1.096-1.218c26.565-6.055,52.573-15.799,78.38-24.41c13.57-4.528,27.121-9.109,40.667-13.71
	c5.514-1.873,11.402-4.732,17.168-5.722c1.856-0.319,1.314,1.511-0.035,1.941c-9.851,16.116-19.732,32.213-29.653,48.285
	c-6.631,10.742-13.26,21.486-20.006,32.156c-1.879,2.972-3.743,5.958-5.711,8.872c-0.392,0.58-0.757,1.138-1.186,1.587
	c0.17,0.104,0.34,0.207,0.511,0.311c0.665,0.403-1.887,1.582-2.704,1.086c-13.12-7.958-26.235-15.924-39.346-23.897
	c-9.174-5.58-18.348-11.161-27.508-16.763C106.626,165.091,101.964,162.9,98.312,159.923z M179.099,206.29
	c-0.101-0.008-0.192-0.009-0.285-0.011c0.016,0.009,0.031,0.019,0.046,0.028C178.948,206.293,179.031,206.285,179.099,206.29z
	 M101.737,159.389c3.726,2.852,8.286,5.041,12.246,7.461c8.946,5.468,17.902,10.919,26.86,16.367
	c12.339,7.504,24.683,15,37.03,22.492c0.049-0.069,0.096-0.134,0.149-0.213c0.725-1.074,1.433-2.159,2.135-3.248
	c2.307-3.575,4.573-7.176,6.833-10.782c6.56-10.469,13.056-20.979,19.539-31.496c8.81-14.291,17.59-28.599,26.347-42.922
	c-0.671,0.226-1.342,0.451-2.012,0.678c-4.497,1.522-8.99,3.052-13.485,4.578c-13.508,4.585-27.022,9.152-40.556,13.659
	C152.089,144.199,127.175,153.482,101.737,159.389z M140.79,163.628c-0.204-0.149-0.029-0.381,0.312-0.602
	c-0.001-0.33,0.334-0.707,1.119-0.889c10.807-2.507,21.383-6.426,31.892-9.935c7.653-2.556,15.363-5.899,23.205-7.822
	c1.497-0.367,1.986,0.624,0.973,1.18c-3.988,6.523-7.986,13.04-12.003,19.545c-2.608,4.223-5.213,8.448-7.864,12.644
	c-0.704,1.114-1.608,3.282-2.767,4.446c0.381,0.381-1.993,1.473-2.747,1.016C162.289,176.77,150.825,170.942,140.79,163.628z
	 M144.289,163.126c9.218,6.603,19.559,12.031,29.333,17.844c0.212-0.272,0.417-0.533,0.526-0.703
	c0.929-1.448,1.847-2.904,2.76-4.362c2.595-4.145,5.167-8.304,7.733-12.467c3.477-5.641,6.941-11.288,10.399-16.94
	c-7.282,2.055-14.47,5.091-21.602,7.464C163.822,157.161,154.152,160.7,144.289,163.126z M558.071,470.398
	c-11.829,8.68-30.314,13.002-43.814,5.481c-0.934-0.52-1.776-1.084-2.556-1.685c-39.23,8.247-79.401,12.112-119.368,14.402
	c-106.297,6.092-213.534,1.491-319.408-9.945c-8.448,1.956-17.932,0.805-25.588-2.324c-16.036-6.551-29.186-23.682-23.11-41.742
	c2.416-7.18,7.214-12.547,13.027-15.478c-0.061-0.057-0.111-0.123-0.136-0.205c-0.274-0.908,2.042-2.976,2.512-3.523
	c2.659-3.099,5.395-6.132,8.138-9.155c8.897-9.804,17.927-19.488,27.005-29.125c19.464-20.66,38.951-41.454,59.625-60.92
	c0.004-0.004,0.011-0.007,0.016-0.012c-0.417-0.25-0.515-0.683,0.202-1.206c6.492-4.74,14.389-5.625,21.653-3.56
	c6.755-45.96,48.397-81.104,88.625-99.196c0.045-0.16,0.085-0.321,0.13-0.481c0.057-0.2,0.331-0.371,0.685-0.503
	c0.108-0.548,1.131-1.329,1.919-1.339c9.87-0.129,19.58-2.172,29.393-3.028c0.246-0.021,0.49-0.05,0.736-0.07
	c-0.01-0.034-0.019-0.066-0.029-0.1c-0.236-0.78-0.462-1.551-0.682-2.314c-2.214,1.756-5.146,2.556-8,1.785
	c-3.438-0.929-7.425-3.698-7.626-7.641c-0.192-3.767,1.455-6.556,4.524-7.839l-0.104-0.019l0.11-1.047
	c-0.875-2.615-0.317-6.229-0.564-8.826c-0.065-0.116-0.08-0.245-0.046-0.38c-0.019-0.141-0.036-0.285-0.061-0.419
	c-0.072-0.378,0.21-0.708,0.621-0.943c0.204-14.112,7.12-29.818,20.44-35.721c4.16-1.843,8.405-2.909,12.725-3.454
	c1.785-1.265,6.143-0.754,7.692-0.731c5.985,0.087,12.26,1.103,17.751,3.565c15.211,6.82,19.918,21.633,19.689,37.261
	c0.787-0.5,1.574-1,2.366-1.49c3.25-2.012,6.922-5.085,10.648-6.495c-0.122-0.293,0.206-0.742,1.087-1.013
	c2.313-0.713,4.724-1.336,7.171-1.793c0.215-0.063,0.441-0.102,0.661-0.114c3.428-0.593,6.914-0.838,10.296-0.449
	c0.197,0.022,0.673,0.156,0.525,0.469c-0.934,1.976-2.307,3.742-3.79,5.394c0.332,0.359,0.282,0.917-0.572,1.383
	c-0.368,0.201-0.751,0.337-1.139,0.446c-0.285,0.295-0.569,0.587-0.85,0.877c-1.367,1.408-4.557,3.53-5.236,5.417
	c-0.125,0.349-0.685,0.613-1.279,0.752c-0.136,0.086-0.325,0.174-0.586,0.261c-7.093,2.365-13.106,7.659-19.941,10.688
	c3.014,1.06,4.936,3.832,4.402,7.494c-0.433,2.974-2.366,5.343-4.858,6.792c7.179,0.713,14.237,2.169,21.483,2.253
	c1.092,0.013,1.019,0.593,0.528,1.104c0.019,0.067,0.036,0.134,0.054,0.201c0.539-0.211,1.144-0.306,1.507-0.144
	c40.299,18.039,82.053,53.365,88.495,99.49c0.011,0.076,0.008,0.149-0.004,0.221c1.969,0.714,3.882,1.713,5.696,3.037
	c0.449,0.328,0.404,0.702,0.125,1.02c0.031,0.02,0.065,0.037,0.092,0.062c20.893,19.672,40.589,40.688,60.244,61.583
	c8.979,9.545,17.927,19.123,26.718,28.841c2.656,2.937,5.323,5.87,7.883,8.892c0.434,0.512,2.485,2.346,2.234,3.176
	c-0.01,0.032-0.029,0.061-0.044,0.091c2.636,1.252,5.126,3.125,7.345,5.715C577.616,438.319,572.427,459.863,558.071,470.398z
	 M445.285,287.825c-3.008,1.837-5.967,3.749-8.89,5.714c2.781,5.183,5.198,10.533,7.189,16.018c0.166,0.458-0.119,0.855-0.567,1.114
	c2.999-0.484,6.047-0.462,9.02,0.154C450.783,302.813,448.479,295.13,445.285,287.825z M372.636,272.545
	c0.064,3.677,0.098,7.395,0.07,11.132c5.506,3.331,10.964,6.806,16.19,10.587c3.727-4.267,6.895-8.973,10.213-13.558
	c-7.242-6.818-14.881-13.764-23.176-19.376C374.398,264.976,373.229,268.708,372.636,272.545z M373.911,260
	c-0.575-0.369-1.155-0.727-1.737-1.081c0.081,1.565,0.153,3.129,0.213,4.691C372.855,262.396,373.365,261.193,373.911,260z
	 M389.88,294.985c2.539,1.867,5.026,3.801,7.424,5.841c3.415,2.905,6.939,6.077,9.992,9.605c0.028-0.019,0.05-0.039,0.081-0.057
	c4.24-2.537,8.356-5.261,12.435-8.042c-5.483-6.705-11.528-12.954-17.816-18.904c-0.425-0.402-0.853-0.807-1.28-1.21
	c-3.007,4.172-5.978,8.371-9.39,12.233C391.106,294.702,390.481,294.898,389.88,294.985z M422.081,300.787
	c3.615-2.489,7.214-5.003,10.841-7.476c-5.239-9.509-11.74-18.436-19.182-26.53c-1.715,1.657-3.433,3.33-5.035,5.143
	c-2.297,2.601-4.392,5.355-6.435,8.15c1.442,1.379,2.867,2.756,4.272,4.122C411.972,289.47,417.288,294.918,422.081,300.787z
	 M412.584,265.536c-7.95-8.444-16.919-15.95-26.536-22.21c-3.341,5.12-6.626,10.387-9.16,15.849
	c8.519,5.469,16.41,12.397,23.802,19.395c1.69-2.263,3.441-4.478,5.357-6.56C408.131,269.745,410.395,267.665,412.584,265.536z
	 M384.263,242.193c-4.687-2.953-9.516-5.609-14.448-7.938c1.076,7.29,1.772,14.657,2.212,22.005
	c0.964,0.536,1.917,1.098,2.865,1.673C377.577,252.513,380.927,247.287,384.263,242.193z M366.6,329.726
	c-0.04,0.123-0.161,0.233-0.326,0.33c15.281-1.394,30.508-3.325,45.558-6.08c-2.858-9.509-10.879-17.017-18.366-23.094
	c-6.584-5.345-13.586-10.112-20.787-14.574C372.445,300.993,371.114,315.901,366.6,329.726z M414.793,323.407
	c3.136-0.598,6.263-1.228,9.381-1.9c1.407-1.656,2.993-3.168,4.709-4.514c-1.529-4.759-4.594-9.075-7.72-12.991
	c-4.098,2.795-8.234,5.534-12.496,8.083C411.377,315.501,413.579,319.248,414.793,323.407z M431.429,315.186
	c3.119-2.001,6.559-3.462,10.104-4.233c-0.387-0.066-0.714-0.256-0.845-0.619c-1.877-5.17-4.138-10.226-6.735-15.135
	c-3.518,2.402-7.012,4.841-10.52,7.257C426.521,306.329,429.684,310.51,431.429,315.186z M423.54,255.17
	c-2.022,3.757-4.838,6.762-7.805,9.672c7.598,8.164,14.25,17.18,19.627,26.811c2.966-1.99,5.968-3.927,9.023-5.782
	C439.221,274.71,432.041,264.433,423.54,255.17z M394.424,230.255c-2.119,3.584-4.535,7.224-6.977,10.937
	c9.814,6.303,18.98,13.856,27.106,22.382c2.702-2.778,5.156-5.752,6.833-9.41c0.1-0.218,0.372-0.398,0.708-0.533
	C413.817,244.871,404.389,237.038,394.424,230.255z M365.699,214.096c0.181,0.677,0.343,1.36,0.515,2.039
	c1.295,5.111,2.356,10.3,3.198,15.542c0.291-0.055,0.582-0.044,0.828,0.069c5.269,2.42,10.424,5.208,15.421,8.315
	c2.149-3.276,4.252-6.501,6.121-9.691c0.228-0.389,1.066-0.622,1.781-0.695c-8.874-5.97-18.145-11.105-27.375-15.35
	C366.025,214.25,365.862,214.17,365.699,214.096z M342.562,210.502c-0.861-0.09-1.723-0.179-2.588-0.245
	c-0.392-0.03-0.63-0.128-0.758-0.262c-2.393,0.41-4.861,0.038-6.835-1.313c-0.413,1.684-0.889,3.438-1.439,5.219
	c0.39,0.013,0.676,0.127,0.681,0.368c0.102,4.98,1.121,9.998,1.979,15.018c0.399-0.387,1.049-0.724,1.577-0.71
	c5.011,0.129,9.798,1.803,14.805,1.932c1.965,0.05,0.123,1.844-1.082,1.813c-5.011-0.129-9.798-1.803-14.805-1.932
	c-0.118-0.003-0.221-0.013-0.313-0.028c0.881,5.336,1.481,10.673,0.519,15.972c0.027,4.602,0.075,9.204-0.018,13.797
	c5.73,0.254,11.465,0.418,17.207,0.436c0.272,0.001,0.492,0.047,0.672,0.121c0.587-5.548,0.617-11.18,0.439-16.529
	c-0.366-11.023-1.546-22.777-6.545-32.778c-0.016-0.033-0.009-0.07,0.01-0.11c0.045-0.094,0.177-0.203,0.367-0.313
	C345.146,210.789,343.855,210.638,342.562,210.502z M351.256,262.77c-5.685-0.018-11.363-0.179-17.037-0.429
	c-0.151,4.786-0.497,9.561-1.227,14.316c5.123,0.078,10.245,0.133,15.368,0.146c-0.007-0.02-0.009-0.041,0-0.065
	c1.823-4.433,2.931-9.22,3.571-14.106C351.735,262.717,351.511,262.771,351.256,262.77z M290.568,220.383
	c-2.284-0.413-4.413-1.495-5.978-3.055c4.037,9.478,10.145,18.037,20.518,19.726c3.113,0.507,5.86,0.107,8.291-0.944
	c0.173-0.38,1.022-0.775,1.733-0.893c5.272-3.149,8.893-9.5,11.377-16.078c-1.612,0.937-3.625,1.352-6.009,0.921
	c-4.035-0.729-7.579-3.55-8.382-7.401c-0.058-0.019-0.116-0.038-0.167-0.066c-0.303-0.165-0.687-0.4-1.121-0.67
	c0.091,1.035,0.119,2.072-0.051,3.114c-0.208,1.28-0.807,2.634-2.221,2.936c-1.742,0.372-2.963-0.571-4.14-1.751
	c-0.974-0.977,1.773-2.14,2.66-1.25c0.2,0.201,0.437,0.455,0.696,0.672c0.196-0.977,0.211-1.988,0.174-2.979
	c-0.032-0.864-0.15-1.747-0.257-2.63c-2.331-1.287-4.874-2.297-6.22-1.174c-0.179,0.149-0.394,0.245-0.62,0.302
	C301.947,214.851,298.05,221.734,290.568,220.383z M314.482,211.825c0.457,3.411,2.949,6.582,7.5,6.83
	c2.65,0.145,4.526-1.009,5.651-2.734c0.467-1.44,0.884-2.864,1.255-4.247c0.104-3.638-1.877-7.47-5.904-8.159
	c-0.36-0.062-0.556-0.195-0.632-0.358c-5.49-0.243-8.147,3.899-7.934,7.971C314.646,211.342,314.636,211.589,314.482,211.825z
	 M314.489,237.069c-2.011,0.864-4.218,1.383-6.648,1.457c-2.828,0.085-5.394-0.292-7.74-1.026c3.13,5.979,4.909,12.763,5.887,19.676
	c1.092-4.416,2.582-8.859,4.792-12.724c1.243-2.173,2.716-4.16,4.474-5.856c0.223-0.215,0.444-0.432,0.676-0.637
	C315.456,237.649,314.975,237.354,314.489,237.069z M293.053,203.837c-0.36-0.062-0.556-0.195-0.632-0.358
	c-10.432-0.462-10.63,14.938-0.371,15.497C300.991,219.464,301.191,205.23,293.053,203.837z M282.706,219.947
	c-0.74,8.285-2.768,16.666-1.6,24.902c0.182,0.121,0.292,0.303,0.271,0.564c-0.008,0.103-0.018,0.206-0.026,0.309
	c5.553-2.047,9.927-6.792,15.042-9.763C290.261,232.701,285.926,226.692,282.706,219.947z M280.193,256.701
	c7.648,0.395,15.289,0.923,22.93,1.468c-1.015-7.296-2.913-14.46-6.345-20.69c-5.191,3.297-9.627,7.756-15.548,9.675
	C280.941,250.314,280.53,253.504,280.193,256.701z M279.974,258.906c-0.512,5.595-0.645,11.19,0.641,16.662
	c16.517,0.273,33.03,0.769,49.547,1.047c0.711-4.788,1.044-9.595,1.18-14.413c-7.799-0.383-15.59-0.914-23.381-1.468
	c-0.316,1.576-0.596,3.117-0.85,4.577c-0.024,0.139-0.13,0.269-0.281,0.385c0.19,3.086,0.273,6.142,0.291,9.101
	c0.006,0.958-2.894,1.439-2.897,0.776c-0.029-4.889-0.228-10.037-0.818-15.163C295.597,259.853,287.789,259.31,279.974,258.906z
	 M331.393,259.989c0.073-4.177,0.039-8.361,0.014-12.545c-5.256-1.437-9.315-5.108-13.684-8.242
	c-0.102-0.073-0.202-0.149-0.304-0.222c-0.029,0.028-0.055,0.06-0.083,0.088c-4.842,4.864-7.345,12.388-8.916,19.478
	C316.075,259.09,323.73,259.61,331.393,259.989z M331.799,243.717c0.243-3.229-0.012-6.473-0.459-9.721
	c-0.672-4.885-1.781-9.779-2.316-14.639c-2.662,6.672-6.512,12.997-12.119,16.455c4.94,2.921,9.163,7.258,14.435,9.492
	c0.019,0.008,0.037,0.019,0.056,0.027c-0.001-0.317-0.004-0.634-0.005-0.952C331.391,244.124,331.554,243.901,331.799,243.717z
	 M370.487,174.537c0.735-0.835,1.45-1.687,2.097-2.584c1.485-2.061,1.554-2.25-1.277-2.123c-1.389,0.063-2.77,0.196-4.143,0.391
	C366.409,171.964,368.604,174.542,370.487,174.537z M358.535,178.444c0.806,2.086,2.438,3.303,4.464,3.686
	c0.875-1.204,2.436-2.322,3.325-3.221c0.822-0.832,1.65-1.672,2.467-2.524c-1.022-0.212-2-0.68-2.817-1.389
	c-1.217-1.057-2.142-2.665-1.818-4.246c-1.488,0.304-2.969,0.651-4.431,1.063c0.347,0.003,0.539,0.071,0.353,0.237
	C358.336,173.612,357.684,176.24,358.535,178.444z M342.261,182.92c-1.875,1.197-3.759,2.381-5.676,3.499
	c-0.594,3.083-1.127,6.177-1.661,9.271c0.056-0.042,0.105-0.09,0.164-0.13c1.721-1.169,4.124-1.847,6.206-1.716
	c0.003,0,0.006,0.001,0.01,0.001c6.203-2.521,12.82-7.921,19.602-10.623c-2.33-0.364-4.496-1.567-5.267-4.002
	c-0.521-1.645-0.412-3.311,0.266-4.765c-0.573,0.344-1.147,0.687-1.718,1.035c-2.487,1.518-4.966,3.048-7.44,4.586
	c-0.867,0.539-1.73,1.086-2.592,1.636c0,0.009,0,0.019-0.001,0.028C344.123,182.518,343.093,182.979,342.261,182.92z
	 M268.847,179.464c0.336,0.029,0.671,0.056,1.007,0.083c1.328,0.11,2.644,0.243,3.917,0.663c0.204,0.019,0.367,0.074,0.457,0.177
	c0.137,0.054,0.276,0.098,0.413,0.16c0.504,0.228,0.357,0.72,0.085,1.063c1.735,3.788,5.609,5.01,9.738,5.483
	c6.281,0.72,12.628,0.698,18.936,1.016c2.917,0.147,13.937,1.285,22.414,0.255c3.335-0.405,6.267-1.148,8.164-2.417
	c1.992-1.333,2.848-3.241,1.788-5.963c-0.248-0.635,2.6-1.542,2.897-0.776c0.568,1.46,0.63,2.711,0.339,3.805
	c-0.024,0.093-0.034,0.192-0.064,0.282c0.254-0.159,0.507-0.32,0.761-0.48c0.507-0.318,1.016-0.636,1.521-0.958
	c0.504-13.752-2.618-29.036-15.806-35.946c-4.214-2.208-8.82-3.568-13.528-4.201c-4.652-0.292-9.374-0.355-13.978,0.311
	c-3.185,0.461-6.314,1.267-9.323,2.6c-0.755,0.334-1.482,0.707-2.193,1.099c-11.625,6.408-17.431,20.245-17.533,33.369
	C268.856,179.213,268.847,179.339,268.847,179.464z M279.397,201.665c0.772,2.783,1.634,5.811,2.656,8.891
	c0.04-0.427,0.1-0.86,0.208-1.303c1.012-4.176,4.174-6.512,7.976-7.131c-0.115-0.124-0.187-0.283-0.184-0.492
	c0.026-1.872,0.394-3.692,0.966-5.471c0.352-1.095,3.292-1.469,2.915-0.298c-0.572,1.779-0.939,3.598-0.966,5.471
	c-0.003,0.24-0.146,0.45-0.36,0.624c0.405,0.007,0.812,0.026,1.222,0.068c0.487,0.05,0.672,0.242,0.672,0.472
	c2.879,0.692,4.758,2.469,5.731,4.664c2.164-1.338,4.764-0.869,7.282,0.188c0.003-0.134,0.003-0.269,0.012-0.403
	c0.084-1.246,3.027-1.7,2.929-0.248c-0.048,0.711-0.019,1.422,0.042,2.134c0.535,0.299,1.053,0.6,1.551,0.894
	c0.04-0.263,0.08-0.525,0.145-0.793c0.893-3.683,3.457-5.935,6.658-6.842c-0.097-0.119-0.156-0.269-0.154-0.459
	c0.026-1.872,0.394-3.692,0.965-5.471c0.352-1.095,3.292-1.469,2.915-0.298c-0.572,1.779-0.939,3.598-0.965,5.471
	c-0.001,0.114-0.04,0.221-0.097,0.322c0.736-0.042,1.487-0.03,2.246,0.048c0.487,0.05,0.672,0.242,0.672,0.472
	c2.815,0.676,4.678,2.389,5.669,4.517c0.021-0.098,0.043-0.196,0.064-0.293c-0.04-0.062-0.084-0.118-0.123-0.181
	c-0.588-0.957,2.236-1.856,2.699-1.103c0.027,0.045,0.058,0.088,0.086,0.133c0.192,0.048,0.307,0.139,0.275,0.284
	c-0.007,0.032-0.015,0.065-0.021,0.098c1.567,2.228,4.139,3.919,6.963,2.748c2.311-0.958,4.565-3.025,4.944-5.627
	c0.387-2.657-0.596-6.718-3.759-7.232c-4.098-0.667-4.761,1.822-6.888,4.355c-0.045,0.053-0.108,0.103-0.18,0.15
	c-0.004,0.026-0.009,0.052-0.014,0.079c-0.151,0.838-2.935,0.985-2.897,0.776c0.789-4.382,1.503-8.778,2.335-13.153
	c-7.358,2.722-19.74,2.199-23.099,2.08c-9.469-0.335-19.496-0.047-28.867-1.583c-1.309-0.215-2.584-0.488-3.775-0.875
	c-0.12,2.717,0.062,5.407,0.412,8.103c0.139,1.066-1.595,1.731-2.446,1.354c-0.337,0.008-0.627-0.063-0.779-0.244
	c-1.343-1.599-2.146-3.934-4.304-4.593c-0.45-0.138-0.904-0.236-1.352-0.292c-0.676,0.315-1.607,0.452-2.044,0.099
	c-1.21,0.314-2.187,1.146-2.607,2.71c-0.325,1.209-0.625,2.569-0.327,3.818c1.287,5.392,8.422,9.044,12.018,3.819
	c-0.028-0.168,0.136-0.342,0.402-0.498C277.539,201.036,279.71,200.821,279.397,201.665z M265.22,210.029
	c-2.49,5.256-4.285,10.913-5.533,16.695c0.42-0.333,1.042-0.624,1.492-0.624c5.793,0,11.587,0,17.38,0
	c0.295,0,0.491,0.04,0.622,0.103c0.433-3.285,0.818-6.563,0.876-9.824c0.006-0.334,0.315-0.609,0.728-0.805
	c0.004-0.002,0.007-0.004,0.01-0.006c-0.003-0.008-0.006-0.016-0.009-0.024c-0.927-2.328-1.749-4.687-2.484-7.007
	c-0.094,0.022-0.192,0.039-0.293,0.046C273.729,208.907,269.474,209.468,265.22,210.029z M279.083,226.947
	c-0.406,0.39-1.143,0.768-1.658,0.768c-5.793,0-11.587,0-17.38,0c-0.244,0-0.426-0.025-0.555-0.069
	c-1.093,5.323-1.733,10.736-2.029,16.023c-0.239,4.264-0.325,8.707-0.011,13.118c0.227-0.402,0.699-0.729,1.35-0.727
	c6.188,0.019,12.367,0.211,18.542,0.5c0.354-3.298,0.77-6.588,1.046-9.846C277.225,240.171,278.201,233.549,279.083,226.947z
	 M277.116,258.765c-6.179-0.289-12.361-0.481-18.553-0.5c-0.49-0.001-0.826-0.14-1.027-0.347c0.535,6.116,1.908,12.125,4.796,17.467
	c5.068,0.01,10.135,0.065,15.202,0.139C276.379,270.011,276.58,264.385,277.116,258.765z M240.471,273.321
	c-0.291,19.622-0.013,40.571,6.142,59.409c0.037,0.114-0.061,0.241-0.235,0.365c7.864,0.272,15.731,0.452,23.598,0.53
	c-1.212-6.295-3.826-12.555-4.309-18.97c-0.816-0.293-0.872-1.236,0.177-1.63c0.568-0.566,1.975-0.83,2.473-0.527
	c24.799-4.813,51.64-3.775,76.502-0.304c0.797,0.111,0.981,0.485,0.838,0.876c0.753-0.13,1.479-0.001,1.371,0.543
	c-1.126,5.699-1.57,13.111-4.843,18.054c-0.044,0.066-0.112,0.128-0.189,0.187c7.254-0.422,14.509-0.938,21.754-1.571
	c0.001-0.009-0.004-0.017-0.001-0.027c4.724-14.467,6.04-30.226,6.128-45.665c-0.246-0.149-0.49-0.3-0.736-0.449
	c-0.147-0.089,0.219-0.364,0.737-0.612c0.005-2.325-0.014-4.641-0.055-6.943c-0.266-0.021-0.439-0.088-0.431-0.208
	c0.076-1.062,0.196-2.115,0.359-3.16c-0.027-1.083-0.057-2.163-0.091-3.237c-0.602-19.156-2.208-38.817-7.459-57.328
	c-4.338-0.147-8.616-0.728-12.898-1.315c4.868,10.186,6.093,22.278,6.229,33.414c0.128,10.402-0.305,21.696-4.318,31.453
	c-0.116,0.282-0.611,0.489-1.157,0.612c1.813,0.061,0.083,1.888-1.144,1.886c-5.935-0.006-11.868-0.076-17.801-0.169
	c-0.208,0.02-0.408,0.02-0.58-0.008c-23.408-0.375-46.809-1.233-70.222-1.258c-0.912-0.001-1.011-0.411-0.735-0.849
	c-5.672-10.266-5.869-23.355-4.805-34.733c0.995-10.634,3.052-21.582,7.678-31.294c-4.885,0.632-9.777,1.177-14.709,1.313
	C242.175,231.516,240.774,252.844,240.471,273.321z M272.956,333.269c0.024,0.131-0.008,0.256-0.079,0.374
	c13.115,0.091,26.229-0.071,39.322-0.483c9.042-0.285,18.114-0.654,27.192-1.156c-0.018-0.097,0.011-0.214,0.105-0.356
	c1.736-2.623,2.281-6.329,2.947-9.344c0.6-2.715,1.126-5.443,1.665-8.171c-0.114,0.012-0.229,0.015-0.34,0
	c-24.42-3.409-50.814-4.551-75.167,0.194C269.182,320.727,271.809,326.979,272.956,333.269z M217.795,299.326
	c5.73-5.888,11.96-11.402,18.94-15.691c0.122-0.075,0.39-0.155,0.705-0.222c0.003-1.693,0.019-3.38,0.043-5.061
	c-0.083-0.054-0.157-0.118-0.206-0.204c-2.543-4.472-4.668-9.131-6.636-13.861c-7.515,6.379-14.162,14.406-20.118,21.966
	C212.642,290.762,215.009,295.147,217.795,299.326z M208.498,288.835c-0.054,0.068-0.108,0.138-0.162,0.206
	c-5.621,7.193-11.508,14.988-15.991,23.35c2.924,2.652,5.826,5.328,8.711,8.018c3.453-6.17,8.125-11.804,12.744-16.858
	c0.644-0.705,1.301-1.403,1.958-2.102C212.981,297.419,210.616,293.188,208.498,288.835z M237.602,272.5
	c0.01-0.414,0.019-0.831,0.03-1.244c0.111-4.145,0.264-8.318,0.479-12.503c-1.73,1.092-3.417,2.293-5.064,3.578
	C234.456,265.77,235.949,269.17,237.602,272.5z M238.148,258.052c0.04-0.742,0.093-1.485,0.137-2.228
	c0.305-5.137,0.712-10.282,1.292-15.405c0.242-2.14,0.508-4.277,0.813-6.406c-5.203,2.744-10.119,6.045-14.761,9.744
	c2.416,5.696,4.567,11.512,6.886,17.255c1.247-0.913,2.518-1.781,3.82-2.585C236.594,258.266,237.502,258.085,238.148,258.052z
	 M223.226,245.719c-7.585,6.387-14.42,13.781-20.592,21.407c2.241,5.808,4.466,11.622,7.023,17.271
	c6.123-7.467,12.764-15.358,20.406-21.503C227.732,257.19,225.595,251.402,223.226,245.719z M200.494,269.811
	c-0.425,0.542-0.854,1.083-1.272,1.625c-7.22,9.364-13.892,19.356-19.356,29.931c3.616,3.099,7.186,6.252,10.724,9.44
	c4.835-8.591,11.056-16.606,17.005-23.89C204.985,281.335,202.727,275.581,200.494,269.811z M178.677,303.729
	c-2.836,5.726-5.312,11.617-7.316,17.673c1.299,1.556,2.47,3.269,3.426,5.079c0.25,0.473,0.494,0.949,0.711,1.435
	c0.117-0.026,0.219-0.042,0.312-0.05c0.064-0.006,0.126-0.01,0.173-0.004c2.432,0.283,4.865,0.55,7.3,0.812
	c1.284-5.341,3.407-10.523,6.035-15.522C185.807,309.969,182.262,306.825,178.677,303.729z M185.339,328.891
	c3.875,0.406,7.754,0.778,11.636,1.13c0.722-2.528,1.705-4.982,2.89-7.36c-0.158-0.021-0.293-0.067-0.383-0.15
	c-2.771-2.592-5.56-5.17-8.367-7.73c-2.17,4.375-3.928,8.898-5.032,13.57C186.032,328.563,185.729,328.751,185.339,328.891z
	 M199.607,330.259c14.62,1.28,29.279,2.187,43.953,2.74c-4.907-15.3-6.094-32.039-6.117-48.332c0-0.003,0-0.006,0-0.009
	c-3.811,2.474-7.426,5.324-10.855,8.393c-2.8,2.506-5.479,5.155-8.017,7.885c-0.073,0.165-0.227,0.318-0.427,0.451
	c-0.912,0.99-1.809,1.987-2.687,2.989C208.88,311.889,202.187,320.427,199.607,330.259z M218.21,229.001
	c0.028,0.03,0.059,0.057,0.08,0.093c2.475,4.064,4.558,8.307,6.458,12.632c4.793-3.743,9.871-7.086,15.276-9.851
	c0.241-0.124,0.486-0.18,0.719-0.192c0.901-5.834,2.061-11.611,3.557-17.282C235.505,218.467,226.683,223.355,218.21,229.001z
	 M194.526,247.875c2.667,5.443,4.938,11.08,7.139,16.747c6.265-7.498,13.105-14.726,20.682-20.974
	c-1.92-4.46-4.025-8.834-6.521-13.032C208.319,235.786,201.131,241.556,194.526,247.875z M165.209,289.373
	c0.051,0.021,0.098,0.044,0.138,0.075c4.225,3.306,8.372,6.711,12.467,10.181c5.638-10.719,12.498-20.854,19.947-30.223
	c0.573-0.721,1.156-1.439,1.739-2.158c-2.249-5.804-4.542-11.589-7.207-17.196C180.776,261.525,171.236,274.724,165.209,289.373z
	 M158.759,312.24c3.429,1.323,6.656,3.307,9.448,5.859c0.359,0.329,0.717,0.671,1.07,1.023c2.047-5.862,4.522-11.593,7.34-17.172
	c-4.062-3.47-8.185-6.865-12.371-10.178c-2.434,6.39-4.207,13.043-5.171,19.947C159.049,311.915,158.931,312.089,158.759,312.24z
	 M65.756,476.503c4.361-0.621,8.372-2.511,10.927-6.571c1.826-2.901,2.843-6.18,3.243-9.556c-4.268,0.921-8.47,2.132-12.772,2.898
	c-0.616,0.109-1.074-0.06-1.354-0.33c-11.934,1.993-24.285-17.882-11.86-25.251c0.322-0.191,0.765-0.255,1.187-0.229
	c3.164-2.323,5.784-5.228,7.859-8.608c0.263-0.428,1.506-0.75,2.226-0.674c-3.414-4.345-7.785-7.714-12.772-9.123
	c-17.575-4.962-29.464,14.281-25.96,29.853c2.898,12.88,12.542,22.46,24.938,26.483c0.539-0.214,1.127-0.384,1.405-0.351
	C57.131,475.55,61.444,476.023,65.756,476.503z M65.651,428.757c-0.003,0.006-0.003,0.01-0.007,0.016
	c-2.516,4.1-5.829,7.405-9.811,10.026c-0.01,0.006-0.016,0.012-0.025,0.018c-6.883,4.083-4.397,12.53,0.31,17.385
	c2.254,2.325,5.813,5.254,9.336,4.844c4.185-0.488,6.832-4.191,7.324-8.154C73.747,445.088,70.914,435.756,65.651,428.757z
	 M71.42,460.287c2.894-0.68,5.77-1.436,8.68-2.039c0.104-2.42-0.086-4.859-0.51-7.218c-1.375-7.652-4.815-15.204-9.939-21.142
	C75.87,439.518,79.703,453.597,71.42,460.287z M79.279,474.358c5.453-3.038,8.012-8.161,11.546-12.982
	c11.654-15.896,23.666-31.563,35.976-46.957c8.194-10.246,16.239-20.283,22.907-31.638c7.297-12.426,13.749-25.348,21.342-37.6
	c4.945-7.978,2.929-16.423-2.36-22.745c-0.09-0.069-0.164-0.151-0.214-0.251c-1.428-1.665-3.084-3.176-4.899-4.486
	c-1.266-0.915-2.609-1.728-4.006-2.43c-7.23-3.634-15.898-4.204-22.756,0.586c0.24,0.13,0.271,0.363-0.114,0.726
	c-20.542,19.341-39.913,39.991-59.244,60.526c-8.894,9.447-17.753,18.929-26.472,28.537c-2.723,3-5.448,6.003-8.094,9.071
	c-0.417,0.483-2.175,2.437-2.714,3.149c3.403-1.177,7.051-1.557,10.713-1.04c0.323-0.167,0.699-0.252,1.062-0.183
	c17.515,3.337,30.131,20.455,31.018,37.89c0.057,1.12,0.058,2.259,0.007,3.401c0.939,0.328,1.056,1.458-0.128,1.825
	c-0.554,5.499-2.555,10.893-6.943,14.476c-1.512,1.234-3.138,2.167-4.838,2.867c0.107,0.012,0.215,0.025,0.322,0.037
	C74.147,476.627,76.813,475.731,79.279,474.358z M510.854,473.509c-3.102-2.656-5.144-5.943-7.683-9.462
	c-4.636-6.425-9.428-12.74-14.222-19.047c-6.785-8.927-13.621-17.816-20.588-26.601c-7.555-9.524-15.482-18.673-21.921-29.026
	c-7.625-12.259-14.119-25.157-21.41-37.609c-4.627-7.903-9.431-14.754-4.973-23.976c0.895-1.851,2-3.606,3.274-5.242
	c-2.848,0.612-5.704,1.19-8.566,1.741c-0.59,0.472-2.32,0.868-2.655,0.51c-33.488,6.224-67.87,8.467-101.809,9.479
	c-37.457,1.116-75.036,0.341-112.387-2.894c-1.87-0.162-3.741-0.322-5.61-0.497c-5.431-0.507-10.856-1.064-16.276-1.679
	c1.186,3.174,1.591,6.557,0.678,9.909c-1.492,5.475-5.365,10.245-8.139,15.13c-3.428,6.038-6.729,12.145-10.108,18.209
	c-6.711,12.047-13.793,23.73-22.577,34.39c-6.815,8.271-13.424,16.712-19.971,25.196c-6.384,8.271-12.723,16.579-18.957,24.963
	c-2.93,3.941-5.47,8.309-8.465,12.161c-3.18,4.09-7.411,6.844-12.125,8.495c43.095,4.58,86.329,7.9,129.617,9.933
	c56.807,2.667,113.782,3.385,170.606,0.794C421.505,486.339,466.751,482.66,510.854,473.509z M517.043,472.196
	c-2.83-3.478-4.273-7.84-4.687-12.315c-1.25-0.272-0.913-1.287-0.117-1.799c-0.044-1.374,0-2.748,0.129-4.1
	c1.627-17.155,13.71-33.936,31.218-37.272c0.497-0.095,0.885-0.008,1.166,0.161c3.059-0.589,6.175-0.601,9.191,0.09
	c-0.771-0.867-1.635-1.781-1.871-2.053c-2.734-3.141-5.525-6.232-8.328-9.312c-8.817-9.689-17.754-19.27-26.741-28.802
	c-19.14-20.3-38.301-40.727-58.622-59.86c-0.222-0.209-0.119-0.456,0.148-0.679c-6.888-4.984-15.876-4.769-23.318-1.157
	c-0.65,0.315-1.287,0.659-1.911,1.025c-0.441,0.259-0.878,0.524-1.304,0.807c-0.027,0.222-0.419,0.46-0.913,0.64
	c-4.394,3.188-7.823,7.679-9.25,12.981c-2.303,8.563,2.65,14.37,6.726,21.484c4.888,8.531,9.474,17.231,14.371,25.757
	c9.046,15.748,20.239,29.345,31.395,43.571c9.043,11.531,17.96,23.165,26.704,34.925c2.997,4.03,5.604,8.824,8.834,12.628
	c1.278,1.505,2.733,2.79,4.307,3.888C515.128,472.601,516.088,472.406,517.043,472.196z M525.012,431.137
	c0.777-1.313,1.655-2.563,2.617-3.741c-6.698,6.48-11.096,15.568-12.163,24.738c-0.226,1.941-0.326,3.977-0.238,6.015
	c2.576,0.528,5.124,1.179,7.68,1.795c-1.359-1.281-2.395-2.942-2.9-4.924C517.995,447.119,520.972,437.966,525.012,431.137z
	 M522.396,476.577c-1.399-0.721-2.715-1.633-3.908-2.788c-0.313-0.302-0.61-0.615-0.896-0.936c-0.21,0.096-0.432,0.176-0.64,0.222
	c-0.598,0.132-1.198,0.252-1.796,0.382C517.387,474.855,519.836,475.887,522.396,476.577z M568.989,438.287
	c-1.942-9.687-9.326-19.576-20.018-20.057c-11.432-0.514-20.083,8.804-23.93,18.75c-1.81,4.679-3.491,10.315-2.55,15.381
	c0.806,4.337,4.133,9.543,9.344,8.622c8.682-1.534,16.591-15.028,8.488-21.233c-0.162-0.01-0.306-0.042-0.415-0.108
	c-4.3-2.641-7.755-6.144-10.393-10.439c-0.347-0.564,2.382-1.616,2.897-0.776c2.183,3.554,4.998,6.53,8.355,8.922
	c0.294-0.024,0.568,0.009,0.77,0.128c11.095,6.581,2.157,20.71-6.695,24.526c-1.769,0.763-3.651,1.015-5.469,0.837
	c-0.374,0.352-0.937,0.593-1.487,0.495c-4.199-0.748-8.303-1.919-12.464-2.831c0.475,3.875,1.749,7.619,4.33,10.567
	c5.418,6.187,13.71,6.456,21.257,4.857c0.426-0.09,0.775-0.046,1.044,0.071C558.475,471.23,572.688,456.737,568.989,438.287z
	 M412.627,137.552c-1.251-2.62-8.231-8.682-3.314-10.981c2.455-1.147,5.5-1.004,7.337,1.134c1.523,1.772,2.48,4.146,4.044,5.903
	c0.042-0.008,0.084-0.013,0.126-0.017c0.681-0.516,1.871-0.663,2.304,0.032c1.298,2.08,6.228,5.13,4.667,8.132
	c1.601,0-0.346,1.523-1.326,1.583c3.568-0.222,0.715-1.654,2.482-0.699c0.425,0.23,0.852,0.455,1.285,0.669
	c1.291,0.637,2.593,1.251,3.9,1.854c4.219,1.943,8.461,3.835,12.689,5.759c6.351,2.891,12.745,5.769,18.965,8.962
	c-0.105-0.203-0.125-0.443,0-0.705c0.272-0.564,0.494-1.141,0.687-1.729c-3.367-1.281-6.595-2.953-10.146-3.682
	c-1.683-0.345,0.749-1.875,1.749-1.669c3.046,0.625,5.869,1.914,8.727,3.099c0.428-1.212,2.45-1.143,3.41-0.789
	c1.065,0.392,2.499,1.27,3.494,1.32c0.244,0.012,0.508,0.104,0.694,0.253c0.401,0.124,0.666,0.415,0.575,0.91
	c-0.104,0.564-0.236,1.123-0.386,1.679c5.41,0.793,10.52,2.751,15.676,4.49c1.643,0.554-0.798,1.956-1.759,1.632
	c-4.777-1.611-9.516-3.399-14.487-4.286c-0.388,1.097-0.85,2.167-1.351,3.208c0.222,0.127,0.447,0.249,0.668,0.377
	c0.258,0.15,0.316,0.325,0.254,0.5c0.988-0.092,2.007,0.435,1.239,1.428c-1.583,2.048-1.976,4.779-3.306,7.006
	c0.606,0.676-1.768,1.646-2.498,1.221c-8.873-5.152-18.4-9.176-27.824-13.193c-3.358-1.431-6.733-2.833-10.073-4.309
	c0.863,3.409,1.288,7.886,1.544,9.082c2.031,9.464,4.045,18.965,6.946,28.209c0.15,0.479-0.527,0.923-1.267,1.116
	c-0.131,0.338-0.542,0.636-0.824,0.753c-0.625,0.259-1.257,0.489-1.894,0.693c0.705,2.274,0.896,4.678,1.773,6.9
	c0.491,1.241-2.388,2.066-2.897,0.776c-0.889-2.25-1.073-4.686-1.8-6.985c-1.22,0.185-2.461,0.243-3.724,0.118
	c-0.993-0.098-1.023-0.602-0.651-1.06c-3.034-9.72-5.019-19.778-7.063-29.742c-0.908-4.426-1.779-8.86-2.737-13.275
	c-0.176-0.811-1.109-4.501-1.129-5.351c-0.345-0.036-0.593-0.159-0.611-0.393c-0.111-0.042-0.215-0.094-0.302-0.172
	c-2.364-2.132-4.166-4.688-6.001-7.271c-0.313-0.441-0.034-0.994,0.376-1.26c0.605-0.393,1.224-0.758,1.844-1.12
	C412.68,137.633,412.648,137.596,412.627,137.552z M466.931,160.468c1.14,0.595,2.271,1.203,3.396,1.822
	c0.692-1.544,1.271-3.152,1.615-4.804c-0.684-0.152-1.341-0.45-1.977-0.72c-0.114-0.048-0.229-0.094-0.343-0.144
	c-0.275,1.006-0.593,1.996-1.049,2.941C468.283,160.165,467.586,160.474,466.931,160.468z M425.938,143.685
	c-1.756,1.298-3.983,2.08-5.982,3.004c0.678,0.921,0.821,2.805,0.997,3.582c0.985,4.359,1.847,8.747,2.742,13.125
	c2.199,10.752,4.275,21.624,7.551,32.113c1.755-0.015,3.421-0.435,5.079-1.12c0.082-0.034,0.175-0.066,0.272-0.097
	c-2.585-8.321-4.466-16.852-6.298-25.364c-0.756-3.514-1.477-7.037-2.287-10.539c-0.105-0.455-0.6-2.311-0.818-3.43
	c-0.539-0.296-0.953-0.624-0.959-0.947c-0.007-0.36,0.236-0.587,0.521-0.758c0.5-0.542,1.459-0.852,2.168-0.688
	c0.506,0.117,0.944,0.661,1.325,1.46c1.526,0.746,4.125,1.665,4.543,1.845c3.652,1.567,7.316,3.104,10.967,4.675
	c7.967,3.43,15.987,6.889,23.58,11.109c1.088-2.035,1.516-4.375,2.857-6.291c-0.46,0.12-0.917,0.144-1.172-0.004
	c-9.546-5.557-19.744-10.013-29.796-14.558c-4.071-1.84-8.172-3.631-12.193-5.58C428.472,144.949,426.814,144.401,425.938,143.685z
	 M413.664,139.511c1.394,1.974,2.814,3.943,4.543,5.633c2.068-1.002,4.373-1.712,6.169-3.129c2.075-1.636-1.676-4.603-3.332-6.397
	C418.547,136.852,416.042,138.061,413.664,139.511z M412.766,132.849c0.812,1.111,1.781,2.206,2.471,3.418
	c0.954-0.501,1.916-0.988,2.882-1.467c-1.064-1.174-1.817-2.659-2.661-3.971c-0.338-0.527-4.449-5.663-4.954-3.098
	C410.157,129.488,411.813,131.544,412.766,132.849z M295.248,388.279c-0.811,0.266-1.754,0.229-1.754-0.271c0-1.145,0-2.289,0-3.434
	c0-1.111,2.897-1.654,2.897-0.776c0,1.055,0,2.109,0,3.164c0.005,0,0.011-0.001,0.016-0.001c25.948-0.004,51.897-0.24,77.844-0.513
	c13.254-0.139,26.508-0.289,39.761-0.536c4.25-0.08,8.502-0.16,12.751-0.296c1.36-0.043,2.722-0.086,4.081-0.161
	c0.105-0.006,0.197-0.013,0.287-0.02c-10.392-8.101-17.523-19.426-26.676-28.803c-0.32,0.168-0.686,0.265-1.031,0.222
	c-14.999-1.866-30.061-2.443-45.142-2.498c-0.017,4.664-0.089,9.328-0.096,13.993c0,0.155-0.074,0.295-0.188,0.423
	c1.12-0.105,2.251-0.046,3.368,0.28c0.608,0.178-0.11,0.585-0.369,0.703c-0.539,0.245-1.42,0.559-2.022,0.383
	c-2.111-0.617-3.647,0.042-5.426,1.19c-0.566,0.366-1.38,0.559-2.049,0.549c-0.563-0.009-0.604-0.293-0.156-0.583
	c1.243-0.802,2.619-1.498,4.052-1.97c-0.066-0.052-0.107-0.118-0.107-0.201c0.007-4.923,0.09-9.845,0.101-14.768
	c-18.415,0.012-36.854,0.725-55.243,0.773c-2.056,5.218-2.288,10.953-3.665,16.372c1.231,0.106,2.434,0.329,3.518,0.812
	c1.159,0.516-1.502,1.719-2.318,1.355c-2.162-0.962-4.957-0.672-7.271-0.667c-0.425,0-1.176-0.236-0.769-0.789
	c0.406-0.551,1.271-0.773,1.917-0.775c0.709-0.001,1.45-0.019,2.203-0.024c1.292-5.413,1.557-11.107,3.715-16.268
	c-15.247,0.06-30.487,0.669-45.727,1.229c0.006,0.036,0.009,0.073-0.001,0.116c-2.76,11.369-7.714,22.048-10.299,33.472
	c-0.01,0.042-0.03,0.083-0.054,0.123c0.756,0,1.513,0,2.269,0c1.942,0-0.301,1.365-1.202,1.365c-3.147,0-6.294,0-9.441,0
	c-1.942,0,0.301-1.365,1.202-1.365c1.48,0,2.96,0,4.44,0c2.605-11.295,7.48-21.878,10.214-33.134
	c0.045-0.187,0.238-0.354,0.499-0.491c-19.11,0.692-38.221,1.239-57.341,0.446c-3.094,12.321-10.44,22.78-15.591,34.294
	c2.637,0.052,5.234,0.24,7.832,0.857c1.578,0.375-1.019,1.611-1.815,1.422c-3.024-0.718-6.025-0.839-9.121-0.84
	c-1.48,0-0.588-0.84,0.348-1.245c5.441-12.069,13.254-22.997,15.969-36.164c0.168-0.816,3.05-1.305,2.874-0.451
	c-0.009,0.042-0.021,0.083-0.029,0.125c36.783,1.583,73.644-1.48,110.434-1.768c33.81-0.264,67.864-2.454,101.526,1.735
	c0.272,0.034,0.468,0.102,0.611,0.19c0.656-0.255,1.48-0.281,1.913,0.16c9.578,9.773,16.87,21.767,28.113,29.839
	c1.355,0.974-1.177,2.439-2.231,1.683c-0.115-0.083-0.224-0.172-0.338-0.255c-1.127,0.357-2.685,0.278-3.549,0.317
	c-3.599,0.162-7.203,0.24-10.804,0.317c-13.14,0.281-26.282,0.438-39.424,0.582C350.917,388.011,323.082,388.273,295.248,388.279z
	 M430.94,385.967c0.088-0.114,0.263-0.221,0.483-0.312c-0.032-0.024-0.064-0.048-0.096-0.073
	C431.198,385.681,431.065,385.805,430.94,385.967z M163.047,406.403c3.365,0.002,6.685,0.073,9.979,0.834
	c0.839,0.194,3.405-1.103,1.802-1.474c-3.499-0.808-7.045-0.879-10.62-0.881C163.205,404.882,161.094,406.402,163.047,406.403z
	 M283.514,405.769c-0.964,0-1.928,0-2.892,0c-0.011-1.035-2.126-0.768-2.738,0c-0.984,0-1.968,0-2.952,0
	c-0.965,0-3.126,1.463-1.176,1.463c1.294,0,2.588,0,3.882,0c-0.877,12.159-2.376,24.214-4.719,36.183
	c-30.885-0.031-61.773-0.428-92.652-0.963c-9.023-0.156-18.11-0.092-27.122-0.667c0.028-0.057,0.058-0.108,0.079-0.188
	c0.247-0.942,0.595-1.862,0.919-2.779c1.126-3.189,2.402-6.327,3.688-9.454c3.074-7.481,6.305-15.077,10.583-21.963
	c0.73-1.175-2.191-0.908-2.704-0.083c-3.938,6.339-6.921,13.284-9.834,20.138c-1.955,4.597-5.183,10.219-5.712,15.269
	c-0.037,0.35,0.23,0.581,0.567,0.627c4.907,0.669,10.063,0.416,15,0.524c11.084,0.243,22.17,0.411,33.255,0.569
	c25.218,0.359,50.439,0.655,75.66,0.662c1.108,0,3.077-1.681,1.117-1.682c-0.009,0-0.019,0-0.029,0
	c0.03-0.059,0.054-0.119,0.066-0.182c2.339-11.912,3.839-23.911,4.723-36.011c0.606,0,1.212,0,1.818,0
	C283.303,407.231,285.464,405.769,283.514,405.769z M226.553,440.172c-0.173,1.037,2.736,0.517,2.889-0.398
	c1.723-10.333,3.501-20.648,5.991-30.829c0.186,0,0.372,0,0.558,0c0.959,0,3.127-1.455,1.178-1.455c-3.147,0-6.294,0-9.441,0
	c-0.959,0-3.127,1.455-1.178,1.455c2.073,0,4.146,0,6.22,0c-0.105,0.101-0.18,0.211-0.209,0.33
	C230.062,419.477,228.28,429.815,226.553,440.172z M429.091,398.89c-0.763,0.238-1.288,0.012-1.501-0.366
	c-0.448-0.011-0.896-0.02-1.344-0.012c-1.827,0.03-3.653,0.097-5.478,0.178c-5.488,0.246-10.973,0.564-16.458,0.885
	c-11.871,0.694-23.745,1.499-35.631,1.9c-14.997,0.506-30.017,0.419-45.019,0.259c-6.107-0.065-12.213-0.158-18.32-0.234
	c-1.776-0.022-3.552-0.051-5.328-0.048c-0.777,0.001-1.159,0.082-1.287,0.119c0.12-0.051,0.443-0.227,0.805-0.684
	c-0.005-0.02-0.011-0.04-0.016-0.06c-0.339,0.339-0.878,0.614-1.387,0.672c0,1.06,0,2.12,0,3.18c0,1.339-2.939,1.757-2.939,0.207
	c0-1.716,0-3.433,0-5.148c0-1.306,2.789-1.73,2.927-0.312c1.903-0.644,5.358-0.033,6.661-0.016
	c6.847,0.085,13.693,0.193,20.54,0.259c16.889,0.161,33.799,0.247,50.673-0.571c14.149-0.686,28.28-1.683,42.429-2.366
	c3.531-0.17,7.537-0.805,11.061-0.233C431.646,396.852,430.595,398.421,429.091,398.89z M428.571,396.946
	c-0.939,0.292-1.12,0.574-1.017,0.817C427.688,397.433,428.016,397.119,428.571,396.946z M434.571,392.38
	c0-0.594-2.898-0.138-2.897,0.776c0.001,2.502,0.023,5.045,1.806,6.992c0.542,0.592,3.261-0.437,2.72-1.027
	C434.52,397.288,434.573,394.718,434.571,392.38z M278.278,455.766c0.538,0.61-2.193,1.624-2.72,1.027
	c-0.294-0.333-0.523-0.688-0.727-1.052c-0.624,0.008-0.981-0.376-0.996-0.827c-0.029-0.004-0.048-0.006-0.08-0.011
	c-0.477-0.072-0.953-0.139-1.433-0.189c-1.656-0.174-3.316-0.298-4.978-0.394c-4.643-0.266-9.292-0.422-13.941-0.528
	c-12.128-0.277-24.27-0.33-36.399-0.068c-13.915,0.299-27.773,0.388-41.684-0.234c-5.517-0.247-11.031-0.546-16.542-0.897
	c-1.622-0.104-3.242-0.211-4.864-0.313c-0.803,1.289-1.81,2.446-2.804,3.589c-0.882,1.014-3.646,0.5-2.436-0.893
	c0.779-0.896,1.65-1.823,2.318-2.838c-0.078-0.009-0.153-0.022-0.224-0.045c-0.021-0.006-0.042-0.013-0.063-0.02
	c-0.774-0.246-0.764-1.097-0.19-1.542c-0.215-0.233-0.356-0.545-0.377-1.011c-0.057-1.268,2.607-1.714,2.907-0.399
	c0.094,0.032,0.188,0.065,0.284,0.096c0.41,0.129,0.85,0.373,1.07,0.762c1.312,0.121,2.621,0.369,3.533,0.427
	c6.637,0.427,13.277,0.813,19.922,1.081c16.79,0.676,33.504,0.106,50.292,0.019c13.1-0.069,26.249-0.053,39.332,0.697
	c1.852,0.106,4.292-0.02,6.425,0.313c-0.085-0.89-0.089-1.804-0.09-2.71c-0.001-0.915,2.897-1.37,2.897-0.776
	C276.717,451.344,276.651,453.921,278.278,455.766z M274.187,454.117c-0.005-0.019-0.009-0.038-0.014-0.057
	c-0.108,0.096-0.158,0.187-0.164,0.273C274.058,454.259,274.117,454.187,274.187,454.117z" fill="#fca203"></path>
</svg>