<?xml version="1.0" standalone="no"?>
<svg version="1.1" id="Layer_1" xmlns="http://www.w3.org/2000/svg" xmlns:xlink="http://www.w3.org/1999/xlink" x="0px" y="0px" viewBox="0 0 595.28 595.28" enable-background="new 0 0 595.28 595.28" xml:space="preserve">
<path id="color_x5F_5" fill="#FFD2BB" d="M392.521,328.574c0,0-16.639,26.787-30.019,26.531l-17.376-7.965
	c-0.595-0.68-1.191-1.389-1.758-2.069c-3.515-3.997-18-53.659-18-55.332s2.324-7.087,3.317-8.164
	c1.021-1.077,10.517-8.901,10.517-8.901c-3.26,1.73-9.099,1.078-9.099,1.078c-13.918-2.268-17.235-16.611-17.915-20.892
	c1.134-0.737,2.296-1.673,3.515-2.778c6.831-6.35,6.491-10.488,14.315-11.338c7.852-0.822,9.014,8.334,12.189,11.168
	c3.146,2.835,6.151-1.672,4.649-4.988c-1.502-3.346,2.92-7.088,2.92-7.088s6.123-1.842,7.682,2.495
	c1.644,4.763-2.268,10.573-2.268,10.573c1.842,6.265-0.425,9.836-0.425,9.836s0.595,0.34,1.276,0.17
	c0.652-0.17,2.324-0.254,2.409,0.766c0.085,0.992-4.082,13.578-8.249,18.396c-4.167,4.848-12.841,11.34-12.841,11.34l18.17,36
	l8.844-5.5C375.031,326.249,392.521,328.574,392.521,328.574L392.521,328.574z M318.197,343.994L318.197,343.994
	c0-0.028-0.028-0.057-0.057-0.113c-0.198-0.34-0.397-0.68-0.652-1.049c-0.028-0.057-0.057-0.113-0.085-0.17
	c-0.255-0.34-0.51-0.709-0.765-1.049c-0.057-0.086-0.085-0.143-0.142-0.199c-0.283-0.368-0.567-0.736-0.85-1.105
	c-0.057-0.057-0.113-0.113-0.17-0.197c-0.284-0.369-0.624-0.738-0.935-1.105c-0.028-0.058-0.085-0.114-0.142-0.171
	c-0.312-0.368-0.652-0.737-0.992-1.105c-0.028-0.028-0.057-0.057-0.085-0.085c-0.34-0.396-0.68-0.766-1.049-1.134
	c-0.057-0.057-0.113-0.113-0.17-0.17c-0.34-0.368-0.68-0.709-1.021-1.077c-0.057-0.057-0.142-0.143-0.198-0.227
	c-0.34-0.313-0.68-0.652-0.992-0.965c-0.085-0.084-0.17-0.17-0.255-0.254c-0.312-0.313-0.624-0.624-0.935-0.908
	c-0.085-0.084-0.142-0.141-0.227-0.197c-0.312-0.313-0.624-0.596-0.907-0.879c-0.057-0.057-0.113-0.113-0.17-0.143
	c-0.283-0.283-0.567-0.538-0.822-0.793c-0.057-0.029-0.085-0.057-0.113-0.086c-0.283-0.254-0.567-0.51-0.794-0.736
	c-0.057-0.028-0.085-0.085-0.142-0.113c-0.227-0.199-0.454-0.396-0.652-0.596c-0.057-0.028-0.085-0.057-0.142-0.113
	c-0.17-0.17-0.368-0.312-0.51-0.453c-0.028-0.029-0.057-0.057-0.085-0.086c-0.142-0.113-0.283-0.227-0.397-0.34
	c-0.17-0.142-0.255-0.198-0.255-0.198l8.504-10.517c0,0-11.339-4.422-17.802-15.08c0,0-19.162,17.178-20.835,21.656
	c-1.276,3.516,0.454,7.711,4.195,10.658c0.255,0.199,0.539,0.426,0.794,0.596c0.028,0.028,0.057,0.028,0.085,0.057
	c0.255,0.17,0.51,0.34,0.794,0.51c0.085,0.057,0.198,0.113,0.283,0.17c0.227,0.114,0.425,0.256,0.652,0.369
	c0.34,0.17,0.68,0.313,1.02,0.482c0,0,0,0,0.028,0c6.151,2.664,14.995,8.674,17.49,14.994l0,0c0.113,0.313,0.227,0.624,0.34,0.965
	c0.028,0.057,0.057,0.141,0.057,0.197c0.113,0.341,0.227,0.709,0.312,1.078c0.028,0.085,0.057,0.142,0.057,0.227
	c0.113,0.369,0.198,0.766,0.312,1.162c0,0.028,0,0.085,0.028,0.113c0.085,0.426,0.198,0.907,0.283,1.361
	c0.028,0.084,0.057,0.197,0.057,0.283c0.113,0.453,0.198,0.936,0.283,1.445c0.028,0.057,0.028,0.113,0.028,0.17
	c0.113,0.482,0.198,0.964,0.283,1.475c0,0.057,0.028,0.113,0.028,0.17c0.085,0.539,0.17,1.049,0.255,1.588
	c0.028,0.113,0.028,0.197,0.057,0.283c1.191,7.512,2.041,15.902,2.466,17.489c0.652,2.495,1.446,4.082,3.317,4.195
	c1.871,0.142,0.51,0.766,4.989,3.005c3.458,1.729,7.313-0.199,9.468-3.77c0.312-0.539,0.595-1.135,0.85-1.758
	c0.028-0.057,0.028-0.113,0.057-0.199c0.113-0.227,0.198-0.481,0.255-0.736c0.113-0.34,0.198-0.681,0.255-1.021
	c1.134-5.755-1.247-28.517-3.997-34.753C318.594,344.703,318.395,344.363,318.197,343.994L318.197,343.994z M274.94,427.616
	L274.94,427.616l7.965-0.425c0,0,0.142,0,0.368,0.027l0.567-7.029l-9.723,0.313L274.94,427.616z M329.054,437.339L329.054,437.339
	l8.702-0.454l0.567-6.803h-10.091L329.054,437.339z"></path>
<path id="color_x5F_4" fill="#fca203" d="M311.989,317.66L311.989,317.66c-0.023-0.008-7.494-2.929-13.758-9.73
	C304.504,314.741,311.989,317.66,311.989,317.66z M301.186,363.317c-0.037-0.242-0.074-0.486-0.112-0.727
	c-0.003-0.009-0.003-0.02-0.006-0.028C301.108,362.812,301.147,363.065,301.186,363.317z M322.476,380.816
	c-0.057,0.255-0.142,0.509-0.255,0.736c-0.029,0.086-0.029,0.142-0.057,0.199c-0.255,0.623-0.538,1.219-0.85,1.758
	c-2.155,3.571-6.01,5.499-9.468,3.77c-4.479-2.239-3.118-2.863-4.989-3.005c-1.871-0.113-2.665-1.7-3.317-4.195
	c-0.394-1.472-1.155-8.796-2.213-15.844c-1.982,0.255-2.833,1.077-4.788,2.352c-4.819,3.119-7.313,13.21-8.617,23.84h34.129
	l-0.737-6.916c0.652-1.105,1.162-2.354,1.417-3.714c0.213-1.079,0.302-2.756,0.288-4.81c0.014,2.053-0.075,3.729-0.288,4.808
	C322.674,380.135,322.589,380.476,322.476,380.816z M300.703,360.387c0.02,0.115,0.041,0.228,0.061,0.344
	c-0.001-0.004-0.001-0.008-0.002-0.012c0-0.057-0.028-0.113-0.028-0.17C300.725,360.493,300.712,360.442,300.703,360.387z
	 M304.765,329.28c-0.207-0.184-0.392-0.348-0.553-0.49c0.004,0.004,0.008,0.008,0.011,0.012c0.142,0.141,0.34,0.283,0.51,0.453
	C304.746,329.268,304.754,329.27,304.765,329.28z M350.257,390.426c-2.409-2.551-3.572-4.337-3.572-4.337l-0.595,4.337H350.257z
	 M305.524,329.961c0.001,0.001,0.002,0.002,0.003,0.003c0,0,0,0,0,0C305.526,329.963,305.525,329.962,305.524,329.961z
	 M299.645,355.229c0.117,0.473,0.231,0.967,0.343,1.483c-0.065-0.308-0.132-0.614-0.188-0.897c-0.028-0.028-0.028-0.085-0.028-0.113
	C299.726,355.541,299.686,355.388,299.645,355.229z M330.016,340.253c0,0-3.373-1.928-7.795-4.223l-0.113-0.227
	c-2.636-5.131-4.62-23.755-4.62-23.755l-6.378,7.114c0,0-0.084-0.056-0.222-0.138l-7.402,9.154c0,0,0.085,0.056,0.255,0.198
	c0,0,0,0,0,0c0.112,0.028,0.196,0.029,0.281,0.029C310.372,329.085,330.016,340.253,330.016,340.253 M185.28,221.367
	c0,0,34.072,0.624,49.011-23.499c14.91-24.151-21.09-31.294-30.331-16.384c-8.164,13.209-13.72,24.009-28.942,25.313
	C159.825,208.102,172.496,221.793,185.28,221.367z M415.992,208.045c2.495,0,4.507-2.014,4.507-4.508s-2.012-4.507-4.507-4.507
	c-2.494,0-4.507,2.013-4.507,4.507S413.498,208.045,415.992,208.045z M430.364,208.158c2.494,0,4.507-2.012,4.507-4.508
	c0-2.466-2.013-4.479-4.507-4.479c-2.494,0-4.507,2.013-4.507,4.479C425.857,206.145,427.869,208.158,430.364,208.158z
	 M400.487,208.3c2.494,0,4.507-2.041,4.507-4.507c0-2.495-2.013-4.508-4.507-4.508c-2.494,0-4.507,2.013-4.507,4.508
	C395.98,206.259,397.992,208.3,400.487,208.3z M426.366,388.413c0.001,0-8.503-98.503-67.916-126.737c0,0,0,0,0,0
	c-0.085-1.02-1.757-0.936-2.409-0.766c-0.681,0.17-1.276-0.17-1.276-0.17s2.267-3.571,0.425-9.836c0,0,3.912-5.81,2.268-10.573
	c-0.001-0.002-0.002-0.003-0.002-0.005c-0.008-0.205-1.297-33.046-35.263-23.75c0,0-3.487,3.516-12.671-5.668
	c-9.156-9.156-26.986-4.508-32.485,7.001c-5.499,11.509,5.982,29.169,16.328,34.016c8.491,3.966,13.508,4.428,18.825,0.948
	c0.644,4.041,3.625,16.944,15.547,20.349c-2.284,1.59-19.642,13.746-26.746,18.19c-7.625,4.762-10.12,4.139-10.517,5.498
	c-0.17,0.652,1.417,3.146,3.43,5.925c0.05-0.043,0.074-0.065,0.11-0.097c-1.869,1.684-19.079,17.265-20.661,21.499
	c-1.276,3.516,0.454,7.711,4.195,10.658c0.009,0.007,0.019,0.015,0.028,0.022c-0.009-0.008-0.02-0.014-0.029-0.022
	c-5.215,4.961-9.184,13.21-10.176,16.838c-1.559,5.64-0.397,22.876,1.162,38.693h-83.897c4.535-11.127,10.707-49.352,10.707-49.352
	h-6.293c2.636-1.36,6.888-1.984,9.808-5.244c2.976-3.345,1.559-7.994-0.822-11.451c-2.013-2.892-1.077-4.451-0.709-4.876
	c-0.567,0.624-3.061,3.543-2.636,6.208c0.482,2.977-0.822,5.357-2.976,7.143s-5.244,2.127-5.244,2.127s7.994-8.221,4.904-11.424
	c-3.118-3.232-2.636-5.613-0.368-11.197c2.268-5.584,0.595-9.043-1.672-13.918c-2.268-4.904-8.334-8.107-8.334-8.107
	s3.572,4.989,0.368,10.715c-3.232,5.727-6.094,8.561-5.017,13.097c1.077,4.535,4.054,7.37,4.28,11.792
	c0.255,4.394-2.495,8.221-2.495,8.221s1.191-8.107-4.876-11.452c-6.066-3.316-9.751-7.853-8.334-13.437
	c1.417-5.612,0-9.184-3.685-16.555c-3.685-7.398-8.816-10.715-8.816-10.715s1.672,3.316-4.422,12.133
	c-6.066,8.815-0.595,17.858,4.309,21.912c4.876,4.053,3.317,10.262,3.317,10.262s0.255-3.46-4.507-6.097
	c-4.762-2.607-6.69-1.53-6.69-1.53s2.041,0.454,3.345,3.571c1.304,3.09-0.822,7.966,0.822,11.65
	c1.672,3.714,5.499,4.055,7.625,5.613c0.68,0.481,1.162,1.02,1.559,1.559h-8.135c1.983,19.492,9.271,43.642,11.22,49.862
	c-0.052-0.16-0.106-0.328-0.165-0.51h-60.208v5.949c-22.247-35.262-19.802-79.125-4.479-107.288
	c24.69-45.354,87.335-34.667,129.997-66.671c42.69-32.003,72.879-97.852,173.339-94.988
	c82.006,2.324,121.351,124.979,123.761,181.644c1.218,28.571-4.532,60.829-18.426,86.339v-4.984h-79.201
	c0.312-0.653,0.596-1.332,0.879-2.013 M363.098,205.408c0,7.144,5.301,13.606,13.833,18.256c-0.085,3.968-1.786,9.042-8.731,12.415
	c0,0,20.75,3.601,32.627-5.414c2.976,0.341,6.038,0.511,9.156,0.511c25.88,0,46.885-11.537,46.885-25.768
	s-21.005-25.738-46.885-25.738S363.098,191.178,363.098,205.408z M386.115,208.158c2.494,0,4.507-2.012,4.507-4.508
	c0-2.466-2.013-4.479-4.507-4.479c-2.494,0-4.507,2.013-4.507,4.479C381.608,206.145,383.62,208.158,386.115,208.158z
	 M307.189,331.491c0.071,0.069,0.137,0.129,0.209,0.201c0.029,0.015,0.058,0.048,0.087,0.073
	C307.382,331.669,307.29,331.584,307.189,331.491z M421.973,396.406c-9.978,13.494-27.695,14.485-45.354,9.639
	c-8.391-2.297-14.91-6.01-19.672-9.639h-11.65l-4.592,33.676h-2.382l-0.565,6.784l0.168-0.009c0,0,0.935,0,1.501,0.255
	c0.567,0.255,0.85,5.584,0.567,7.058c-0.284,1.475-0.964,2.297-0.964,2.297l-24.094,0.736c0,0-2.04-2.92,0.284-4.96
	c2.296-2.041,5.584-2.154,7.54-1.673c1.985,0.51,5.698-3.203,5.698-3.203l0.596-0.032l-0.822-7.253h-1.87l-3.657-33.676h-35.376
	c-0.992,12.331-0.624,23.67-0.624,23.67l-8.18,0.284l5.315-0.171l-0.566,7.018c0.332,0.024,0.819,0.084,1.162,0.239
	c0.567,0.255,0.85,5.584,0.567,7.058c-0.284,1.475-0.964,2.297-0.964,2.297l-24.094,0.736c0,0-2.041-2.92,0.283-4.961
	c2.296-2.041,5.556-2.154,7.54-1.672c1.956,0.51,5.698-3.203,5.698-3.203l9.439-0.51l-7.965,0.425l-0.822-7.103l-2.096,0.073
	c0,0-1.474-10.913-2.863-24.18H100.515c13.56,21.477,36.279,39.76,70.847,49.352c91.332,25.313,262.999,17.15,309.997-21.345
	c9.164-7.51,16.716-17.129,22.774-28.007H421.973z M294.188,302.581c0,0,0-0.001-0.001-0.001c0,0-0.023,0.022-0.036,0.035
	C294.167,302.599,294.188,302.581,294.188,302.581z M278.342,335.491c-0.028-0.019-0.06-0.044-0.089-0.064
	c0.371,0.265,0.762,0.516,1.171,0.753c-0.069-0.041-0.142-0.081-0.203-0.122c-0.284-0.17-0.539-0.34-0.794-0.51
	C278.399,335.519,278.37,335.519,278.342,335.491z M312.103,336.342c-0.224-0.243-0.449-0.476-0.673-0.71
	c0.795,0.817,1.583,1.657,2.344,2.507c-0.124-0.136-0.241-0.272-0.366-0.408c-0.028-0.028-0.057-0.057-0.085-0.085
	c-0.34-0.396-0.68-0.766-1.049-1.134C312.216,336.455,312.16,336.399,312.103,336.342z M314.571,339.042
	c-0.01-0.012-0.021-0.023-0.03-0.035c-0.01-0.021-0.035-0.041-0.052-0.062C314.518,338.977,314.543,339.009,314.571,339.042z
	 M308.605,332.827c-0.216-0.207-0.421-0.399-0.63-0.597c0.167,0.159,0.328,0.312,0.5,0.484
	C308.524,332.746,308.564,332.789,308.605,332.827z M318.144,343.89c0.027,0.048,0.053,0.078,0.053,0.104
	c0.025,0.046,0.048,0.089,0.073,0.134C318.226,344.048,318.191,343.971,318.144,343.89z M317.476,342.809
	c0.004,0.008,0.008,0.016,0.012,0.023c0.021,0.031,0.038,0.059,0.058,0.09C317.521,342.883,317.502,342.847,317.476,342.809z"></path>
<path id="color_x5F_3" fill="#4b0505" d="M409.983,179.67c-25.88,0-46.885,11.508-46.885,25.738c0,7.144,5.301,13.606,13.833,18.256
	c-0.085,3.968-1.786,9.042-8.731,12.415c0,0,20.75,3.601,32.627-5.414c2.976,0.341,6.038,0.511,9.156,0.511
	c25.88,0,46.885-11.537,46.885-25.768S435.863,179.67,409.983,179.67L409.983,179.67z M161.356,392.467c0.567-0.566,22.28,0,22.28,0
	c4.564-7.144,11.707-51.393,11.707-51.393h-45.694C151.945,363.639,161.356,392.467,161.356,392.467L161.356,392.467z
	 M386.115,208.158L386.115,208.158c-2.495,0-4.507-2.013-4.507-4.508c0-2.466,2.013-4.479,4.507-4.479s4.507,2.013,4.507,4.479
	C390.622,206.146,388.609,208.158,386.115,208.158L386.115,208.158z M400.487,208.3L400.487,208.3c-2.495,0-4.507-2.041-4.507-4.507
	c0-2.495,2.013-4.508,4.507-4.508s4.507,2.013,4.507,4.508C404.994,206.259,402.981,208.3,400.487,208.3L400.487,208.3z
	 M415.992,208.045L415.992,208.045c-2.494,0-4.507-2.014-4.507-4.508s2.013-4.507,4.507-4.507c2.495,0,4.507,2.013,4.507,4.507
	S418.487,208.045,415.992,208.045L415.992,208.045z M430.364,208.158L430.364,208.158c-2.495,0-4.507-2.013-4.507-4.508
	c0-2.466,2.013-4.479,4.507-4.479s4.507,2.013,4.507,4.479C434.871,206.146,432.858,208.158,430.364,208.158L430.364,208.158z"></path>
<path id="color_x5F_2" fill="#4b0505" d="M151.123,320.211c-4.762-2.607-6.69-1.53-6.69-1.53s2.041,0.454,3.345,3.571
	c1.304,3.09-0.822,7.966,0.822,11.65c1.672,3.714,5.499,4.055,7.625,5.613c0.68,0.481,1.162,1.02,1.559,1.559h31.266
	c2.636-1.36,6.888-1.984,9.808-5.244c2.976-3.345,1.559-7.994-0.822-11.451c-2.013-2.892-1.077-4.451-0.709-4.876
	c-0.567,0.624-3.061,3.543-2.636,6.208c0.482,2.977-0.822,5.357-2.976,7.143c-2.154,1.786-5.244,2.127-5.244,2.127
	s7.994-8.221,4.904-11.424c-3.118-3.232-2.636-5.613-0.368-11.197c2.268-5.584,0.595-9.043-1.672-13.918
	c-2.268-4.904-8.334-8.107-8.334-8.107s3.572,4.989,0.368,10.715c-3.232,5.727-6.094,8.561-5.017,13.097
	c1.077,4.535,4.054,7.37,4.28,11.792c0.255,4.394-2.495,8.221-2.495,8.221s1.191-8.107-4.876-11.452
	c-6.066-3.316-9.751-7.853-8.334-13.437c1.417-5.612,0-9.184-3.685-16.555c-3.685-7.398-8.816-10.715-8.816-10.715
	s1.672,3.316-4.422,12.133c-6.066,8.815-0.595,17.858,4.309,21.912c4.876,4.053,3.317,10.262,3.317,10.262
	S155.885,322.848,151.123,320.211L151.123,320.211z M504.688,390.426v5.98h-82.715c-9.978,13.494-27.695,14.485-45.354,9.639
	c-8.391-2.297-14.91-6.01-19.672-9.639h-11.65l-4.592,33.676h-14.343l-3.657-33.676h-35.376c-0.992,12.331-0.624,23.67-0.624,23.67
	l-14.683,0.51c0,0-1.474-10.913-2.863-24.18H100.496v-5.98h60.208c0.425,1.304,0.652,2.041,0.652,2.041c0.567-0.566,22.28,0,22.28,0
	c0.312-0.51,0.652-1.191,0.992-2.041h83.905c-1.559-15.817-2.721-33.053-1.162-38.693c0.992-3.628,4.961-11.877,10.176-16.838
	c1.049,0.851,2.268,1.588,3.657,2.184c6.151,2.664,14.995,8.674,17.49,14.994c1.02,2.58,1.899,7.314,2.636,12.161
	c-1.984,0.255-2.835,1.077-4.791,2.353c-4.819,3.119-7.313,13.21-8.617,23.84h34.129l-0.737-6.916
	c0.652-1.105,1.162-2.354,1.417-3.714c1.134-5.755-1.247-28.517-3.997-34.753c-2.523-5.727-13.209-15.109-14.995-16.668
	c0.113,0.029,0.198,0.029,0.283,0.029c6.35,0.68,25.994,11.848,25.994,11.848l39.005,17.83l57.345,30.331
	c-0.283,0.681-0.567,1.36-0.879,2.013h79.201V390.426z M350.257,390.426L350.257,390.426c-2.409-2.551-3.572-4.337-3.572-4.337
	l-0.595,4.337H350.257z"></path>
<path id="color_x5F_1" fill="#4b0505" d="M293.365,251.925c-10.346-4.847-21.827-22.507-16.328-34.016s23.329-16.157,32.485-7.001
	c9.184,9.184,12.671,5.668,12.671,5.668c34.072-9.325,35.263,23.755,35.263,23.755c-1.559-4.337-7.682-2.495-7.682-2.495
	s-4.422,3.742-2.92,7.088c1.502,3.316-1.502,7.823-4.649,4.988c-3.175-2.834-4.337-11.99-12.189-11.168
	c-7.824,0.85-7.483,4.988-14.315,11.338C308.871,256.404,303.683,256.744,293.365,251.925L293.365,251.925z M282.905,427.191
	L282.905,427.191l-9.439,0.51c0,0-3.742,3.713-5.698,3.203c-1.984-0.482-5.244-0.369-7.54,1.672
	c-2.324,2.041-0.283,4.961-0.283,4.961l24.094-0.736c0,0,0.68-0.822,0.964-2.297c0.283-1.474,0-6.803-0.567-7.058
	S282.905,427.191,282.905,427.191L282.905,427.191z M325.368,289.739L325.368,289.739c0-1.673,2.324-7.087,3.317-8.164
	c1.021-1.077,10.517-8.901,10.517-8.901c-3.26,1.73-9.099,1.078-9.099,1.078c-0.822-0.143-1.616-0.34-2.353-0.539
	c-2.239,1.559-19.644,13.748-26.759,18.199c-7.625,4.762-10.12,4.139-10.517,5.498c-0.17,0.652,1.417,3.146,3.43,5.925
	c0.198-0.17,0.283-0.255,0.283-0.255c6.463,10.658,17.802,15.08,17.802,15.08l-1.106,1.361c0.142,0.084,0.227,0.141,0.227,0.141
	l6.378-7.114c0,0,1.984,18.624,4.62,23.755l0.113,0.227c4.422,2.295,7.795,4.223,7.795,4.223l15.109,6.889
	c-0.595-0.68-1.191-1.389-1.758-2.069C339.854,341.074,325.368,291.412,325.368,289.739L325.368,289.739z M337.926,436.857
	L337.926,436.857l-9.468,0.51c0,0-3.713,3.713-5.698,3.203c-1.956-0.481-5.244-0.368-7.54,1.673c-2.324,2.04-0.284,4.96-0.284,4.96
	l24.094-0.736c0,0,0.68-0.822,0.964-2.297c0.283-1.474,0-6.803-0.567-7.058C338.861,436.857,337.926,436.857,337.926,436.857
	L337.926,436.857z M358.449,261.676L358.449,261.676c0.085,0.992-4.082,13.578-8.249,18.396c-4.167,4.848-12.841,11.34-12.841,11.34
	l18.17,36l8.844-5.5c10.658,4.337,28.148,6.662,28.148,6.662s-15.817,25.171-29.991,26.531l6.491,2.977l57.345,30.331
	C426.367,388.413,417.863,289.909,358.449,261.676L358.449,261.676z"></path>
</svg>