<?xml version="1.0" standalone="no"?>
<svg version="1.1" id="Layer_1" xmlns="http://www.w3.org/2000/svg" xmlns:xlink="http://www.w3.org/1999/xlink" x="0px" y="0px" width="595.279px" height="595.281px" viewBox="0 0 595.279 595.281" enable-background="new 0 0 595.279 595.281" xml:space="preserve">
<path id="color_x5F_2" fill="#fca203" d="M356.391,338.69c-0.06-11.783,2.851-23.541,7.007-34.512
	c0.002-0.006,0.009-0.012,0.012-0.02c-5.541-17.515-9.943-35.39-15.861-52.775c-0.057-0.166,0.059-0.336,0.265-0.494l-0.073-0.109
	c-0.311,0.072-0.594,0.092-0.791,0.014c-4.551-1.803-8.109-4.486-10.746-7.877c-7.484,4.928-22.201,7.006-28.482-0.279
	c-2.674,2.912-6.085,5.191-10.141,6.797c-0.045,0.02-0.104,0.035-0.169,0.053c0.097,0.063,0.144,0.145,0.105,0.258
	c-6.001,17.631-10.395,35.805-16.031,53.56c0.235,0.018,0.41,0.084,0.463,0.225c5.001,13.311,8.136,28.705,5.985,42.887
	c-0.718,4.736-4.347,7.922-6.909,11.684c-2.89,4.242-1.22,7.146,1.895,9.465c0.27-0.035,0.542-0.006,0.784,0.117
	c13.146,6.623,28.271,10.904,43.124,10.318c6.604-0.262,13.233-1.033,19.696-2.438c5.397-1.172,11.492-2.402,16.013-5.764
	c0.225-0.168,0.487-0.264,0.758-0.301c3.205-3.563,1.093-7.416-1.418-11.953C358.574,351.579,356.425,345.588,356.391,338.69z
	 M338.339,249.126c-10.625,5.703-22.646,6.113-33.728,1.373c-0.248-0.107,1.958-1.305,2.735-0.973
	c9.359,4.006,19.607,4.484,28.785-0.439C336.638,248.815,339.562,248.47,338.339,249.126z M277.321,307.555
	c-0.729,2.207-1.634,5.055-2.721,8.25l-6.09,15.662c-5.183,11.354-12.309,22.031-21.665,23.307c-1.274,0.086-2.469,0.084-3.47,0.043
	c-1.949-0.219-3.985-0.842-6.112-1.938c-11.218-5.783-12.551-21.625-11.898-32.656c0.556-9.381,3.915-18.482,8.021-26.847
	c7.314-14.902,15.019-30.213,19.646-46.201c1.476-5.102,2.377-9.994,4.843-14.793c1.73-3.367,4.08-6.627,6.93-9.256
	c1.893-0.986,4.2-2.227,6.104-3.258c2.902-1.311,5.363-2.17,6.511-2.549c0.333-0.021,0.663-0.053,1-0.055
	c0.021,0.391,0.043,0.76,0.059,1.09c0.194,4.199,1.017,8.361,1.619,12.514c1.08,7.447-1.425,15.057-4.196,21.871
	c-4.531,11.145-11.273,21.484-17.048,32.02c-5.719,10.434-11.4,20.888-16.971,31.4c-0.152,0.287,2.479,0.148,2.848-0.547
	c9.551-18.019,19.225-36.009,29.395-53.687c0.419-0.729,0.833-1.479,1.245-2.236c3.845,2.27,7.839,3.518,12.364,3.166
	c1.632-0.127,2.232-2.281,0.255-2.129c-3.989,0.311-7.418-0.889-10.789-2.945c-0.208-0.127-0.467-0.176-0.742-0.166
	c0.783-1.535,1.535-3.121,2.235-4.744c4.732,0.631,9.314,2.078,14.07,2.6c0.051,0.006,0.104,0.002,0.156,0.002
	C287.354,272.714,283.007,290.347,277.321,307.555z M368.316,217.05c-0.513-0.043-1.026-0.07-1.549-0.078
	c0.002-0.063,0.002-0.127,0.004-0.189C367.247,216.847,367.771,216.938,368.316,217.05z M413.833,349.247
	c-9.619,13.174-24.437,3.734-31.262-6.693c-7.527-11.498-12.341-25.082-16.417-38.633c0.033-0.088,0.065-0.178,0.099-0.266
	c0.039-0.102-0.063-0.168-0.242-0.203c-1.903-6.355-3.65-12.699-5.441-18.812c-2.787-9.508-5.34-19.107-8.335-28.559
	c4.854,0.066,8.952-1.525,13.146-3.951c0.961,2.508,2.074,4.949,3.271,7.289c-3.444,1.01-6.769,2.385-10.239,3.301
	c-1.689,0.445-1.455,1.305,0.229,0.861c3.537-0.934,6.918-2.346,10.426-3.355c0.605,1.154,1.227,2.285,1.861,3.381
	c10.209,17.652,19.846,35.669,29.395,53.687c0.342,0.646,3.081-0.432,2.896-0.777c-5.361-10.115-10.83-20.177-16.325-30.222
	c-5.999-10.967-12.802-21.686-17.694-33.197c-2.701-6.355-5.104-13.82-4.372-20.818c0.419-4.004,1.247-7.951,1.642-11.961
	c0.055-0.551,0.141-1.238,0.209-1.984c8.416,0.586,14.969,6.443,19.291,13.602l3.891,8.363c0.279,0.811,0.533,1.619,0.757,2.422
	c2.271,8.119,4.636,15.85,7.914,23.67c5.296,12.639,12.394,24.834,17.093,37.763c-0.115,0.15-0.094,0.287,0.133,0.381
	c0.602,1.674,1.166,3.357,1.678,5.059C421.118,321.868,421.727,338.434,413.833,349.247z M293.539,253.575
	c-0.004,0-0.008,0-0.012-0.002l0.028-0.047C293.549,253.544,293.543,253.56,293.539,253.575z"></path>
<path id="color_x5F_1" d="M439.485,363.516c-23.184-6.643-48.865-2.705-71.594,3.725c-0.211,0.061-0.389,0.129-0.539,0.203
	c0.715-1.369,0.904-2.965,0.307-4.945c-1.857-6.139-6.271-10.979-7.662-17.438c-2.57-11.945,0.588-25.355,4.656-37.01
	c0.074,0.227,0.143,0.453,0.217,0.68c3.217,9.734,6.745,19.439,11.385,28.598c4.086,8.064,9.715,15.791,18.543,18.953
	c7.131,2.555,14.976-0.309,20.152-5.393c8.129-7.982,8.563-22.271,7.333-32.816c-0.489-4.205-1.512-8.338-2.86-12.408
	c6.233,1.676,12.688,2.176,18.92,1.377l0.769,0.057c0,0,0.823-0.162,2.179-0.535c7.602-1.502,14.756-5.01,20.616-10.763
	c15.64-15.355,15.668-42.158,5.165-60.156c-5.064-8.678-12.676-15.723-21.189-20.938c-3.61-2.213-7.482-3.98-11.469-5.393
	c-4.428-1.564-9.339-1.713-13.291-4.412c-7.129-4.869-8.543-15.936-11.156-23.486c-3.441-9.947-9.305-15.918-18.625-20.684
	c-8.123-4.15-17.539-5.693-24.871-11.332c-3.736-2.873-5.979-6.867-8.528-10.725c-2.413-3.648-5.944-6.508-9.55-8.9
	c-14.73-9.775-34.447-9.605-48.438,1.117c-6.749,0.527-12.833,2.467-17.996,5.918c-0.845,0.484-1.565,1-2.112,1.549
	c-3.451,2.73-6.434,6.209-8.842,10.492c-6.034,10.73-6.794,23.473-12.495,34.262c-3.538,6.695-11.464,10.039-17.308,14.357
	c-7.324,5.412-10.092,13.996-9.909,22.854c0.156,7.539,3.626,14.979,8.537,20.594c2.168,2.477,6.015,7.244,9.573,7.826
	c0.085,0.014,0.2,0.008,0.334-0.014c-0.484,1.717-0.998,3.426-1.596,5.113c-5.137,14.488-11.902,28.502-18.741,42.254
	c-5.072,10.203-7.599,21.724-6.935,33.087c0.479,8.193,2.728,16.691,8.651,22.113c-6.508,0-13.016,0-19.524,0
	c-8.454,0-16.908,0-25.363,0c0.768-0.137,1.596-0.541,1.607-1.109c0.343-16.443,10.471-30.305,13.713-46.098
	c2.4-11.687,0.172-25.197-2.157-36.728c-0.504-2.498-1.099-5.008-1.78-7.506c9.05,9.443,29.761,11.691,40.277,12.174
	c0.283,0.014,2.653-0.4,2.396-0.953c-3.714-7.982-8.954-15.652-15.377-21.68c-8.84-8.291-19.924-9.182-29.326-2.02
	c-0.591,0.002-1.519,0.174-2.017,0.484c-5.241-12.746-13.297-24.205-25.023-31.127c0.632-1.781,0.463-3.854-0.772-5.82
	c-3.177-5.061-9.391-3.186-13.515-0.301c2.195-3.777,3.273-9.453-1.66-11.404c-1.995-0.791-4.522-0.064-6.251,1.029
	c-2.242,1.418-3.27,4.045-3.78,6.574c-1.47-2.268-3.482-4.035-6.218-4.596c-2.47-0.508-5.275,0.209-7.402,1.488
	c-1.808,1.088-3.039,2.912-3.064,5.047c-0.037,3.154,3.019,5.475,5.461,6.863c0.1,0.057,0.234,0.078,0.386,0.08
	c-0.015,0.307-0.017,0.615-0.006,0.93c-5.438-0.801-12.565,1.607-10.449,8.4c1.81,5.813,8.033,7.213,13.273,5.883
	c-2.661,3.91-2.89,9.047,0.75,12.756c3.116,3.174,7.072,2.506,9.978,0.145c-0.819,4.006,0.882,7.902,5.02,9.533
	c4.696,1.848,8.902-1.225,11.05-5.184c1.175,1.289,2.627,2.254,4.449,2.703c2.266,0.563,4.899-0.025,6.822-1.301
	c1.731-1.146,2.842-2.912,2.734-5.021c-0.151-2.967-3.13-5.037-5.467-6.307c-0.23-0.125-0.626-0.111-1.038-0.018
	c0.181-0.76,0.278-1.545,0.316-2.334c1.999,0.797,4.187,1.266,6.243,0.424c1.992-0.814,2.717-2.193,2.271-4.313
	c-1.269-6.039-8.183-10.016-13.918-10.133c-0.081-0.002-0.199,0.02-0.338,0.053c-0.197-0.238-0.394-0.479-0.595-0.715
	c0.159,0.006,0.328-0.008,0.515-0.051c1.681-0.398,3.049-1.256,4.014-2.375c17.248,10.914,25.799,31.902,29.621,51.775
	c0.823,4.275,1.545,8.73,2.006,13.234c-0.263-1.719-0.799-3.393-1.678-4.986c0.857-0.699,0.261-1.965-1.223-1.6
	c-19.335,4.781-36.024,29.587-27.008,48.927c0.364,0.779,1.389,0.793,2.085,0.445c8.702-4.326,15.542-12.762,20.782-20.701
	c3.643-5.521,7.451-12.998,7.233-20.013c0.61,7.324,0.462,14.728-1.175,21.66c-3.516,14.887-12.727,27.756-13.054,43.447
	c-0.003,0.166,0.129,0.271,0.334,0.33c-15.128,0-30.256,0-45.384,0c-0.847,0-3.159,1.279-1.225,1.279c0.42,0,0.841,0,1.261,0
	c-0.579,0.197-1.048,0.479-0.982,0.73c4.225,16.012,9.283,31.805,14.476,47.525c2.046,6.191,4.137,12.369,6.273,18.531
	c0.565,1.631,1.26,6.191,2.678,7.348c0.592,0.48,3.111-0.662,2.736-0.969c-1.149-0.936-1.996-5.66-2.516-7.154
	c-2.142-6.16-4.222-12.342-6.273-18.531c-5.203-15.701-10.242-31.484-14.464-47.48c20.073,0,40.146,0,60.218,0
	c8.587,0,17.174,0,25.762,0c0.883,0,1.766,0,2.648,0c1.457,0,0.377-0.189,0.446,0.459c0.241,2.26-0.447,4.832-0.872,7.041
	c-0.221,1.146-0.505,2.277-0.819,3.402c-0.39,1.391-1.281,1.674,0.437,1.447c-0.915,0.121-1.873,0.875-1.464,1.141
	c-4.313,0.83-8.559,1.906-12.694,3.328c-7.816,2.686-16.269,7.381-19.265,15.588c-5.481,15.012,6.896,26.406,20.554,34.203
	c-0.029,0.041-0.059,0.082-0.08,0.129c-1.009,2.268-2.072,4.51-3.236,6.701c-0.205,0.389-0.443,0.758-0.683,1.125
	c-0.47,0.018-0.94,0.027-1.41,0.033c-5.267,0.064-10.541-0.064-15.806-0.15c-6.392-0.105-12.783-0.246-19.173-0.416
	c-2.914-0.076-8.313,0.352-10.477-0.369c0.007,0.025,0.014,0.053,0.021,0.076c-0.652-0.174-1.644-0.025-2.058,0.459
	c-0.004,0.004-0.008,0.008-0.012,0.014c-0.428,0.502-0.298,1.057,0.34,1.27c3.22,1.072,7.808,0.404,11.139,0.494
	c7.346,0.201,14.694,0.348,22.042,0.461c5.052,0.08,10.125,0.23,15.177,0.07c3.631-0.117,5.247-5.42,6.508-8.627
	c6.503,3.498,13.086,6.191,17.996,8.082c3.46,1.332,6.955,2.572,10.472,3.752c-2.521,1.068-4.969,2.424-6.668,4.393
	c-0.256,0.297-0.368,0.713-0.118,1.053c0.198,0.27,0.407,0.533,0.62,0.795c-0.108,0.166-0.07,0.318,0.203,0.428
	c0.096,0.037,0.18,0.078,0.263,0.119c0.276,0.318,0.562,0.633,0.857,0.941c0.195,0.729-0.25,1.611-0.7,2.395
	c-1.432,2.488-4.753,4.35-7.391,4.859c-3.261,0.633-6.417,1.139-9.591,2.18c-4.125,1.354-8.106,3.541-10.855,6.961
	c-4.678,5.822-0.087,12.582,6.207,14.176c8.053,2.041,17.34-1.188,24.842-3.883c6.992-2.514,13.665-5.775,20.296-9.102
	c0.729,0.533,1.521,0.984,2.265,0.928c1.165-0.092,2.438-1.078,3.428-1.596c3.008-1.566,6.023-3.121,9.043-4.668
	c3.436-1.758,6.882-3.498,10.351-5.189c1.314-0.645,2.637-1.27,3.969-1.875c0.217-0.1,0.602-0.209,0.949-0.316
	c4.437,0.955,8.875,1.883,13.302,2.801c10.617,2.205,21.266,4.264,31.863,6.564c6.73,1.463,13.805,2.783,20.154,5.547
	c0.551,0.24,1.32-0.004,1.814-0.406c0.158-0.021,0.314-0.061,0.463-0.115c1.287-0.475,2.596-0.965,3.894-1.492
	c0.263,0.568,1.634,0.846,2.419,0.332c1.6-1.047,6.842,1.135,8.51,1.602c3.324,0.928,6.584,2.088,9.795,3.338
	c8.084,3.146,15.746,6.516,24.289,8.316c8.906,1.877,25.164,3.24,29.024-7.768c4.142-11.807-11.424-19.061-20.209-21.346
	c-3.707-0.963-7.538-1.316-11.354-1.414c-4.81-0.121-9.215,0.736-13.865-0.961c-3.95-1.443-7.102-5.566-11.475-5.617
	c0.086-0.344,0.172-0.684,0.264-1.018c0.139-0.518-1.01-0.518-1.899-0.232c-6.547-2.396-12.922-5.311-19.208-8.463
	c26.695-2.479,55.027-0.834,79.969-12.342c11.053-5.1,20.508-13.5,20.141-26.561C463.054,372.465,450.722,366.735,439.485,363.516z
	 M165.694,239.63c-3.424,10-16.743,0.018-20.89-4.426c-4.906-5.256-9.718-12.477-10.073-19.865
	c-0.57-11.861,13.091-5.262,19.194,0.047c0.009,0.035,0.025,0.068,0.054,0.104C159.626,221.841,168.94,230.151,165.694,239.63z
	 M148.016,200.796c1.049-1.033,2.138-0.664,3.251,0.168c3.068,2.293,2.169,6.381,0.539,9.451c-2.058-1.297-4.314-2.363-6.58-2.971
	C145.582,205.063,146.252,202.538,148.016,200.796z M130.087,204.634c2.92-3.27,7.033-0.402,9.215,2.461
	c-1.405,0.268-2.742,0.82-3.952,1.742c-1.687,1.285-2.71,2.811-3.226,4.48C129.404,211.122,127.294,207.761,130.087,204.634z
	 M124.274,224.546c-0.594-1.479-0.711-3.389,0.28-4.73c1.396-1.889,4.27-1.529,6.274-1.211c0.36,0.059,0.743-0.041,1.073-0.217
	c0.561,3.375,2.302,6.926,4.311,10.094c-0.237,0.002-0.484,0.047-0.726,0.15C131.139,230.497,126.131,229.163,124.274,224.546z
	 M140.991,244.013c-1.679-0.066-3.093-1.457-4.026-2.715c-2.507-3.389-1.759-7.643,0.662-10.701
	c1.324,1.883,2.667,3.559,3.792,4.877c1.241,1.453,2.756,2.93,4.45,4.283c-0.215,0.119-0.387,0.266-0.479,0.438
	C144.503,241.882,143.165,244.097,140.991,244.013z M147.644,241.161c0.012-0.02,0.022-0.039,0.034-0.059
	c0.036,0.023,0.072,0.047,0.108,0.072C147.739,241.169,147.691,241.165,147.644,241.161z M159.415,246.015
	c-1.25,3.479-3.787,6.861-7.836,5.268c-3.581-1.41-4.268-5.781-3.009-8.973c0.093-0.234,0.095-0.428,0.043-0.59
	c3.415,2.174,7.283,3.648,11.043,3.484c-0.12,0.145-0.161,0.297-0.082,0.439c0.011,0.021,0.024,0.041,0.036,0.063
	C159.526,245.8,159.456,245.899,159.415,246.015z M171.289,248.38c-3.074,3.105-7.288-0.727-8.817-3.512
	c-0.019-0.035-0.047-0.063-0.073-0.094c0.794-0.223,1.578-0.533,2.344-0.939c1.674-0.895,2.802-2.254,3.503-3.836
	C171.045,241.763,174.313,245.321,171.289,248.38z M173.706,230.183c0.751,1.254,1.417,2.885,1.178,4.375
	c-0.037,0.232-0.13,0.447-0.226,0.66c-0.1,0.219-0.104,0.322-0.09,0.367c-0.026-0.016-0.076-0.031-0.176-0.033
	c-1.415-0.039-2.854-0.76-4.095-1.359c-0.261-0.125-0.699-0.068-1.151,0.064c-0.067-1.08-0.24-2.145-0.507-3.133
	c-0.75-2.787-2.25-5.342-4.055-7.732C168.375,224.278,171.685,226.806,173.706,230.183z M156.218,213.61
	c3.226,1.016,6.219,2.33,9.004,3.895c-0.543,0.744-1.357,1.316-2.438,1.576c-0.623,0.146-0.959,0.488-1.068,0.854
	c-0.972-1.09-1.963-2.146-2.929-3.186c0.023-0.08,0.014-0.16-0.044-0.234c-0.928-1.203-2.174-2.479-3.625-3.691
	c2.878-2.395,7.091-4.498,9.854-0.83c0.776,1.029,1.106,2.227,1.026,3.348c-2.348-1.201-4.826-2.236-7.455-3.064
	C157.719,212.017,155.098,213.259,156.218,213.61z M196.852,248.19c16.539-14.225,33.09,8.328,40.003,22.539
	c-14.494-1-40.621-5.291-40.732-22.238C196.446,248.407,196.72,248.304,196.852,248.19z M189.823,304.532
	c-4.415,7.246-10.812,15.189-18.395,19.541c-6.826-17.045,6.209-38.687,23.047-44.298C199,287.649,194.051,297.593,189.823,304.532z
	 M213.179,427.129C213.491,427.049,213.686,427.096,213.179,427.129L213.179,427.129z M363.397,304.178
	c-4.157,10.971-7.066,22.729-7.008,34.512c0.035,6.896,2.185,12.889,5.486,18.855c2.51,4.535,4.623,8.391,1.418,11.951
	c-0.271,0.039-0.535,0.135-0.76,0.301c-4.52,3.361-10.615,4.592-16.012,5.764c-6.463,1.404-13.092,2.178-19.697,2.439
	c-14.852,0.586-29.977-3.695-43.123-10.32c-0.243-0.121-0.515-0.15-0.784-0.115c-3.115-2.318-4.785-5.223-1.895-9.467
	c2.562-3.762,6.19-6.945,6.909-11.684c2.151-14.182-0.984-29.574-5.985-42.885c-0.053-0.143-0.229-0.209-0.463-0.225
	c5.636-17.755,10.029-35.929,16.031-53.562c0.039-0.113-0.008-0.195-0.104-0.256c0.065-0.018,0.124-0.035,0.169-0.053
	c4.054-1.605,7.466-3.885,10.14-6.797c6.283,7.283,20.998,5.205,28.484,0.279c2.635,3.389,6.194,6.072,10.745,7.875
	c0.197,0.078,0.479,0.061,0.79-0.012c0.92-0.211,2.081-0.891,1.949-0.943c-17.25-6.828-16.365-24.121-16.658-39.797
	c-0.059-3.129-0.273-6.25-0.93-9.316c-0.243-1.143-0.656-2.227-0.838-3.387c-0.152-0.979,0.17-1.488,0.18-1.777
	c1.652,1.088,2.752,4.119,3.303,5.506c1.87,4.707,2.322,9.982,2.609,14.984c0.025,0.424,2.939-0.049,2.898-0.777
	c-0.232-4.014-0.502-13.844-4.011-18.637c0.108-0.135,0.181-0.283,0.187-0.447c0.096-2.275,0.33-3.16,2.074-1.164
	c1.372,1.574,1.916,3.98,2.654,5.889c1.738,4.49,2.503,8.865,2.548,13.686c0.013,1.385,2.929,0.838,2.917-0.289
	c-0.061-6.453-1.26-14.406-5.044-19.908c0.653-0.133,1.3-0.523,1.433-1.109c0.033-0.189,0.082-0.375,0.133-0.561
	c0.355,0.088,0.711,0.182,1.064,0.281c0.107,0.158,0.211,0.316,0.311,0.465c1.142,1.684,1.895,3.631,2.605,5.523
	c1.553,4.133,2.809,8.842,2.458,13.287c-0.122,1.551,2.834,1.174,2.942-0.197c0.455-5.781-1.35-12.191-4.008-17.475
	c0.123-0.047,0.233-0.098,0.33-0.154c0.778-0.125,1.756-0.598,1.838-0.996c0.94,0.332,1.596,2.125,2.115,3.361
	c1.073,2.559,1.625,5.357,2.168,8.064c1.178,5.893,1.768,11.902,2.338,17.877c0.051,0.541,2.971-0.004,2.896-0.775
	c-0.242-2.533-0.465-5.111-0.738-7.697c0.901-0.311,2.357-0.777,3.596-1.025c0.125,0.258,0.246,0.631,0.402,1.16
	c0.182,0.609,0.268,1.258,0.301,1.914c-0.148,0.25-0.15,0.254-0.15,0.254s0.064-0.004,0.16-0.006
	c0.031,0.939-0.031,1.893-0.072,2.783c-0.173,3.734-0.85,7.449-1.417,11.141c-0.993,6.459,0.147,13.178,2.345,19.553
	c-3.927,2.332-7.713,4.139-12.4,3.855c-0.221-0.014-0.44,0.029-0.651,0.104c-0.372-1.143-0.745-2.283-1.132-3.422
	c-0.207-0.605-1.947-0.242-2.633,0.283c-0.207,0.158-0.321,0.328-0.266,0.494c5.918,17.385,10.32,35.262,15.862,52.775
	C363.406,304.167,363.4,304.172,363.397,304.178z M312.704,193.425c-0.438,0.15-0.85,0.346-1.238,0.574
	c-0.586-3.883-3.756-4.182-6.467-1.865c-0.002-0.049-0.002-0.1-0.014-0.15c-1.193-5.207-5.088-3.463-7.31-0.076
	c-0.046-0.037-0.092-0.084-0.138-0.117c2.932-6.938,3.271-14.221,2.944-21.572c0.672,0.709,1.346,1.379,1.887,1.99
	c3.662,4.146,7.637,8.051,11.998,11.459c4.483,3.506,9.797,5.605,15.32,6.811c2.453,0.537,4.898,0.836,7.322,1.168
	c-1.37,0.199-2.549,1.258-3.123,2.889c-0.352-0.182-0.721-0.328-1.113-0.432c-5.241-1.365-4.264,4.633-3.568,7.4
	c1.713,6.816,1.082,14.098,1.2,21.205c-0.187,0.111-0.342,0.25-0.442,0.414c-3.371,5.584-9.982,5.992-15.53,3.662
	c-0.04-0.018-0.083-0.025-0.124-0.037c0.962-8.414-0.032-16.939,1.23-25.334C315.99,198.399,318.659,191.349,312.704,193.425z
	 M340.257,192.815c-0.445-0.404-0.902-0.705-1.362-0.9c0.534,0.082,1.067,0.17,1.601,0.264
	C340.409,192.38,340.329,192.591,340.257,192.815z M313.773,230.288c0.069-0.365,0.125-0.73,0.187-1.098
	c5.807,2.014,12.289,1.24,16.58-2.979c0.06,0.912,0.133,1.82,0.241,2.725c0.548,4.563,1.901,8.637,4.089,12.096
	c-6.382,4.52-20.369,6.492-25.281-0.707C311.614,237.468,313.042,234.122,313.773,230.288z M366.771,216.78
	c0.476,0.064,1,0.158,1.545,0.27c-0.513-0.043-1.026-0.07-1.549-0.078C366.77,216.909,366.77,216.845,366.771,216.78z
	 M413.833,349.247c-9.619,13.174-24.437,3.734-31.262-6.693c-7.527-11.498-12.341-25.082-16.417-38.633
	c0.033-0.088,0.065-0.178,0.099-0.266c0.039-0.102-0.063-0.168-0.242-0.203c-1.903-6.355-3.65-12.699-5.441-18.812
	c-2.787-9.508-5.34-19.107-8.335-28.559c4.854,0.066,8.952-1.525,13.146-3.951c0.961,2.508,2.074,4.949,3.271,7.289
	c-3.444,1.01-6.769,2.385-10.239,3.301c-1.689,0.445-1.455,1.305,0.229,0.861c3.537-0.934,6.918-2.346,10.426-3.355
	c0.605,1.154,1.227,2.285,1.861,3.381c10.209,17.652,19.846,35.669,29.395,53.687c0.342,0.646,3.081-0.432,2.896-0.777
	c-5.361-10.115-10.83-20.177-16.325-30.222c-5.999-10.967-12.802-21.686-17.694-33.197c-2.701-6.355-5.104-13.82-4.372-20.818
	c0.419-4.004,1.247-7.951,1.642-11.961c0.055-0.551,0.141-1.238,0.209-1.984c8.416,0.586,14.969,6.443,19.291,13.602
	c1.615,2.678,2.918,5.533,3.891,8.363c0.279,0.811,0.533,1.619,0.757,2.422c2.271,8.119,4.636,15.85,7.914,23.67
	c5.296,12.639,12.394,24.834,17.093,37.763c-0.115,0.15-0.094,0.287,0.133,0.381c0.602,1.674,1.166,3.357,1.678,5.059
	C421.118,321.868,421.727,338.434,413.833,349.247z M443.171,215.765c1.582,0.928,3.101,1.928,4.566,2.979
	c-5.13-3.174-9.216-5.4-12.471-6.967C437.993,212.917,440.634,214.274,443.171,215.765z M324.195,124.136
	c-1.548,0.027-2.925,0.072-4.167,0.131C321.409,124.146,322.798,124.097,324.195,124.136z M282.009,212.052
	c0.137,0.27,0.664,0.404,1.357,0.951c0.298,0.234,1.084,0.053,1.743-0.219c0.2,0.068,0.381,0.137,0.556,0.201
	c-0.299,2.979-0.522,5.934-0.792,8.766c-0.037,0.381,2.815,0.09,2.897-0.777c0.567-5.941,1.215-11.875,2.318-17.746
	c0.515-2.738,1.183-5.453,2.167-8.063c0.482-1.279,0.886-2.221,1.403-2.566c0.94,0,0.953,0,0.953,0l0.003-0.002
	c0.377,0.199,0.818,0.615,1.356,1.297c0.096,0.121,0.254,0.182,0.445,0.203c-2.682,5.191-4.282,11.875-3.842,17.463
	c0.109,1.383,3.012,0.672,2.897-0.777c-0.344-4.371,0.977-8.93,2.423-12.998c0.648-1.826,1.451-3.6,2.417-5.279
	c0.317-0.555,0.713-1.104,1.175-1.563c0.012,0.012,0.014,0.018,0.025,0.027c0.346,0.479,0.447,1.234,0.576,1.791
	c0.16,0.699,0.961,0.859,1.686,0.668c-1.773,2.271-2.521,5.504-3.467,8.148c-1.396,3.9-1.814,7.881-1.852,12.004
	c-0.014,1.381,2.906,0.844,2.916-0.289c0.045-4.816,0.777-9.172,2.467-13.686c0.623-1.66,1.193-3.449,2.022-5.02
	c1.577-2.984,2.688-1.447,2.796,1.117c0.012,0.254,0.169,0.414,0.402,0.502c-3.682,4.885-3.965,14.141-4.235,18.826
	c-0.019,0.32,2.853,0.016,2.897-0.777c0.291-5.055,0.889-10.07,2.586-14.867c0.457-1.293,1.086-2.512,1.815-3.67
	c0.291-0.441,0.621-0.854,0.989-1.234c0.05-0.055,0.076-0.092,0.109-0.133c1.439,0.939,0.306,4.1-0.019,5.199
	c-0.782,2.658-0.957,5.498-1.093,8.246c-0.785,15.762,1.68,34.293-16.173,41.361c-0.619,0.246-0.672,0.381-0.462,0.445
	c-0.412,0.146-0.745,0.355-0.831,0.605c-0.375,1.102-0.726,2.213-1.089,3.316c-0.005,0.018-0.011,0.033-0.016,0.051
	c-0.004,0-0.008,0-0.012-0.002c-4.741-0.559-9.316-2.002-14.053-2.598c2.765-6.953,4.452-14.461,3.424-21.547
	c-0.532-3.666-1.157-7.309-1.467-11.002c-0.146-1.744-0.174-3.496,0.065-5.23c0.058-0.422,0.184-0.783,0.341-1.139
	C281.892,212.054,281.952,212.054,282.009,212.052z M225.364,320.223c0.556-9.383,3.915-18.482,8.021-26.849
	c7.314-14.9,15.019-30.213,19.646-46.201c1.476-5.102,2.377-9.992,4.843-14.791c1.73-3.367,4.08-6.629,6.93-9.258
	c0.069-0.064,0.138-0.129,0.208-0.191c1.993-1.199,4.034-2.225,5.896-3.064c2.902-1.311,5.363-2.17,6.511-2.549
	c0.333-0.021,0.663-0.053,1-0.055c0.021,0.391,0.043,0.76,0.059,1.09c0.194,4.199,1.017,8.361,1.619,12.514
	c1.08,7.447-1.425,15.057-4.196,21.871c-4.531,11.145-11.273,21.484-17.048,32.02c-5.719,10.434-11.4,20.888-16.971,31.4
	c-0.152,0.287,2.479,0.148,2.848-0.547c9.551-18.019,19.225-36.009,29.395-53.687c0.419-0.729,0.833-1.479,1.245-2.236
	c3.845,2.27,7.839,3.518,12.364,3.166c1.632-0.127,2.232-2.281,0.255-2.129c-3.989,0.311-7.418-0.889-10.789-2.945
	c-0.208-0.127-0.467-0.176-0.742-0.166c0.783-1.535,1.535-3.121,2.235-4.744c4.732,0.631,9.314,2.078,14.07,2.6
	c0.051,0.006,0.104,0.002,0.156,0.002c-5.562,17.242-9.909,34.875-15.595,52.083c-0.729,2.209-1.634,5.055-2.721,8.252
	c-1.615,4.752-3.634,10.279-6.09,15.66c-5.183,11.354-12.309,22.031-21.665,23.309c-1.125,0.152-2.28,0.176-3.47,0.043
	c-1.949-0.219-3.985-0.842-6.112-1.938C226.044,347.096,224.711,331.254,225.364,320.223z M233.738,353.325
	c0.928,0.604,1.911,1.156,2.984,1.625c7.388,3.225,16.48-0.105,22.04-5.324c6.478-6.08,10.367-14.031,13.839-22.092
	c2.846-6.605,5.307-13.344,7.556-20.15c4.399,12.635,7.489,27.713,4.681,40.686c-1.003,4.635-5.02,7.775-7.396,11.701
	c-0.103,0.17-0.199,0.344-0.295,0.518c-0.072,0.129-0.148,0.256-0.216,0.387c-0.705,1.359-0.743,2.598-0.372,3.723
	c-15.158-0.844-31.147-1.33-46.354,1.301C232.823,363.874,234.166,356.842,233.738,353.325z M245.162,465.34
	c-7.529,2.863-19.651,7.453-26.946,1.869c-2.842-2.178-3.677-5.818-2.423-9.047c2.396-6.162,10.967-8.223,16.649-9.236
	c4.077-0.73,8.004-1.709,10.917-4.939c0.496-0.549,1.044-1.229,1.479-1.947c3.219,2.832,7.013,5.291,10.188,7.713
	c2.945,2.248,5.92,4.455,8.926,6.617c0.116,0.082,0.24,0.18,0.369,0.283C258.042,459.799,251.736,462.84,245.162,465.34z
	 M283.456,448.319c-5.092,2.563-10.155,5.184-15.207,7.824c-0.146-0.092-0.338-0.217-0.594-0.395
	c-1.121-0.775-2.222-1.582-3.325-2.385c-3.244-2.361-6.446-4.781-9.624-7.232c-3.022-2.33-6.019-4.703-8.885-7.225
	c-1.054-0.928-2.367-1.646-1.558-2.324c1.725-1.443,4.074-2.469,6.299-3.301c13.579,4.389,27.506,7.781,41.463,10.838
	C289.138,445.456,286.295,446.889,283.456,448.319z M383.671,436.307c0.029,0.002,0.055,0.006,0.084,0.006
	c1.873-0.014,3.92,1.936,5.394,2.914c1.847,1.229,3.797,2.193,5.875,2.951c6.692,2.445,14.521,0.338,21.5,1.438
	c8.702,1.369,29.913,11.096,19.935,22.988c-3.914,4.668-12.261,4.121-17.615,3.615c-8.547-0.809-16.877-3.697-24.725-7.051
	c-5.533-2.363-11.064-4.486-16.896-6.014c-1.799-0.471-4.102-1.174-6.237-1.184c2.868-1.488,5.507-3.344,7.526-5.914
	C381.475,446.288,382.563,441.081,383.671,436.307z M459.499,394.428c-4.279,14.156-21.783,19.572-34.519,22.586
	c-15.321,3.625-31.203,4.635-46.88,5.43c-4.813,0.244-9.643,0.385-14.441,0.848c-0.387,0.037-1.066,0.357-1.514,0.678
	c-11.383-5.771-22.492-12.262-33.823-17.805c-0.913-0.447-1.833-0.887-2.75-1.326c2.442-0.779,4.841-2.002,7.119-2.982
	c6.474-2.787,12.881-5.729,19.302-8.635c15.092-6.826,30.172-13.775,45.657-19.674c1.87-0.713,0.198-2.092-1.239-1.543
	c-14.671,5.588-28.974,12.135-43.273,18.598c-6.381,2.883-12.752,5.787-19.159,8.609c-3.479,1.533-7.252,3.66-11.026,4.365
	c-0.002,0-0.004,0.002-0.006,0.002c-23.902-11.316-48.832-20.533-74.944-25.16c-0.777-0.139-3.392,1.117-1.822,1.395
	c28.417,5.035,55.296,15.637,81.124,28.271c17.771,8.693,34.945,19.768,53.611,26.48c0.104,0.037,0.246,0.045,0.405,0.035
	c-1.2,4.629-2.151,9.455-4.312,13.74c-2.703,5.365-8.76,7.789-14.113,9.768c-0.092-0.078-0.202-0.152-0.354-0.221
	c-9.332-4.063-20.043-5.568-29.942-7.609c-11.574-2.389-23.165-4.693-34.712-7.199c0.008-0.334-0.243-0.615-0.915-0.678
	c-0.465-0.045-0.943,0.033-1.42,0.17c-3.842-0.846-7.68-1.711-11.509-2.615c-10.295-2.43-20.577-5.084-30.681-8.271
	c0.198-0.703-0.4-1.404-1.55-0.996c-0.234,0.082-0.478,0.17-0.716,0.254c-5.343-1.732-10.639-3.609-15.85-5.703
	c-11.947-4.801-25.256-11.082-32.93-21.893c-6.462-9.104-5.212-20.355,3.74-26.992c6.88-5.102,15.914-7.146,24.196-8.506
	c15.516-2.543,31.499-2.193,47.134-1.295c0.138,0.008,0.278-0.01,0.417-0.041c1.69,1.967,4.47,3.457,6.425,4.484
	c0.147,0.078,0.357,0.09,0.596,0.063c13.372,6.25,28.18,9.707,42.985,9.123c6.924-0.271,13.85-1.342,20.613-2.811
	c5.481-1.189,11.486-2.748,16.062-6.15c0.491-0.365,0.604-0.729,0.491-1.025c0.738-0.602,1.377-1.234,1.876-1.928
	c0.174,0.193,0.622,0.275,1.337,0.074c23.715-6.707,50.802-10.559,74.544-1.771c5.713,2.115,11.864,5.373,15.401,10.531
	C461.37,381.825,461.079,389.206,459.499,394.428z M321.106,211.88c0.799,0.01,0.751-4.877,0.73-5.416
	c-0.07-1.787-0.305-3.568-0.334-5.357c-0.021-1.195,2.899-1.705,2.924-0.262c0.07,4.096,2.197,13.088-4.358,13.01
	C318.107,213.833,319.802,211.864,321.106,211.88z M310.788,186.728c-2.846,0.074-5.476,1.248-8.25,1.764
	c-0.139,0.027-1.396,0.191-1.16-0.283c0.254-0.514,1.209-0.703,1.697-0.793c3.032-0.566,5.84-1.777,8.965-1.859
	C313.962,185.505,311.562,186.708,310.788,186.728z M316.405,219.169c0.391-0.586,1.252-0.799,1.911-0.799c1.511,0,3.021,0,4.53,0
	c0.474,0,1.173,0.311,0.791,0.881c-0.391,0.586-1.252,0.797-1.91,0.797c-1.51,0-3.02,0-4.53,0
	C316.724,220.048,316.024,219.737,316.405,219.169z M338.339,249.126c-10.625,5.703-22.646,6.113-33.728,1.373
	c-0.248-0.107,1.958-1.305,2.735-0.973c9.359,4.006,19.607,4.484,28.785-0.439C336.638,248.815,339.562,248.47,338.339,249.126z" fill="#fca203"></path>
</svg>