<?xml version="1.0" standalone="no"?>
<svg version="1.1" id="Layer_1" xmlns="http://www.w3.org/2000/svg" xmlns:xlink="http://www.w3.org/1999/xlink" x="0px" y="0px" viewBox="0 0 595.28 595.28" enable-background="new 0 0 595.28 595.28" xml:space="preserve">
<path id="color_x5F_6" fill="#4b0505" d="M219.814,376.853h-20.098V280.56h-14.939l-67.918,96.293v16.725h64.573v35.603h18.283
	v-35.603h20.098L219.814,376.853L219.814,376.853z M181.433,376.853L181.433,376.853h-46.602l46.602-66.982V376.853z
	 M314.066,444.119L314.066,444.119c7.143-5.839,12.501-14.117,16.072-24.832c3.6-10.715,5.386-24.775,5.386-42.208
	c0-14.74-1.106-26.447-3.345-35.122c-2.239-8.702-5.301-16.072-9.241-22.11c-3.912-6.038-8.901-10.687-14.91-13.89
	c-6.038-3.203-13.039-4.819-21.033-4.819c-10.828,0-19.814,2.92-26.929,8.731c-7.143,5.811-12.529,14.06-16.158,24.774
	c-3.628,10.715-5.414,24.86-5.414,42.435c0,27.893,4.904,48.047,14.712,60.406c8.192,10.261,19.446,15.42,33.789,15.42
	C297.909,452.906,306.923,449.986,314.066,444.119L314.066,444.119z M265.849,425.779L265.849,425.779
	c-5.726-8.079-8.589-24.321-8.589-48.699c0-24.407,3.146-41.131,9.439-50.173c5.017-7.115,11.707-10.658,20.098-10.658
	c8.532,0,15.647,4.025,21.373,12.075c5.726,8.022,8.589,24.293,8.589,48.756c0,24.321-2.863,40.535-8.589,48.642
	c-5.726,8.107-12.784,12.161-21.175,12.161C278.605,437.882,271.546,433.857,265.849,425.779L265.849,425.779z M430.967,376.853
	L430.967,376.853V280.56h-14.939l-67.918,96.293v16.725h64.573v35.603h18.283v-35.603h20.098v-16.725H430.967z M412.683,376.853
	L412.683,376.853h-46.602l46.602-66.982V376.853z M211.991,494.009L211.991,494.009c0-2.325-1.899-4.195-4.139-4.252h-6.18v12.188
	h3.628v-3.685h2.551C210.205,498.119,211.991,496.248,211.991,494.009L211.991,494.009z M207.342,495.426L207.342,495.426h-2.041
	v-2.807h2.041c0.794,0.028,1.361,0.624,1.361,1.39C208.702,494.773,208.079,495.426,207.342,495.426L207.342,495.426z
	 M215.42,489.757L215.42,489.757l-4.847,12.188h3.628l0.964-2.438h4.224l0.964,2.438h3.628l-4.847-12.188H215.42z M216.157,497.07
	L216.157,497.07l1.134-2.807l1.106,2.807H216.157z M230.189,495.256L230.189,495.256h6.18v2.438
	c-0.624,2.75-3.118,4.819-6.038,4.819h-0.992c-3.657-0.057-6.321-3.033-6.321-6.69c0-3.543,2.466-6.435,6.321-6.661h0.992
	c2.523,0,4.649,1.531,5.669,3.686l-3.09,1.134c-0.567-0.992-1.616-1.645-2.835-1.645h-0.51c-1.843,0.057-3.345,1.588-3.345,3.486
	c0,1.814,1.389,3.459,3.345,3.516h0.51c1.219,0,2.268-0.624,2.835-1.645h-2.721L230.189,495.256L230.189,495.256z M237.474,489.757
	L237.474,489.757h9.751v2.438h-6.151v2.438h4.932v2.438h-4.932v2.409h6.151v2.466h-9.751V489.757z M265.764,489.757L265.764,489.757
	h3.657v12.188h-3.657l-4.876-6.973v6.973h-3.657v-12.188h3.628l4.904,7.001v-7.001H265.764z M277.357,489.161L277.357,489.161
	h-0.964c-3.855,0.227-6.321,3.146-6.321,6.689c0,3.657,2.693,6.634,6.321,6.69h0.964c3.855-0.198,6.321-3.175,6.321-6.69
	C283.594,492.166,281.071,489.218,277.357,489.161L277.357,489.161z M277.131,499.366L277.131,499.366h-0.51
	c-1.928-0.057-3.316-1.701-3.316-3.516c0-1.898,1.474-3.458,3.316-3.486h0.51c1.928,0.085,3.345,1.645,3.345,3.486
	C280.476,497.75,278.973,499.31,277.131,499.366L277.131,499.366z M283.877,489.757L283.877,489.757h10.913v2.438h-3.628v9.751
	h-3.657v-9.751h-3.628V489.757z M305.194,489.757L305.194,489.757h9.751v2.438h-6.123v2.438h4.904v2.438h-4.904v4.875h-3.628
	L305.194,489.757L305.194,489.757z M322.513,489.161L322.513,489.161h-0.964c-3.855,0.227-6.321,3.146-6.321,6.689
	c0,3.657,2.693,6.634,6.321,6.69h0.964c3.855-0.198,6.321-3.175,6.321-6.69C328.75,492.166,326.255,489.218,322.513,489.161
	L322.513,489.161z M322.287,499.366L322.287,499.366h-0.51c-1.928-0.057-3.317-1.701-3.317-3.516c0-1.898,1.474-3.458,3.317-3.486
	h0.51c1.956,0.085,3.345,1.645,3.345,3.486C325.631,497.75,324.129,499.31,322.287,499.366L322.287,499.366z M338.189,489.757
	L338.189,489.757h3.657v7.199c0,3.062-2.551,5.585-5.641,5.585h-0.935c-3.061-0.057-5.584-2.523-5.613-5.613v-7.171h3.657v7.398
	c0.057,1.19,1.02,2.154,2.239,2.154h0.397c1.191,0,2.211-0.964,2.239-2.154L338.189,489.757L338.189,489.757z M351.398,489.757
	L351.398,489.757h3.657v12.188h-3.657l-4.876-6.973v6.973h-3.657v-12.188h3.628l4.904,7.001v-7.001H351.398z M361.688,489.757
	L361.688,489.757h-5.669v12.188l5.669-0.028c3.402-0.17,5.924-2.863,5.924-6.066C367.613,492.506,364.92,489.813,361.688,489.757
	L361.688,489.757z M361.433,498.884L361.433,498.884h-1.729v-6.094h1.729c1.757,0.142,3.005,1.445,3.005,3.061
	C364.438,497.552,363.077,498.855,361.433,498.884L361.433,498.884z"></path>
<path id="color_x5F_5" fill="#FFD2BB" d="M299.779,191.722v0.057l0.057,0.029v0.057v0.057v0.028v0.057v0.057v0.028v0.057v0.085
	h0.057v0.114v0.085v0.057v0.057v0.028v0.057v0.057v0.085v0.085v0.113v0.085v0.057v0.085v0.085c0,7.313-5.924,13.238-13.238,13.238
	c-7.314,0-13.238-5.924-13.238-13.238v-0.085v-0.085v-0.057v-0.085v-0.113v-0.085v-0.085v-0.057v-0.057v-0.028v-0.057v-0.057v-0.085
	v-0.114h0.057v-0.085v-0.057v-0.028v-0.057v-0.057v-0.028v-0.057v-0.057v-0.029l0.057-0.057v-0.057v-0.085v-0.057v-0.028v-0.057
	v-0.057l0.028-0.028v-0.057v-0.057v-0.028v-0.057v-0.057l0.057-0.028v-0.057v-0.057v-0.085l0.057-0.085v-0.114v-0.085l0.028-0.085
	v-0.113v-0.028l0.057-0.057v-0.057v-0.028v-0.057l0.057-0.085v-0.113l0.028-0.085v-0.085l0.057-0.113l0.057-0.085v-0.113
	l0.028-0.085v-0.085h0.057v-0.113l0.113-0.17v-0.113l0.028-0.028v-0.057c0.057-0.085,0.057-0.198,0.113-0.284l0.028-0.057v-0.028
	l0.057-0.113v-0.007c0.084,0.013,0.152,0.016,0.199,0.007c0.737-0.17-3.175-6.378-2.891-8.192c0.085-0.482,0.312-0.907,0.652-1.276
	c-1.616-1.474-2.976-4.28-2.126-5.556c3.317-5.103,7.398,4.167,4.819,6.123c0.198,0,0.425-0.085,0.709-0.227
	c2.239-1.248-0.085-10.063,8.787-13.437c6.631-2.5,13.151,2.742,18.744,3.017c1.157,4.757,1.081,9.635,0.161,13.906
	c-0.368,1.729-0.85,3.317-1.417,4.762c-0.624,1.531-1.361,2.892-2.239,4.054v0.057v0.085V191.722z M336.063,385.243h-5.044h-0.002
	c0.283,2.409,0.397,3.827,0.397,3.827h0.001h4.024C335.439,389.07,335.666,387.653,336.063,385.243z M237.247,385.243
	c0.283,2.324,0.624,3.827,0.624,3.827h4.025c0,0,0.142-1.332,0.397-3.827H237.247z M244.986,277.385
	c-0.794-5.329-1.418-10.687-1.616-16.016c-0.227-7.001,0.198-13.946,0.907-20.919h-13.833c-1.247,6.349-3.572,19.956-2.438,27.751
	C228.97,275.004,238.523,276.903,244.986,277.385z M327.02,240.449c0.709,6.974,1.134,13.919,0.878,20.92
	c-0.198,5.216-0.794,10.432-1.559,15.676c6.236-0.255,17.972-1.729,19.049-9.326c1.106-7.597-1.077-20.778-2.324-27.27H327.02z"></path>
<path id="color_x5F_4" fill="#fca203" d="M173.808,433.8c0,2.155-2.183,3.912-4.904,3.912c-2.693,0-4.876-1.757-4.876-3.912
	c0-2.182,2.183-3.94,4.876-3.94C171.625,429.86,173.808,431.617,173.808,433.8z M412.683,376.853v-66.982l-46.602,66.982H412.683z
	 M170.803,413.165c0-6.151-8.674-11.197-19.332-11.197c-10.63,0-19.304,5.045-19.304,11.197c0,6.15,8.674,11.14,19.304,11.14
	C162.129,424.305,170.803,419.316,170.803,413.165z M181.433,376.853v-66.982l-46.602,66.982H181.433z M452.227,423.313
	c-2.466,0-4.479,1.757-4.479,3.94c0,2.183,2.013,3.94,4.479,3.94c2.409,0,4.45-1.758,4.45-3.94S454.636,423.313,452.227,423.313z
	 M286.656,206.522C286.656,206.522,286.656,206.522,286.656,206.522c7.315,0,13.239-5.925,13.239-13.238v-0.085v-0.085v-0.057
	v-0.085v-0.113v-0.085v-0.085v-0.057v-0.057v-0.028v-0.057v-0.057v-0.085v-0.114h-0.001v0.114v0.085v0.057v0.057v0.028v0.057v0.057
	v0.085v0.085v0.113v0.085v0.057v0.085v0.085C299.893,200.597,293.969,206.522,286.656,206.522z M451.972,358.173
	c-7.627,4.866-14.586,9.936-21.005,15.112V280.56h-14.939l-67.918,96.293v16.725h60.582
	c-45.509,46.413-60.195,92.005-119.741,74.494c-50.988-14.963-61.579-55.366-89.237-72.498v-1.996h20.098l0.001-16.725h-20.098
	V280.56h-14.939l-67.918,96.293v16.725h20.098c-77.921,18.576-80.636-48.586-47.82-62.476
	c33.591-14.173,49.153-41.613,49.663-66.217c0.482-24.605-32.145-95.358,28.063-133.739c60.207-38.41,112.988,2.551,112.988,2.551
	c33.137,11.99,99.78-36.227,97.937,35.263c-0.935,36.836,20.226,44.659,46.591,46.393l0.096,0.548h1.502h8.504h1.559l0.019-0.111
	c21.918,0.361,45.591-1.043,62.485,7.369C539.676,243.625,536.189,304.513,451.972,358.173z M338.841,211.337
	c-6.35-17.291-28.176-22.479-36.822-23.868c-0.624,1.531-1.361,2.892-2.239,4.054v0.057v0.085v0.057v0.057l0.057,0.029v0.057v0.057
	v0.028v0.057v0.057v0.028v0.057v0.085h-0.001v-0.085v-0.057v-0.028v-0.057v-0.057v-0.028v-0.057v-0.057l-0.057-0.029v-0.057v-0.057
	v-0.085v-0.057c0.878-1.162,1.615-2.523,2.239-4.054c0.567-1.445,1.049-3.033,1.417-4.762c0.92-4.271,0.996-9.149-0.161-13.906
	c1.89,0.093,3.675-0.379,5.322-1.912c6.605-6.123,0.709-16.044-9.128-20.778c-9.836-4.677-10.205,2.807-18.397,3.43
	c-7.512,0.51-10.488,2.693-13.153,8.192c-5.783,1.077-5.017,9.014-2.608,18.539c1.556,6.26,4.702,9.543,6.914,11.036
	c-7.907,1.162-31.14,6.077-37.754,24.028c-8.079,21.771-6.888,29.112-6.888,29.112h2.863h13.831c0,0,0,0.001,0,0.001h-13.832
	c-1.247,6.349-3.572,19.956-2.438,27.751c0.964,6.803,10.516,8.702,16.979,9.184c0.17,1.19,0.368,2.352,0.567,3.514c0,0,0,0,0,0
	c-7.852,3.231-13.662,8.589-15.023,17.575c-3.288,21.883,4.394,72.454,6.718,86.769c0.283,2.324,0.624,3.827,0.624,3.827h-0.001
	c0,0-1.219,2.579-4.932,4.365c-1.899,0.964-4.308-0.765-4.45,2.325c-0.058,1.97,6.606,1.028,10.844-0.149
	c1.775,18.471,6.394,32.446,13.874,41.873c8.192,10.261,19.446,15.42,33.789,15.42c10.914,0.002,19.928-2.918,27.071-8.785
	c7.143-5.839,12.501-14.117,16.072-24.832c2.206-6.566,3.728-14.395,4.578-23.481c4.23,1.078,10.162,1.813,10.107-0.046
	c-0.143-3.09-2.552-1.361-4.451-2.325c-3.713-1.786-4.932-4.365-4.932-4.365h-0.001c0,0,0.227-1.417,0.624-3.827
	c2.324-14.315,10.006-64.885,6.718-86.769c-1.474-9.694-8.135-15.194-16.951-18.284c0.17-1.048,0.368-2.096,0.51-3.145
	c6.236-0.255,17.971-1.729,19.048-9.326c1.106-7.597-1.077-20.778-2.324-27.27H327.02c0,0,0-0.001,0-0.001
	c-0.028-0.425-0.057-0.878-0.113-1.304c-0.212-1.999-1.605-3.678-3.34-4.392c1.736,0.714,3.13,2.394,3.342,4.393
	c0.057,0.425,0.085,0.879,0.113,1.304h16.044h2.665C345.729,240.449,346.92,233.108,338.841,211.337z M286.797,316.249
	c-8.391,0-15.081,3.543-20.098,10.658c-6.293,9.042-9.439,25.766-9.439,50.173c0,24.378,2.863,40.62,8.589,48.699
	c5.697,8.078,12.756,12.103,21.146,12.104c8.391,0,15.449-4.054,21.175-12.161s8.589-24.321,8.589-48.642
	c0-24.463-2.863-40.734-8.589-48.756C302.444,320.274,295.329,316.249,286.797,316.249z M456.677,400.748
	c-8.929,0-16.214,3.798-16.214,8.391c0,4.649,7.285,8.447,16.214,8.447c8.901,0,16.158-3.798,16.158-8.447
	C472.835,404.547,465.578,400.748,456.677,400.748z"></path>
<path id="color_x5F_3" fill="#4b0505" d="M251.25,288.298c1.134,0,2.296,0,3.43,0c10.318,0,20.636,0,30.926,0
	c10.998,0,22.025,0,33.024,0c0.454,0,0.935,0,1.389,0c2.324,0,4.791-2.098,5.272-4.734c0.198-1.134,0.368-2.268,0.539-3.374
	c0.17-1.048,0.368-2.097,0.51-3.146c0.765-5.244,1.361-10.46,1.559-15.676c0.255-7.001-0.17-13.946-0.879-20.92
	c-0.028-0.425-0.057-0.878-0.113-1.304c-0.283-2.665-2.665-4.762-5.159-4.762c-12.047,0-24.094,0-36.142,0
	c-11.991,0-24.066,0-36.057,0c-2.523,0-4.904,2.098-5.131,4.762c-0.057,0.425-0.085,0.879-0.142,1.304
	c-0.709,6.974-1.134,13.918-0.907,20.92c0.198,5.329,0.822,10.687,1.616,16.016c0.17,1.19,0.368,2.353,0.567,3.515
	c0.142,0.878,0.283,1.757,0.425,2.665C246.46,286.201,248.926,288.298,251.25,288.298L251.25,288.298z"></path>
<path id="color_x5F_2" fill="#4b0505" d="M435.559,198.27h-3.402h-0.283h-3.317h-0.113h-3.543
	c-2.665-4.082-12.614-20.693-2.608-22.394c1.077-0.17,2.013,0.057,2.806,0.567c0.425-4.139,1.729-7.427,4.62-7.342
	c3.657,0.142,5.244,3.175,5.698,7.256c0.794-0.454,1.672-0.652,2.721-0.482C448.117,177.577,438.224,194.188,435.559,198.27
	L435.559,198.27z M338.841,211.337L338.841,211.337c-6.35-17.291-28.176-22.479-36.822-23.868c-0.624,1.531-1.361,2.892-2.239,4.054
	l0,0v0.057v0.085v0.057v0.057l0.057,0.029v0.057v0.057v0.028v0.057v0.057v0.028v0.057v0.085h0.057v0.114v0.085v0.057v0.057v0.028
	v0.057v0.057v0.085v0.085v0.113v0.085v0.057v0.085v0.085c0,7.313-5.924,13.238-13.238,13.238s-13.238-5.924-13.238-13.238v-0.085
	v-0.085v-0.057v-0.085v-0.113v-0.085v-0.085v-0.057v-0.057v-0.028v-0.057v-0.057v-0.085v-0.114h0.057v-0.085v-0.057v-0.028v-0.057
	v-0.057v-0.028v-0.057v-0.057v-0.029l0.057-0.057v-0.057v-0.085v-0.057v-0.028v-0.057v-0.057l0.028-0.028v-0.057v-0.057v-0.028
	v-0.057v-0.057l0.057-0.028v-0.057v-0.057v-0.085l0.057-0.085v-0.114v-0.085l0.028-0.085v-0.113v-0.028l0.057-0.057v-0.057v-0.028
	v-0.057l0.057-0.085v-0.113l0.028-0.085v-0.085l0.057-0.113l0.057-0.085v-0.113l0.028-0.085v-0.085h0.057v-0.113l0.113-0.17v-0.113
	l0.028-0.028v-0.057c0.057-0.085,0.057-0.198,0.113-0.284l0.028-0.057v-0.028l0.057-0.113v-0.028v-0.057l0.057-0.057v-0.028
	c-0.397-0.312-0.765-0.652-1.134-1.021c-6.605,0.85-31.89,5.329-38.835,24.179c-8.079,21.771-6.888,29.112-6.888,29.112h2.863
	h13.833c0.057-0.425,0.085-0.878,0.142-1.304c0.227-2.665,2.608-4.762,5.131-4.762c11.991,0,24.066,0,36.057,0
	c12.047,0,24.094,0,36.142,0c2.495,0,4.876,2.098,5.159,4.762c0.057,0.425,0.085,0.879,0.113,1.304h16.044h2.665
	C345.729,240.449,346.92,233.108,338.841,211.337L338.841,211.337z"></path>
<path id="color_x5F_1" fill="#4b0505" d="M241.896,389.07c0,0,1.134,3.798,0.85,5.046c-0.227,1.219-14.343,4.507-14.258,1.644
	c0.142-3.09,2.551-1.361,4.45-2.325c3.713-1.786,4.932-4.365,4.932-4.365H241.896z M340.372,393.435
	c-3.713-1.786-4.932-4.365-4.932-4.365h-4.025c0,0-1.134,3.798-0.85,5.046c0.227,1.219,14.343,4.507,14.258,1.644
	C344.68,392.67,342.271,394.399,340.372,393.435z M336.063,385.243c2.324-14.315,10.006-64.885,6.718-86.769
	c-1.474-9.694-8.135-15.194-16.951-18.284c-0.17,1.106-0.34,2.24-0.539,3.374c-0.482,2.636-2.948,4.734-5.272,4.734
	c-0.454,0-0.935,0-1.389,0c-10.998,0-22.025,0-33.024,0c-10.29,0-20.608,0-30.926,0c-1.134,0-2.296,0-3.43,0
	c-2.324,0-4.791-2.098-5.272-4.734c-0.142-0.907-0.283-1.786-0.425-2.665c-7.852,3.231-13.663,8.589-15.024,17.575
	c-3.288,21.883,4.394,72.454,6.718,86.769h5.046c1.559-14.599,7.54-65.991,15.676-70.441c6.123-3.374,19.814-5.839,28.687-7.172
	c8.872,1.333,22.564,3.798,28.687,7.172c8.135,4.45,14.117,55.842,15.676,70.441L336.063,385.243L336.063,385.243z M274.58,188.349
	c0.737-0.17-3.175-6.378-2.891-8.192c0.085-0.482,0.312-0.907,0.652-1.276c-1.616-1.474-2.976-4.28-2.126-5.556
	c3.317-5.103,7.398,4.167,4.819,6.123c0.198,0,0.425-0.085,0.709-0.227c2.239-1.248-0.085-10.063,8.787-13.437
	c8.872-3.345,17.546,7.172,24.066,1.105c6.605-6.123,0.709-16.044-9.128-20.778c-9.836-4.677-10.205,2.807-18.397,3.43
	c-7.512,0.51-10.488,2.693-13.153,8.192c-5.783,1.077-5.017,9.014-2.608,18.539C267.691,185.854,273.814,188.49,274.58,188.349z
	 M434.482,198.27h-8.504h-4.592l3.09,17.631h1.502h8.504h1.559l3.09-17.631H434.482z"></path>
</svg>