<?xml version="1.0" standalone="no"?>
<svg version="1.1" id="Layer_1" xmlns="http://www.w3.org/2000/svg" xmlns:xlink="http://www.w3.org/1999/xlink" x="0px" y="0px" width="595.28px" height="595.28px" viewBox="0 0 595.28 595.28" enable-background="new 0 0 595.28 595.28" xml:space="preserve">
<path id="color_x5F_2" fill="#fca203" d="M412.464,444.377c-11.534,0.212-23.053,1.166-34.392,2.723
	C377.577,426.471,411.996,423.45,412.464,444.377z M437.011,433.135c-0.797-0.2-1.291-0.316-1.291-0.316l-1.212,0.666
	C435.334,433.326,436.17,433.207,437.011,433.135z M423.663,444.414c9.729,0.244,19.423,1.055,28.984,2.525
	C451.765,431.67,427.12,430.359,423.663,444.414z M427.22,152.818c-0.101,0.125-0.187,0.236-0.282,0.357
	c1.005-0.932,2.146-1.717,3.422-2.273C429.124,151.232,428.013,151.826,427.22,152.818z M414.72,149.318
	c-0.36,0.045-0.729,0.128-1.101,0.229c1.575-0.041,3.187,0.344,4.716,1.039C417.115,149.732,415.857,149.176,414.72,149.318z
	 M438.854,158.168c-0.38-3.902-2.864-8.99-7.671-6.047c-2.56,1.566-4.264,3.879-5.099,6.643c0.179,0.514,0.319,1.029,0.404,1.545
	c0.131,0.791-1.696,1.381-2.515,1.134c-0.67,0.079-1.267-0.061-1.189-0.545c0.085-0.53,0.206-1.055,0.354-1.57
	c-1.04-3.132-3.374-5.843-6.473-7.126c-6.31-2.612-9.237,3.074-7.965,8.793c1.943,8.735,9.642,14.166,16.689,18.903
	C432.544,174.871,439.778,167.657,438.854,158.168z M271.429,463.967l-19.458,13.42c2.562-1.418,5.042-2.961,7.412-4.557
	C263.528,470.039,267.525,467.061,271.429,463.967z M305.032,435.801c-0.066,0.064-0.132,0.128-0.198,0.192
	c0.354,7.076,2.461,13.746,4.541,20.437L305.032,435.801z M225.003,496.735c-2.217,0.175-4.427,0.437-6.635,0.733
	c4.03-0.334,8.249-0.629,11.392-0.837C228.179,496.594,226.595,496.609,225.003,496.735z M302.07,438.684
	c-9.338,9.076-18.798,18.09-29.088,26.074c-10.185,7.902-21.356,15.844-33.944,19.351c-4.805,1.339-9.704,2.066-14.504,1.866
	c-2.624,0.067-5.268-0.111-7.814-0.656c-1.928-0.413-4.009-1.531-6.162-3.147c-0.691-0.383-1.376-0.788-2.051-1.235
	c-10.106-6.699-17.692-17.199-23.436-27.732c-1.691-3.102-3.245-6.266-4.682-9.479c-4.195,13.544-10.737,26.244-19.068,37.723
	c5.54,2.542,9.686,6.338,14.387,10.219c6.689,5.522,14.467,6.793,22.995,6.119c8.889-0.702,17.644-2.697,26.544-3.223
	c6.402-0.378,12.502,0.419,18.809,1.398c5.969,0.928,12.124,1.984,18.29,2.512c5.019,0.029,11.788-0.068,18.045-0.608
	c0.063-0.012,0.127-0.021,0.19-0.032c14.341-2.798,23.952-12.084,29.779-25.247c0.002-0.006,0.007-0.011,0.01-0.017
	c-0.034-0.054-0.06-0.113-0.07-0.182C308.642,460.857,303.162,450.277,302.07,438.684z M165.8,487.152
	c-1.573-1.166-3.226-2.241-5.024-3.172C161.86,484.661,163.685,485.809,165.8,487.152z M167.258,467.487
	c1.686-3.007,3.25-6.08,4.685-9.212l-2.224,4.043L167.258,467.487z M197.822,372.015c-0.008-0.179-0.021-0.357-0.028-0.536
	c-1.626,0.781-3.242,1.589-4.863,2.364C194.882,373.33,196.541,372.646,197.822,372.015z M227.72,271.318
	c-0.614,0.205-0.969,0.712-1.201,1.391c0.731-0.693,1.583-1.252,2.582-1.492C228.588,271.164,228.117,271.186,227.72,271.318z
	 M171.136,376.941l0.583,0.377c0,0,0.177-0.027,0.485-0.074C171.844,377.151,171.49,377.046,171.136,376.941z M270.827,280.476
	c-3.236-3.321-7.063-6.353-10.688-7.015c1.328,0.465,2.619,1.029,3.853,1.731C266.573,276.662,268.78,278.482,270.827,280.476z
	 M251.487,429.27c0.639-0.575,1.358-1.22,2.136-1.915c-3.495,2.536-7.134,4.835-11.04,6.583
	C246.258,432.788,249.43,431.121,251.487,429.27z M242.767,264.026c-0.444-1.23-1.093-2.026-2.047-1.708
	c-0.766,0.256-1.596,0.642-2.409,1.074C239.787,262.846,241.348,262.878,242.767,264.026z M197.763,369.083
	c0.002-0.224-0.007-0.448-0.001-0.672c0.022-0.916,1.763-1.42,2.546-0.953c-0.325-1.696,0.117-4.615,0.111-5.651
	c-0.032-5.197-0.055-10.394-0.15-15.59c-0.177-9.652,0.73-21.113-2.494-30.369c-0.444-1.273,2.443-2.082,2.897-0.777
	c3.048,8.754,2.307,19.68,2.489,28.801c0.108,5.406,0.15,10.814,0.182,16.222c0.006,1.117-0.352,5.427-0.094,6.751
	c0.261,0.138,0.404,0.379,0.312,0.744c-0.034,0.136-0.055,0.281-0.129,0.401c-0.218,0.355-0.604,0.633-1.031,0.783
	c0.04,0.345-0.176,0.712-0.802,0.975c-0.303,0.127-0.604,0.263-0.905,0.396c0.001,0.064-0.001,0.13,0,0.195
	c0.01-0.008,0.026-0.02,0.026-0.02s0.262,3.029,0.854,7.751c0.522,2.776,1.225,5.526,2.016,8.286
	c3.344,11.664,7.083,22.959,11.503,34.254c1.71,4.371,3.688,9.765,7.709,12.585c1.039,0.729,2.127,1.253,3.245,1.611
	c1.226,0.296,2.483,0.495,3.755,0.606c3.883,0.091,7.907-1.296,11.446-2.99c9.61-4.602,17.984-11.956,26.186-18.687
	c7.196-5.905,14.14-12.228,20.285-19.243c-0.049-0.032-0.09-0.069-0.114-0.119c-8.224-17.007-8.956-34.924-7.383-53.408
	c0.473-5.552,1.345-11.309-0.663-16.662c-3.156-8.417-8.971-15.355-12.892-23.383c-0.203-0.415,2.571-1.444,2.897-0.775
	c3.88,7.943,10.162,14.894,12.892,23.381c1.783,5.545,1.147,10.941,0.663,16.663c-0.203,2.391-0.364,4.771-0.479,7.142
	c5.342-0.063,10.84-3.523,14.913-7.99l4.801-7.067c0.447-0.958,0.813-1.909,1.078-2.835c0.081-0.283,0.363-0.518,0.719-0.688
	c-0.018-0.021-0.041-0.038-0.056-0.063c-7.987-12.561-16.724-24.883-26.326-36.266c-4.307-5.104-8.509-11.054-14.266-14.645
	c-4.676-2.917-9.76-3.987-15.079-4.323c0.154,0.288,0.305,0.58,0.471,0.855c0.406,0.675-2.35,1.687-2.897,0.777
	c-0.345-0.572-0.657-1.16-0.955-1.757c-0.144-0.002-0.286-0.005-0.43-0.007c-1.286-0.013-0.946-0.803-0.218-1.345
	c-0.083-0.177-0.17-0.353-0.253-0.53c-0.268-0.078-0.423-0.129-0.423-0.129s0-0.305-0.016-0.797
	c-0.378-0.795-0.766-1.586-1.208-2.348c-0.617-1.064-1.341-2.28-2.372-3.008c-1.427-1.008-2.528,0.2-3.441,1.38
	c0.736,2.448,1.539,4.817,2.17,7.008c0.512,1.777,1.261,5.446-2.183,4.203c-2.569-0.928-5.615-8.63-8.684-3.721
	c-2.589,4.142-0.591,8.042-4.218,9.832c1.283,0.21-1.32,1.269-1.943,1.191c-6.931-0.849-10.826-5.676-13.08-11.507
	c-0.608,0.107-1.161,0.076-1.211-0.189c-0.313-1.645-1.309-3.455-3.105-3.828c-1.498-0.312-2.863,1.456-3.175,2.806
	c-0.634,2.738-0.057,5.521-0.008,8.284c0.01,0.528-1.145,0.9-2,0.976c-0.127,0.112-0.296,0.218-0.519,0.309
	c-4.26,1.751-7.858,4.169-10.929,7.07c-1.635,1.749-3.252,3.565-4.723,5.356c-6.145,8.273-9.596,18.799-12.286,28.889
	c-3.854,14.457-6.468,30.034-14.562,42.879c6.336,3.838,12.322,8.926,20,9.557C184.388,376.331,190.764,372.347,197.763,369.083z
	 M221.836,283.176c0.456-0.08,0.807-0.441,1.095-0.968c-0.074,0.034-0.133,0.079-0.211,0.11c-1.036,0.414-1.98,0.562-2.835,0.55
	c0.45,0.183,0.918,0.343,1.405,0.482C221.463,283.271,221.647,283.209,221.836,283.176z M214.046,425.822
	c-0.675-1.451-1.278-2.94-1.852-4.437c-1.289-3.364-2.816-6.694-4.097-10.079C209.747,416.842,211.716,421.938,214.046,425.822z
	 M200.626,367.818c0.013-0.052,0.037-0.1,0.059-0.148c-0.007,0.002-0.013,0.003-0.02,0.004
	C200.652,367.723,200.64,367.77,200.626,367.818z M197.829,280.007c0.154-0.024,0.306-0.032,0.451-0.019
	c-0.007-0.105-0.015-0.211-0.022-0.316c-0.023-0.316-0.049-0.636-0.074-0.957c-0.583,0.537-1.307,1.211-2.139,1.998
	c0.453-0.203,0.91-0.404,1.377-0.597C197.558,280.061,197.694,280.028,197.829,280.007z M202.271,268.913
	c1.053-0.444,2.173-0.651,3.244-0.599C204.381,267.454,203.168,267.242,202.271,268.913z"></path>
<path id="color_x5F_1" d="M191.404,215.65c0.465,0.214-0.796,0.769-0.872,0.795c-0.525,0.188-1.317,0.432-1.862,0.18
	c-1.539-0.709-3.448-2.107-3.158-4.072c0.26-1.762,1.442-2.916,2.845-3.904c0.542-0.383,1.396-0.565,2.049-0.55
	c0.581,0.015,0.59,0.301,0.162,0.603c-1.213,0.855-2.535,2.36-2.11,3.983C188.854,214.189,190.054,215.027,191.404,215.65z
	 M244.277,196.432c1.114,2.451,2.244,4.907,2.88,7.533c0.897,3.697-0.412,5.962-4.513,5.834c-0.621-0.02-3.317,1.152-1.875,1.197
	c3.247,0.102,8.086-0.271,9.345-3.918c1.236-3.579-1.516-8.289-2.94-11.422C246.846,194.934,244.042,195.914,244.277,196.432z
	 M238.199,224.305c-4.545-0.061-9.803-1.279-11.118-6.258c-0.342-1.295-3.24-0.52-2.897,0.775c1.518,5.748,7.696,7.448,12.994,7.52
	C238.523,226.359,240.159,224.331,238.199,224.305z M229.951,200.822c0-2.679,0-5.357,0-8.037c0-0.779-2.897-0.267-2.897,0.777
	c0,2.679,0,5.357,0,8.037C227.054,202.379,229.951,201.866,229.951,200.822z M256.366,189.569c0-1.313-2.91-0.731-2.909,0.32
	c0.001,2.181-0.063,4.436,0.58,6.542c0.34,1.116,3.23,0.315,2.897-0.775C256.334,193.688,256.366,191.607,256.366,189.569z
	 M224.213,176.664c-2.699,0.677-5.202,1.492-7.26,3.44c-0.51,0.482-0.204,1.215,0.382,1.426c0.743,0.269,1.507-0.036,2.049-0.549
	c1.458-1.379,3.485-1.827,5.37-2.3C226.558,178.229,226.009,176.215,224.213,176.664z M257.182,176.855
	c-1.854-1.2-3.893-1.889-6.02-2.43c-0.71-0.18-1.545-0.019-2.049,0.549c-0.418,0.472-0.299,1.184,0.362,1.352
	c1.932,0.49,3.779,1.074,5.463,2.164C255.971,179.159,258.539,177.734,257.182,176.855z M368.361,313.25
	c-0.463-1.035-0.471-2.352,0.394-3.189c1.503-1.457,3.703-1.258,5.577-0.8c0.675,0.165,0.783,0.922,0.374,1.396
	c-0.507,0.59-1.329,0.725-2.049,0.549c-0.042-0.01-0.046-0.011-0.067-0.017c-0.068-0.014-0.136-0.027-0.205-0.041
	c-0.112-0.021-0.224-0.041-0.336-0.057c-0.204-0.029-0.408-0.055-0.613-0.064c-0.003,0-0.003,0-0.007,0
	c-0.079,0.002-0.159,0.004-0.238,0.01c-0.031,0.003-0.061,0.007-0.092,0.01c-0.026,0.03-0.05,0.051-0.053,0.036
	c-0.011,0.023-0.025,0.046-0.035,0.071c-0.009,0.05-0.018,0.1-0.022,0.15c-0.007,0.073-0.006,0.146-0.005,0.221
	c0.008,0.066,0.02,0.167,0.029,0.208c0.024,0.115,0.053,0.229,0.09,0.341c0.039,0.115,0.081,0.23,0.13,0.342
	c0.004,0.009,0.011,0.023,0.018,0.036c0.02,0.037,0.039,0.075,0.06,0.111c0.131,0.228,0.278,0.445,0.446,0.647
	c0.098,0.117,0.199,0.233,0.309,0.341c0.045,0.04,0.091,0.081,0.139,0.118c0.184,0.147,0.382,0.278,0.589,0.392
	c0.067,0.03,0.151,0.067,0.189,0.081c0.047,0.016,0.095,0.031,0.143,0.045c0.057,0.01,0.115,0.014,0.172,0.02
	c0.017-0.001,0.034-0.002,0.052-0.002c0.022-0.011,0.044-0.021,0.065-0.032c0.067-0.052,0.186-0.157,0.23-0.193
	c0.085-0.09,0.171-0.179,0.247-0.276c0.041-0.053,0.08-0.107,0.12-0.162c0.029-0.046,0.075-0.117,0.086-0.136
	c0.109-0.188,0.213-0.382,0.304-0.58c0.197-0.431,0.368-0.88,0.496-1.331c0.203-0.717,0.872-1.112,1.597-1.168
	c0.476-0.036,1.541,0.227,1.337,0.943c-0.426,1.504-1.02,2.96-2.227,4.006C373.112,317.434,369.594,316.006,368.361,313.25z
	 M371.124,311.037C371.328,311.004,371.221,311.018,371.124,311.037L371.124,311.037z M318.938,310.956
	c3.375,0.042,6.693,0.579,10.015,1.132c0.788,0.131,3.395-1.149,1.818-1.412c-3.536-0.588-7.062-1.12-10.653-1.165
	C319.162,309.499,316.989,310.932,318.938,310.956z M397.402,319.99c-0.693,0-1.455,0.185-2.049,0.549
	c-0.458,0.28-0.396,0.605,0.162,0.605c3.445,0,6.89,0,10.334,0c0.693,0,1.455-0.185,2.049-0.549c0.458-0.28,0.396-0.605-0.162-0.605
	C404.292,319.99,400.847,319.99,397.402,319.99z M338.748,289.953c0.291,1.29,3.193,0.533,2.897-0.775
	c-0.661-2.931-2.366-5.336-4.138-7.701c-0.756-1.01-3.526,0.096-2.659,1.252C336.521,284.963,338.122,287.184,338.748,289.953z
	 M415.697,301.146c-3.875,1.144-7.657,2.728-11.661,3.379c-1.619,0.263-2.182,2.55-0.228,2.232c4.291-0.697,8.3-2.284,12.452-3.51
	C418.041,302.722,417.491,300.616,415.697,301.146z M375.384,427.01c-8.686,3.833-18.335,7.404-28.007,6.599
	c-10.577-0.881-18.826-6.687-25.709-14.431c-5.12,5.278-10.324,10.476-15.587,15.602c-0.35,0.34-0.7,0.681-1.049,1.021
	c-0.066,0.064-0.132,0.128-0.198,0.192c0.354,7.076,2.461,13.746,4.541,20.437c1.55,4.986,3.076,9.987,3.822,15.182
	c0.024,0.166-0.029,0.321-0.126,0.464c0.182,0.2,0.235,0.488,0.066,0.869c-5.582,12.608-15.079,22.887-28.835,26.232
	c-12.178,2.962-24.756,1.474-36.981-0.403c-5.836-0.896-11.667-2-17.561-2.142c-1.581-0.038-3.166-0.022-4.757,0.104
	c-2.217,0.175-4.427,0.437-6.635,0.733c-7.164,0.962-14.296,2.324-21.515,2.584c-7.178,0.259-14.782-0.316-20.789-4.681
	c-3.651-2.652-6.783-5.639-10.265-8.22c-1.573-1.166-3.226-2.241-5.024-3.172c-0.708-0.366-1.43-0.721-2.19-1.035
	c-0.658-0.271-0.802-0.879-0.386-1.441c3.306-4.477,6.336-9.161,9.059-14.017c1.686-3.007,3.25-6.08,4.685-9.212
	c2.709-5.914,4.961-12.036,6.672-18.321c0.017-0.062,0.045-0.12,0.073-0.177c-8.247-20.078-11.824-41.974-11.917-63.648
	c-0.001-0.24,0.21-0.448,0.515-0.613c-4.851-2.145-9.162-5.283-13.955-8.103c-0.522-0.308-0.377-0.911-0.11-1.316
	c2.101-3.196,3.839-6.68,5.338-10.355l-0.137-0.12c-0.066-0.012-0.126-0.029-0.179-0.056c-9.952-4.982-22.919-5.533-31.675-12.774
	c-3.814-3.154-6.117-7.008-7.286-11.194c-1.261-2.569-1.825-5.237-1.063-7.778c0.036-0.121,0.074-0.246,0.111-0.369
	c0.104-4.584,1.153-9.279,2.749-13.691c2.457-6.793,6.337-13.693,7.571-20.849c1.189-6.899-0.321-13.385-1.361-20.182
	c-0.937-6.126-1.377-12.498,1.198-18.31c2.096-4.73,5.064-8.915,8.389-12.859c7.383-8.756,15.671-16.874,18.572-28.314
	c5.201-20.51,2.883-54.457,19.921-68.659c1.146-1.37,2.285-2.38,3.35-2.767c0.521-0.189,1.096-0.369,1.709-0.541
	c3.896-1.957,8.56-3.111,14.173-3.24c3.231-2.875,6.957-4.67,10.969-5.613c1.437-0.764,2.614-1.239,3.148-1.105
	c0.589,0.147,1.844,0.167,3.62,0.284c13.227-0.302,28.021,6.247,37.838,12.29c0.914,0.563,1.78,1.147,2.622,1.745
	c1.985,1.137,3.778,2.563,5.403,4.567c4.753,4.825,7.921,10.68,9.875,17.986c2.434,9.104,3.706,19.986-0.106,28.951
	c0.065,2.02,0.078,4.046,0.056,6.07c-0.09,8.543,0.727,17.94-1.819,26.225c-1.885,6.136-5.343,11.655-10.806,15.21
	c-3.038,1.977-6.368,3.521-9.877,4.46c-3.109,0.833-8.8,1.332-10.037,4.925c-1.562,4.539-0.717,9.667,0.641,14.593
	c0.685-0.512,1.42-0.951,2.181-1.232c1.477-0.547,3.037-0.515,4.456,0.634c0.019,0.015,0.039,0.025,0.058,0.041
	c2.261,1.884,3.4,4.743,4.64,7.444c4.259,0.113,8.642,0.541,12.674,1.949c1.328,0.465,2.619,1.029,3.853,1.731
	c2.582,1.47,4.789,3.29,6.835,5.283c2.548,2.481,4.843,5.234,7.238,7.977c10.591,12.123,20.074,25.464,28.706,39.039
	c0.297,0.468-0.007,0.909-0.506,1.205c0.085,0.102,0.122,0.233,0.072,0.405c-2.674,9.363-13.425,19.322-23.763,19.931
	c-0.565,14.804,0.928,29.192,7.218,43.003c1.415-1.707,2.799-3.439,4.108-5.232c4.825-6.607,9.63-13.805,11.487-21.889
	c1.275-5.554,1.51-11.119,1.896-16.779c0.457-6.689,2.275-16.941,10.157-18.959c4.909-1.256,6.056,6.714,6.561,9.816
	c0.173,1.061,0.32,2.124,0.458,3.188c8.734-13.583,16.048-28.346,25.841-41.218c-0.085-0.12-0.088-0.286,0.032-0.505
	c3.955-7.191,11.528-9.098,19.269-8.982c7.727,0.116,16.305-0.136,22.971,4.461c8.536,5.885,4.455,14.11,0.893,22.023
	c-3.182,7.068-7.797,13.388-11.735,20.04c-0.165,0.278-0.638,0.498-1.147,0.616c0.241,0.011,0.482,0.018,0.723,0.04
	c0.126,0.012,0.215,0.033,0.288,0.06c0.838-0.507,2.772-0.599,2.542-0.178c-5.159,9.413-10.878,18.508-17.141,27.229
	c-6.959,9.691-14.382,19.024-22.141,28.073c8.514,13.193,28.835-5.895,35.821-12.186c10.395-9.363,20.497-19.718,28.786-31.029
	c4.282-5.845,8.11-13.922,14.273-17.998c3.977-2.63,10.366-2.641,8.625,3.488c-1.038,3.654-2.868,6.994-4.039,10.597
	c-0.782,2.407-1.401,4.851-1.964,7.308c7.005-7.352,18.877-17.886,24.327-10.475c0.467,0.635,0.728,1.316,0.834,2.027
	c1.652,0.156,6.811,2.633,7.565,3.75c1.58,2.339,0.137,6.256-1.348,9.11c4.286,2.819,4.095,6.866,1.87,11.062
	c0.692-0.363,1.731-0.516,2.175-0.086c4.764,4.604-3.313,12.816-6.41,15.901c-6.724,6.699-14.632,12.575-23.286,16.585
	c-6.486,3.605-13.276,6.678-20.153,9.509C399.655,416.455,387.524,421.652,375.384,427.01z M324.867,345.65
	c0.151,1.4,0.293,2.801,0.434,4.203c0.126,1.254,0.233,2.515,0.428,3.76c0.308,1.972,0.486,1.176-0.498,1.343
	c0.152,0.056,0.284,0.144,0.387,0.266c0.759,0.147,1.301,0.603,0.676,1.138c0.896,1.498,2.327,3.481,3.929,3.015
	c1.888-0.55,3.325-2.366,4.447-3.886c3.112-4.215,5.452-8.968,7.799-13.635c3.003-5.97,6.367-16.592,13.81-18.369
	c3.997-0.954,5.75,0.691,6.325,3.252c2.068-0.727,4.576-1.182,5.646,0.515c0.75,1.189,0.805,2.752,0.533,4.382
	c5.452-0.871,4.379,5.046,2.922,9.416c2.167-1.479,4.799-2.316,7.499-2.438c-0.252-0.109-0.357-0.313-0.163-0.643
	c3.249-5.486,7.083-10.729,9.992-16.408c1.492-2.913,2.733-5.944,3.869-9.012c1.244-3.361,3.382-7.469,1.379-10.979
	c-3.903-6.841-12.53-7.923-19.587-8.272c-6.768-0.336-13.999-0.846-18.884,3.617c0.306,0.258,0.382,0.652-0.037,1.158
	c-11.887,14.328-19.942,31.565-30.163,47.047C325.437,345.381,325.167,345.552,324.867,345.65z M236.683,266.546
	c0.736,2.448,1.539,4.817,2.17,7.008c0.512,1.777,1.261,5.446-2.183,4.203c-2.569-0.928-5.615-8.63-8.684-3.721
	c-2.589,4.142-0.591,8.042-4.218,9.832c1.283,0.21-1.32,1.269-1.943,1.191c-6.931-0.849-10.826-5.676-13.08-11.507
	c-0.608,0.107-1.161,0.076-1.211-0.189c-0.313-1.645-1.309-3.455-3.105-3.828c-1.498-0.312-2.863,1.456-3.175,2.806
	c-0.634,2.738-0.057,5.521-0.008,8.284c0.01,0.528-1.145,0.9-2,0.976c-0.127,0.112-0.296,0.218-0.519,0.309
	c-4.26,1.751-7.858,4.169-10.929,7.07c-1.737,1.642-3.299,3.44-4.723,5.356c-6.145,8.273-9.596,18.799-12.286,28.889
	c-3.854,14.457-6.468,30.034-14.562,42.879c6.336,3.838,12.322,8.926,20,9.557c8.16,0.671,14.536-3.313,21.535-6.577
	c0.002-0.224-0.007-0.448-0.001-0.672c0.022-0.916,1.763-1.42,2.546-0.953c-0.325-1.696,0.117-4.615,0.111-5.651
	c-0.032-5.197-0.055-10.394-0.15-15.59c-0.177-9.652,0.73-21.113-2.494-30.369c-0.444-1.273,2.443-2.082,2.897-0.777
	c3.048,8.754,2.307,19.68,2.489,28.801c0.108,5.406,0.15,10.814,0.182,16.222c0.006,1.117-0.352,5.427-0.094,6.751
	c0.261,0.138,0.404,0.379,0.312,0.744c-0.034,0.136-0.055,0.281-0.129,0.401c-0.218,0.355-0.604,0.633-1.031,0.783
	c0.04,0.345-0.176,0.712-0.802,0.975c-0.303,0.127-0.604,0.263-0.905,0.396c0.001,0.064-0.001,0.13,0,0.195
	c0.077,2.619,0.401,5.186,0.88,7.731c0.522,2.776,1.225,5.526,2.016,8.286c3.344,11.664,7.083,22.959,11.503,34.254
	c1.71,4.371,3.688,9.765,7.709,12.585c1.039,0.729,2.127,1.253,3.245,1.611c1.222,0.392,2.481,0.577,3.755,0.606
	c3.883,0.091,7.907-1.296,11.446-2.99c9.61-4.602,17.984-11.956,26.186-18.687c7.196-5.905,14.14-12.228,20.285-19.243
	c-0.049-0.032-0.09-0.069-0.114-0.119c-8.224-17.007-8.956-34.924-7.383-53.408c0.473-5.552,1.345-11.309-0.663-16.662
	c-3.156-8.417-8.971-15.355-12.892-23.383c-0.203-0.415,2.571-1.444,2.897-0.775c3.88,7.943,10.162,14.894,12.892,23.381
	c1.783,5.545,1.147,10.941,0.663,16.663c-0.203,2.391-0.364,4.771-0.479,7.142c5.342-0.063,10.84-3.523,14.913-7.99
	c2.014-2.207,3.676-4.658,4.801-7.067c0.447-0.958,0.813-1.909,1.078-2.835c0.081-0.283,0.363-0.518,0.719-0.688
	c-0.018-0.021-0.041-0.038-0.056-0.063c-7.987-12.561-16.724-24.883-26.326-36.266c-4.307-5.104-8.509-11.054-14.266-14.645
	c-4.676-2.917-9.76-3.987-15.079-4.323c0.154,0.288,0.305,0.58,0.471,0.855c0.406,0.675-2.35,1.687-2.897,0.777
	c-0.345-0.572-0.657-1.16-0.955-1.757c-0.144-0.002-0.286-0.005-0.43-0.007c-1.286-0.013-0.946-0.803-0.218-1.345
	c-0.083-0.177-0.17-0.353-0.253-0.53c-0.145-0.31-0.292-0.617-0.439-0.926c-0.378-0.795-0.766-1.586-1.208-2.348
	c-0.617-1.064-1.341-2.28-2.372-3.008C238.697,264.158,237.596,265.366,236.683,266.546z M200.685,367.67
	c-0.007,0.002-0.013,0.003-0.02,0.004c-0.013,0.049-0.025,0.096-0.039,0.145C200.64,367.767,200.664,367.719,200.685,367.67z
	 M218.935,163.022c4.104,2.757,9.414,3.313,15.003,3.274c-3.839-0.306-6.709-0.479-7.218-0.479
	C225.91,165.818,222.19,164.363,218.935,163.022z M200.594,204.109l-1.688-0.563c0.355,0.217,0.704,0.455,1.048,0.707
	C200.177,204.184,200.396,204.132,200.594,204.109z M202.271,268.913c1.053-0.444,2.173-0.651,3.244-0.599
	C204.381,267.454,203.168,267.242,202.271,268.913z M197.829,280.007c0.154-0.024,0.306-0.032,0.451-0.019
	c-0.007-0.105-0.015-0.211-0.022-0.316c-0.023-0.316-0.049-0.636-0.074-0.957c-0.583,0.537-1.307,1.211-2.139,1.998
	c0.453-0.203,0.91-0.404,1.377-0.597C197.558,280.061,197.694,280.028,197.829,280.007z M207.246,268.652
	c-0.119-0.5-0.229-1.002-0.332-1.503c0.052,0.542,0.098,1.023,0.138,1.438C207.117,268.609,207.182,268.629,207.246,268.652z
	 M265.136,198.325c-0.003-0.62-0.009-1.239-0.019-1.858c-0.743,0.108-1.435,0.054-1.304-0.177c0.464-0.813,0.864-1.655,1.232-2.513
	c-0.205-5.747-0.824-11.42-2.407-16.889c-4.059-11.577-18.698-8.669-28.311-8.607c-7.918,0.05-15.958-0.909-21.013-6.822
	c1.372,12.44-1.312,49.329-13.867,44.167c-0.62,0.222-1.306,0.333-1.59,0.102c-4.329-3.514-11.51-5.028-14.79,0.804
	c-1.63,2.897-2.494,6.389-1.544,9.677c1.793,6.208,7.306,6.104,12.636,7.388c3.339,0.803,8.554,2.199,10.298,5.568
	c1.706,3.297,2.248,7.794,2.825,11.422c1.847,11.602-1.112,36.716,12.601,42.282c0.45,0.183,0.918,0.343,1.405,0.482
	c0.174-0.079,0.358-0.142,0.547-0.175c0.456-0.08,0.807-0.441,1.095-0.968c1.116-2.032,1.249-6.646,2.383-8.134
	c0.362-0.476,0.762-0.944,1.205-1.365c0.731-0.693,1.583-1.252,2.582-1.492c0.015-0.004,0.029-0.01,0.045-0.014
	c2.575-0.592,4.658,0.258,6.501,1.801c-0.494-1.734-1.045-3.455-1.598-5.15c-0.545-0.021-0.895-0.204-0.571-0.617
	c0.084-0.107,0.177-0.218,0.269-0.328c-1.537-4.873-3.571-12.891-0.72-17.306c2.996-4.639,9.715-4.659,14.351-6.456
	c7.898-3.063,13.721-9.023,15.948-17.293C265.7,217.031,265.178,207.395,265.136,198.325z M232.333,133.129
	c0.13,0.066,0.255,0.121,0.386,0.189c2.297,1.194,4.458,2.135,6.495,2.934C236.998,135.139,234.693,134.08,232.333,133.129z
	 M185.154,136.227c2.333-0.424,4.713-0.752,6.623-0.984C189.546,135.329,187.29,135.58,185.154,136.227z M163.054,177.739
	c0.496-3.224,0.937-6.284,1.311-8.988C163.832,171.833,163.42,174.869,163.054,177.739z M302.07,438.684
	c-9.338,9.076-18.798,18.09-29.088,26.074c-10.185,7.902-21.356,15.844-33.944,19.351c-4.805,1.339-9.704,2.066-14.504,1.866
	c-4.828-0.201-9.553-1.351-13.976-3.804c-0.691-0.383-1.376-0.788-2.051-1.235c-10.106-6.699-17.692-17.199-23.436-27.732
	c-1.691-3.102-3.245-6.266-4.682-9.479c-4.195,13.544-10.737,26.244-19.068,37.723c5.54,2.542,9.686,6.338,14.387,10.219
	c6.689,5.522,14.467,6.793,22.995,6.119c8.889-0.702,17.644-2.697,26.544-3.223c6.402-0.378,12.502,0.419,18.809,1.398
	c5.969,0.928,12.124,1.984,18.29,2.512c6.059,0.519,12.128,0.521,18.045-0.608c0.063-0.012,0.127-0.021,0.19-0.032
	c14.341-2.798,23.952-12.084,29.779-25.247c0.002-0.006,0.007-0.011,0.01-0.017c-0.034-0.054-0.06-0.113-0.07-0.182
	C308.642,460.857,303.162,450.277,302.07,438.684z M327.574,410.412c4.849-5.229,9.627-10.546,14.292-15.966
	c-0.004-0.096,0.107-0.218,0.298-0.344c14.583-16.974,28.016-34.979,38.817-54.575c-0.539,0.267-1.207,0.482-1.516,0.453
	c-4.729-0.444-8.388,2.71-9.644,7.109c-0.074,0.258-0.41,0.476-0.828,0.629c-2.924,6.51-6.384,12.779-9.924,18.967
	c-0.475,0.83-3.387,1.132-2.7-0.068c3.135-5.48,6.208-11.011,8.894-16.728c0.736-1.566,7.647-17.044,3.148-16.604
	c-0.545,1.967-1.391,3.885-1.927,5.227c-3.885,9.723-9.738,18.398-13.997,27.902c-0.352,0.784-3.13,1.061-2.868,0.475
	c3.163-7.058,7.464-13.624,10.787-20.621c1.09-2.295,9.518-20.586,2.377-18.369c0.275,2.994-0.629,6.764-1.413,9.245
	c-2.889,9.136-7.4,19.824-14.436,26.604c-0.926,0.893-3.732,0.399-2.427-0.859c7.066-6.809,12.093-18.166,14.51-27.54
	c0.257-0.996,1.174-4.368,1.107-6.935c-0.525-0.063-0.76-0.257-0.041-0.619c-0.139-1.376-0.636-2.409-1.82-2.488
	c-4.094-0.272-6.379,4.266-8.041,7.256c-3.422,6.158-17.321,41.504-27.163,24.063c-0.193-0.343-0.151-0.668,0.025-0.943
	c-0.598-1.513-0.57-3.916-0.682-5.052c-0.515-5.203-0.083-14.931-3.954-19.006c-3.315-3.489-7.727,10.6-7.933,12.593
	c-0.547,5.295-0.438,10.668-1.314,15.929c-3.965,23.789-24.783,42.796-42.811,57.116c-4.184,3.324-8.361,6.895-12.768,10.093
	c-3.495,2.536-7.134,4.835-11.04,6.583c-0.511,0.229-1.024,0.451-1.544,0.66c-7.407,2.977-16.93,5.055-22.806-1.968
	c-1.729-2.066-3.059-4.384-4.187-6.808c-0.675-1.451-1.278-2.94-1.852-4.437c-1.289-3.364-2.816-6.694-4.097-10.079
	c-0.368-0.973-0.719-1.949-1.034-2.934c-3.704-11.569-8.643-24.014-9.242-36.358c-0.008-0.179-0.021-0.357-0.028-0.536
	c-1.626,0.781-3.242,1.589-4.863,2.364c-5.561,2.659-11.204,4.894-17.686,3.999c-1.048-0.145-2.058-0.348-3.04-0.598
	c-0.361-0.093-0.715-0.198-1.069-0.303c-0.49-0.146-0.973-0.303-1.449-0.471c0.252,26.048,5.405,53.084,18.28,75.956
	c6.109,10.853,14.214,23.089,25.683,28.907c12.778,6.482,26.439,2.63,38.32-3.947c2.562-1.418,5.042-2.961,7.412-4.557
	c4.145-2.791,8.143-5.77,12.046-8.863c8.329-6.599,16.191-13.773,23.865-21.147c2.214-2.128,4.42-4.264,6.625-6.403
	c-0.011-0.258-0.034-0.513-0.04-0.771c-0.017-0.753,1.249-1.256,2.112-1.24C312.022,426.575,319.948,418.634,327.574,410.412z
	 M351.316,432.16c10.938-0.301,20.587-5.242,30.312-9.707c15.243-7,31.578-12.174,46.423-20.051
	c-0.102-0.289,0.093-0.639,0.794-0.936c1.872-0.791,3.714-1.691,5.525-2.666c3.037-1.852,6.001-3.836,8.847-6.032
	c0.194-0.149,0.575-0.262,0.986-0.323c2.485-1.891,4.858-3.91,7.069-6.036c2.814-2.706,12.424-11.38,7.831-15.819
	c-0.03-0.029-0.045-0.059-0.066-0.088c-4.015,6.676-12.619,13.498-16.027,16.15c-1.048,0.815-3.433,0.054-1.877-1.156
	c4.743-3.689,22.705-17.938,15.274-24.757c-5.125,8.107-12.339,14.729-19.704,20.777c-1.064,0.874-3.416,0.031-1.895-1.219
	c7.151-5.873,15.07-12.634,19.481-20.913c2.439-4.578,4.143-9.912-2.339-11.421c-0.163-0.038-0.359-0.071-0.574-0.106
	c-0.977,3.954-5.284,8.221-7.308,10.294c-4.66,4.772-11.481,9.021-15.007,14.73c-0.476,0.769-3.38,1.097-2.688-0.023
	c2.387-3.864,6.651-6.815,9.936-9.857c4.139-3.832,10.457-8.733,11.93-14.483c0.125-0.489,0.182-1.07,0.166-1.67
	c-0.203-0.221-0.331-0.49-0.335-0.834c-0.002-0.178,0.064-0.339,0.17-0.482c-0.379-1.622-1.418-3.001-3.409-2.658
	c-3.403,0.586-6.543,3.125-9.127,5.268c-3.64,3.018-7.063,6.317-10.221,9.842c-0.259,1.198-0.518,2.396-0.79,3.592
	c-2.002,8.817-4.704,17.512-12.511,22.834c-0.526,0.358-3.438,0.714-2.227-0.111c8.197-5.588,10.432-15.378,12.395-24.605
	c-0.563-0.022-0.92-0.207-0.569-0.612c0.259-0.299,0.57-0.657,0.926-1.063c0.167-0.782,0.334-1.56,0.506-2.325
	c1.008-4.501,2.265-8.807,4.059-13.058c0.955-2.264,3.521-6.767,2.435-9.281c-2.304-5.333-11.988,9.165-13.063,10.738
	c-1.584,2.318-3.215,4.599-4.918,6.831c-3.424,4.486-7.105,8.784-10.898,12.963c-10.123,11.153-21.227,22.709-34.341,30.367
	c-6.76,3.947-17.488,8.688-23.5,1.751c-6.351,7.319-12.918,14.454-19.643,21.438c0.284,0.009,0.526,0.077,0.662,0.232
	C331.045,425.717,340.124,432.469,351.316,432.16z M380.341,454.781c0.616,2.321,1.656,4.459,2.966,6.465
	c0.454,0.694,3.271-0.21,2.707-1.074c-1.24-1.899-2.193-3.973-2.775-6.166C383.008,453.138,380.11,453.912,380.341,454.781z
	 M389.032,470.947c2.917,2.792,6.552,4.456,10.334,5.742c0.581,0.197,1.3-0.009,1.856-0.203c0.047-0.017,1.333-0.603,0.882-0.756
	c-3.782-1.285-7.417-2.949-10.334-5.74C391.252,469.494,388.662,470.594,389.032,470.947z M473.672,423.099
	c-7.764,6.427-10.626,16.755-16.745,24.548c0.954,0.167,1.911,0.323,2.862,0.504c0.529,0.101,0.796,0.33,0.886,0.602
	c0.465,0.104,0.784,0.41,0.666,0.959c-4.059,18.948-21.519,36.436-41.513,36.803c0.41,1.875,0.478,3.902,0.59,5.726
	c0.161,2.618,0.367,5.362-0.072,7.965c-0.213,1.268-3.172,1.665-2.932,0.236c0.461-2.739,0.263-5.687,0.035-8.438
	c-0.184-2.222-0.267-4.717-1.166-6.793c-0.494-1.14,2.078-1.951,2.798-0.939c0.044-0.002,0.086-0.01,0.132-0.01
	c18.741,0.104,35.162-16.382,39.102-34.042c-28.51-5.351-58.379-4.511-86.943,0.002c4.083,17.314,19.958,33.729,38.33,34.423
	c0.533-1.118,3.396-1.164,2.748,0.33c-0.942,2.174-0.993,4.938-1.136,7.267c-0.155,2.526-0.368,5.184,0.055,7.694
	c0.228,1.352-2.677,2.084-2.897,0.777c-0.452-2.684-0.283-5.537-0.089-8.236c0.148-2.065,0.241-4.321,0.813-6.373
	c-19.662-0.292-36.9-17.189-40.911-35.912c-0.1-0.465,0.622-0.88,1.371-1.06c0.215-0.453,0.697-0.885,1.348-0.989
	c1.386-0.222,2.779-0.427,4.171-0.631c-0.069-13.438,13.826-20.494,25.304-19.113c0.005-0.011,0.006-0.021,0.012-0.032
	c2.805-5.765,10.62-9.808,15.632-4.872c5.841-6.369,19.119-8.383,23.848-0.101c0.377,0.662-0.526,1.259-1.398,1.431
	c4.748,0.194,8.85,2.584,11.225,6.968c3.754-5.929,8.216-11.612,13.686-16.015c0.628-0.506,1.562-0.414,2.082-0.035
	c0.223-0.003,0.44,0.018,0.634,0.099c2.988,1.247,5.664,3.353,7.043,6.329C473.917,422.246,474.34,422.546,473.672,423.099z
	 M423.663,444.414c9.729,0.244,19.423,1.055,28.984,2.525C451.765,431.67,427.12,430.359,423.663,444.414z M403.186,428.894
	c6.787,1.698,12.143,6.68,12.204,15.433c1.836-0.014,3.672-0.007,5.508,0.02c1.701-5.961,7.349-9.656,13.61-10.861
	c0.827-0.158,1.663-0.277,2.503-0.35c3.826-0.325,7.707,0.265,10.929,1.817c-2.418-6.855-8.627-10.968-16.246-7.675
	c-1.181,0.511-2.938-0.072-1.063-0.883c2.375-1.027,4.736-1.553,6.975-1.602c-0.142-0.054-0.256-0.135-0.324-0.253
	c-4.115-7.208-15.485-5.844-19.694,0.618c-0.132,0.202-0.411,0.369-0.743,0.489c-0.625,0.589-1.958,0.83-2.506,0.12
	c-3.559-4.608-9-1.255-11.063,2.985C403.252,428.803,403.218,428.848,403.186,428.894z M412.464,444.377
	c-0.468-20.927-34.887-17.906-34.392,2.723C389.411,445.543,400.93,444.589,412.464,444.377z M458.934,440.438
	c-0.256-0.105-0.451-0.291-0.514-0.582c-0.901-4.153-2.437-7.911-2.832-12.026c-1.517,2.075-2.934,4.218-4.252,6.378
	c-0.093,0.152-0.215,0.275-0.356,0.373c0.226,0.701,0.427,1.428,0.578,2.201c0.03,0.154-0.042,0.303-0.175,0.439
	c2.313,2.068,3.85,4.936,4.134,8.613C456.758,444.111,457.875,442.295,458.934,440.438z M464.298,430.962
	c-0.069-0.081-0.121-0.175-0.138-0.294c-0.503-3.506-1.084-6.951-2.217-10.288c-1.221,1.208-2.384,2.479-3.494,3.802
	c0.014,0.074,0.021,0.154,0.015,0.242c-0.303,4.519,1.229,8.422,2.354,12.618C461.941,434.986,463.07,432.936,464.298,430.962z
	 M470.514,423.263c-0.012-0.021-0.029-0.036-0.038-0.058c-1.07-2.489-3.156-4.336-5.538-5.547c-0.208,0.174-0.412,0.354-0.617,0.53
	c1.185,3.009,1.855,6.114,2.367,9.28C467.828,425.964,469.088,424.55,470.514,423.263z M377.78,167.693
	c-0.296,7.102-0.912,14.491,1.461,21.324c5.479,15.777,21.482,5.431,32.612,6.472c0.621,0.058,3.331-1.052,1.878-1.188
	c-4.64-0.434-9.042,0.487-13.533,1.569c-7.783,1.875-13.708,1.059-17.604-6.553c-4.903-9.581-1.157-22.447-1.911-32.727
	c-0.817-11.143,1.633-19.857,12.947-24.084c9.897-3.698,21.479-3.25,32.089-2.671c0.146,0.128,0.377,0.223,0.726,0.259
	c5.773,0.6,11.508,0.705,17.304,0.512c4.442-0.148,9.007-0.521,13.085,1.576c9.761,5.021,8.885,19.635,8.843,28.83
	c-0.042,9.291,3.47,21.759-2.426,29.859c-5.809,7.979-20.831,6.612-28.95,3.832c-0.71-0.243-1.764,0.261-2.159,0.836
	c-0.546,0.02-1.125,0.203-1.404,0.547c-5.585,6.889-11.748,13.277-17.478,20.04c0.136-2.032,0.66-4.282,0.807-5.862
	c0.444-4.788,0.923-9.572,1.33-14.364c0.116-1.36-2.82-0.867-2.918,0.287c-0.441,5.194-0.961,10.382-1.442,15.573
	c-0.21,2.263-1.169,5.776-0.46,8.018c0.315,0.999,2.155,0.548,2.638-0.047c6.381-7.87,13.515-15.087,19.896-22.957
	c8.635,2.83,20.357,3.356,28.309-1.52c10.729-6.579,7.74-20.8,7.233-31.432c-0.471-9.873,1.759-23.914-6.734-31.239
	c-3.523-3.038-7.532-4.051-12.098-4.16c-7.496-0.179-14.859,0.393-22.36-0.388c-0.522-0.055-1.072,0.194-1.452,0.537
	c-17.823-0.856-45.437-0.807-48.467,20.249C376.666,154.916,378.038,161.502,377.78,167.693z M423.689,181.667
	c-5.934-3.981-11.914-8.097-15.73-14.294c-2.674-4.342-3.811-11.24,0.017-15.278c1.647-1.737,3.614-2.495,5.643-2.548
	c1.575-0.041,3.187,0.344,4.716,1.039c2.508,1.142,4.788,3.109,6.315,5.367c0.633-1.025,1.404-1.959,2.288-2.777
	c1.005-0.932,2.146-1.717,3.422-2.273c0.028-0.012,0.053-0.029,0.081-0.041c2.683-1.144,6.817-1.945,9.063,0.574
	c4.096,4.594,2.258,12.287-0.307,17.137c-2.729,5.158-7.559,9.023-12.29,12.25c-0.121,0.082-0.314,0.15-0.541,0.205
	C425.882,181.525,424.289,182.069,423.689,181.667z M408.7,160.994c1.943,8.735,9.642,14.166,16.689,18.903
	c7.155-5.026,14.389-12.24,13.465-21.729c-0.38-3.902-2.864-8.99-7.671-6.047c-2.56,1.566-4.264,3.879-5.099,6.643
	c0.179,0.514,0.319,1.029,0.404,1.545c0.131,0.791-1.696,1.381-2.515,1.134c-0.67,0.079-1.267-0.061-1.189-0.545
	c0.085-0.53,0.206-1.055,0.354-1.57c-1.04-3.132-3.374-5.843-6.473-7.126C410.355,149.589,407.428,155.275,408.7,160.994z" fill="#fca203"></path>
</svg>